<svg xmlns="http://www.w3.org/2000/svg" xmlns:xlink="http://www.w3.org/1999/xlink" xmlns:lucid="lucid" width="2461.67" height="1339.5"><g transform="translate(-70 -40)" lucid:page-tab-id="0_0"><path d="M0 0h3677.73v2581.67H0z" fill="#fff"/><path d="M210 240l120 90-120 90-120-90z" stroke="#1a1a1a" fill="#fff"/><use xlink:href="#a" transform="matrix(1,0,0,1,95,245) translate(55.004999999999995 80.4375)"/><use xlink:href="#b" transform="matrix(1,0,0,1,95,245) translate(95.005 80.4375)"/><use xlink:href="#c" transform="matrix(1,0,0,1,95,245) translate(161.67166666666668 80.4375)"/><use xlink:href="#d" transform="matrix(1,0,0,1,95,245) translate(61.671666666666674 109.59305555555555)"/><path d="M378.67 330.5h-47.34v-1h47.34zm74.1 0h-31.44v-1h31.45z" stroke="#1a1a1a" stroke-width=".05" fill="#1a1a1a"/><path d="M331.35 330.5h-1.18l.66-.5-.66-.5h1.18z" fill="#1a1a1a"/><path d="M331.37 330.52h-1.28l.7-.52-.7-.52h1.27zm-1.13-1l.63.48-.63.48h1.08v-.96z" stroke="#1a1a1a" stroke-width=".05" fill="#1a1a1a"/><path d="M467.55 330l-14.27 4.63v-9.26z" fill="#1a1a1a"/><path d="M469.17 330l-16.4 5.32v-10.64zm-15.4 3.95l12.16-3.95-12.15-3.95z" stroke="#1a1a1a" stroke-width=".05" fill="#1a1a1a"/><use xlink:href="#e" transform="matrix(1,0,0,1,378.6666666666667,318.3377777777778) translate(0 17.6)"/><path d="M210.83 640l120 90-120 90-120-90z" stroke="#1a1a1a" fill="#fff"/><use xlink:href="#a" transform="matrix(1,0,0,1,95.83333333333326,645) translate(55.004999999999995 80.4375)"/><use xlink:href="#b" transform="matrix(1,0,0,1,95.83333333333326,645) translate(95.005 80.4375)"/><use xlink:href="#c" transform="matrix(1,0,0,1,95.83333333333326,645) translate(161.67166666666668 80.4375)"/><use xlink:href="#f" transform="matrix(1,0,0,1,95.83333333333326,645) translate(88.33833333333334 109.59305555555555)"/><path d="M211.33 623h-1v-81.34h1zm-.83-104.66h-1v-97.22h1z" stroke="#1a1a1a" stroke-width=".05" fill="#1a1a1a"/><path d="M210.5 421.14h-1v-.9l.5.38.5-.37z" fill="#1a1a1a"/><path d="M210.53 421.16h-1.06v-.96l.53.4.53-.4zm-.53-.5l-.47-.36v.8h.94v-.8z" stroke="#1a1a1a" stroke-width=".05" fill="#1a1a1a"/><path d="M210.83 637.76l-4.63-14.27h9.27z" fill="#1a1a1a"/><path d="M210.83 639.38l-5.32-16.4h10.66zm-3.94-15.4l3.93 12.16 3.95-12.15z" stroke="#1a1a1a" stroke-width=".05" fill="#1a1a1a"/><use xlink:href="#g" transform="matrix(1,0,0,1,183.74999999999997,518.3377777777778) translate(0 17.6)"/><path d="M848.33 670H1280v120H848.33z" stroke="#1a1a1a" fill-opacity="0"/><use xlink:href="#h" transform="matrix(1,0,0,1,860.3333333333335,682) translate(37.33333333333334 55)"/><path d="M568.42 730.5H332.17v-1h236.25zm263.03 0H611.08v-1h220.37z" stroke="#1a1a1a" stroke-width=".05" fill="#1a1a1a"/><path d="M332.18 730.5H331l.67-.5-.67-.5h1.18z" fill="#1a1a1a"/><path d="M332.2 730.52h-1.27l.7-.52-.7-.52h1.27zm-1.13-1l.64.48-.63.48h1.08v-.96z" stroke="#1a1a1a" stroke-width=".05" fill="#1a1a1a"/><path d="M846.2 730l-14.25 4.63v-9.26z" fill="#1a1a1a"/><path d="M847.83 730l-16.38 5.32v-10.64zm-15.38 3.95L844.6 730l-12.15-3.95z" stroke="#1a1a1a" stroke-width=".05" fill="#1a1a1a"/><use xlink:href="#e" transform="matrix(1,0,0,1,568.4166666666666,718.3377777777778) translate(0 17.6)"/><path d="M210 161v62" stroke="#1a1a1a" fill="none"/><path d="M210.5 161h-1v-.5h1z" stroke="#1a1a1a" stroke-width=".05" fill="#1a1a1a"/><path d="M210 237.76l-4.63-14.27h9.26z" stroke="#1a1a1a" fill="#1a1a1a"/><path d="M590 240l120 90-120 90-120-90z" stroke="#1a1a1a" fill="#fff"/><use xlink:href="#a" transform="matrix(1,0,0,1,475,245) translate(41.67166666666667 80.4375)"/><use xlink:href="#i" transform="matrix(1,0,0,1,475,245) translate(81.67166666666667 80.4375)"/><use xlink:href="#j" transform="matrix(1,0,0,1,475,245) translate(135.005 80.4375)"/><use xlink:href="#k" transform="matrix(1,0,0,1,475,245) translate(75.005 109.59305555555555)"/><path d="M848.33 270H1280v120H848.33z" stroke="#1a1a1a" fill-opacity="0"/><use xlink:href="#l" transform="matrix(1,0,0,1,860.3333333333335,282) translate(10.666666666666714 55)"/><path d="M758 330.5h-46.67v-1H758zm73.45 0h-30.78v-1h30.78z" stroke="#1a1a1a" stroke-width=".05" fill="#1a1a1a"/><path d="M711.35 330.5h-1.18l.66-.5-.66-.5h1.18z" fill="#1a1a1a"/><path d="M711.37 330.52h-1.28l.7-.52-.7-.52h1.27zm-1.13-1l.63.48-.63.48h1.08v-.96z" stroke="#1a1a1a" stroke-width=".05" fill="#1a1a1a"/><path d="M846.2 330l-14.25 4.63v-9.26z" fill="#1a1a1a"/><path d="M847.83 330l-16.38 5.32v-10.64zm-15.38 3.95L844.6 330l-12.15-3.95z" stroke="#1a1a1a" stroke-width=".05" fill="#1a1a1a"/><use xlink:href="#e" transform="matrix(1,0,0,1,758,318.3377777777777) translate(0 17.6)"/><path d="M590.5 503.12h-1v-21.4h1zm0-44.72h-1v-37.27h1z" stroke="#1a1a1a" stroke-width=".05" fill="#1a1a1a"/><path d="M590.5 421.14h-1v-.9l.5.38.5-.37z" fill="#1a1a1a"/><path d="M590.52 421.16h-1.04v-.96l.52.4.52-.4zm-.52-.5l-.48-.36v.8h.96v-.8z" stroke="#1a1a1a" stroke-width=".05" fill="#1a1a1a"/><path d="M590 517.88l-4.63-14.26h9.26z" fill="#1a1a1a"/><path d="M590 519.5l-5.32-16.38h10.64zm-3.95-15.38l3.95 12.14 3.95-12.14z" stroke="#1a1a1a" stroke-width=".05" fill="#1a1a1a"/><use xlink:href="#g" transform="matrix(1,0,0,1,563.3333333333334,458.4002777777778) translate(0 17.6)"/><path d="M460 520h260v120H460z" stroke="#1a1a1a" fill-opacity="0"/><use xlink:href="#m" transform="matrix(1,0,0,1,472,532) translate(44.66666666666666 55)"/><use xlink:href="#n" transform="matrix(1,0,0,1,472,532) translate(124.66666666666666 55)"/><path d="M1064.17 391v262.12" stroke="#1a1a1a" fill="none"/><path d="M1064.67 391h-1v-.5h1z" stroke="#1a1a1a" stroke-width=".05" fill="#1a1a1a"/><path d="M1064.17 667.88l-4.64-14.26h9.27z" stroke="#1a1a1a" fill="#1a1a1a"/><path d="M1064.17 791v112" stroke="#1a1a1a" fill="none"/><path d="M1064.67 791h-1v-.5h1z" stroke="#1a1a1a" stroke-width=".05" fill="#1a1a1a"/><path d="M1064.17 917.76l-4.64-14.27h9.27z" stroke="#1a1a1a" fill="#1a1a1a"/><path d="M1560 920l120 90-120 90-120-90z" stroke="#1a1a1a" fill="#fff"/><use xlink:href="#a" transform="matrix(1,0,0,1,1445,925) translate(48.33833333333334 80.4375)"/><use xlink:href="#o" transform="matrix(1,0,0,1,1445,925) translate(88.33833333333334 80.4375)"/><use xlink:href="#c" transform="matrix(1,0,0,1,1445,925) translate(168.3383333333333 80.4375)"/><use xlink:href="#p" transform="matrix(1,0,0,1,1445,925) translate(81.67166666666665 109.59305555555555)"/><path d="M1560 1179.5l120 90-120 90-120-90z" stroke="#1a1a1a" fill="#fff"/><use xlink:href="#a" transform="matrix(1,0,0,1,1445,1184.5) translate(48.33833333333334 80.4375)"/><use xlink:href="#o" transform="matrix(1,0,0,1,1445,1184.5) translate(88.33833333333334 80.4375)"/><use xlink:href="#c" transform="matrix(1,0,0,1,1445,1184.5) translate(168.3383333333333 80.4375)"/><use xlink:href="#q" transform="matrix(1,0,0,1,1445,1184.5) translate(61.671666666666674 109.59305555555555)"/><path d="M1560.5 1162.5h-1v-11.1h1zm0-34.4h-1v-26.97h1z" stroke="#1a1a1a" stroke-width=".05" fill="#1a1a1a"/><path d="M1560.5 1101.14h-1v-.9l.5.38.5-.37z" fill="#1a1a1a"/><path d="M1560.53 1101.16h-1.06v-.96l.53.4.53-.4zm-.53-.5l-.47-.36v.8h.94v-.8z" stroke="#1a1a1a" stroke-width=".05" fill="#1a1a1a"/><path d="M1560 1177.26l-4.63-14.27h9.27z" fill="#1a1a1a"/><path d="M1560 1178.88l-5.32-16.4h10.64zm-3.95-15.4l3.95 12.16 3.95-12.15z" stroke="#1a1a1a" stroke-width=".05" fill="#1a1a1a"/><use xlink:href="#r" transform="matrix(1,0,0,1,1533.3333333333333,1128.0877777777778) translate(0 17.6)"/><path d="M1835.83 950h260v120h-260z" stroke="#1a1a1a" fill-opacity="0"/><use xlink:href="#s" transform="matrix(1,0,0,1,1847.8333333333333,962) translate(18 40)"/><use xlink:href="#t" transform="matrix(1,0,0,1,1847.8333333333333,962) translate(151.33333333333331 40)"/><use xlink:href="#u" transform="matrix(1,0,0,1,1847.8333333333333,962) translate(18 69.15555555555555)"/><use xlink:href="#v" transform="matrix(1,0,0,1,1847.8333333333333,962) translate(138 69.15555555555555)"/><path d="M1835.83 1209.5h260v120h-260z" stroke="#1a1a1a" fill-opacity="0"/><use xlink:href="#w" transform="matrix(1,0,0,1,1847.8333333333333,1221.5) translate(58.00000000000001 25)"/><use xlink:href="#x" transform="matrix(1,0,0,1,1847.8333333333333,1221.5) translate(4.666666666666686 54.15555555555555)"/><use xlink:href="#y" transform="matrix(1,0,0,1,1847.8333333333333,1221.5) translate(124.66666666666667 54.15555555555555)"/><use xlink:href="#v" transform="matrix(1,0,0,1,1847.8333333333333,1221.5) translate(78 83.3111111111111)"/><path d="M1736.75 1010.5h-55.42v-1h55.42zm82.2 0h-39.53v-1h39.53z" stroke="#1a1a1a" stroke-width=".05" fill="#1a1a1a"/><path d="M1681.35 1010.5h-1.18l.66-.5-.66-.5h1.18z" fill="#1a1a1a"/><path d="M1681.37 1010.52h-1.28l.7-.52-.7-.52h1.27zm-1.13-1l.63.48-.63.48h1.08v-.96z" stroke="#1a1a1a" stroke-width=".05" fill="#1a1a1a"/><path d="M1833.7 1010l-14.25 4.63v-9.26z" fill="#1a1a1a"/><path d="M1835.33 1010l-16.38 5.32v-10.64zm-15.38 3.95l12.15-3.95-12.15-3.95z" stroke="#1a1a1a" stroke-width=".05" fill="#1a1a1a"/><use xlink:href="#e" transform="matrix(1,0,0,1,1736.75,998.3377777777778) translate(0 17.6)"/><path d="M1736.75 1270h-55.42v-1h55.42zm82.2 0h-39.53v-1h39.53z" stroke="#1a1a1a" stroke-width=".05" fill="#1a1a1a"/><path d="M1681.35 1270h-1.18l.66-.5-.66-.5h1.18z" fill="#1a1a1a"/><path d="M1681.37 1270.03h-1.28l.7-.53-.7-.53h1.27zm-1.13-1l.63.47-.63.47h1.08v-.94z" stroke="#1a1a1a" stroke-width=".05" fill="#1a1a1a"/><path d="M1833.7 1269.5l-14.25 4.63v-9.27z" fill="#1a1a1a"/><path d="M1835.33 1269.5l-16.38 5.32v-10.64zm-15.38 3.95l12.15-3.95-12.15-3.95z" stroke="#1a1a1a" stroke-width=".05" fill="#1a1a1a"/><use xlink:href="#e" transform="matrix(1,0,0,1,1736.75,1257.8377777777778) translate(0 17.6)"/><path d="M2251.67 1070h260v120h-260z" stroke="#1a1a1a" fill-opacity="0"/><use xlink:href="#z" transform="matrix(1,0,0,1,2263.6666666666665,1082) translate(11.333333333333343 55)"/><use xlink:href="#A" transform="matrix(1,0,0,1,2263.6666666666665,1082) translate(118 55)"/><path d="M2096.83 1010h76.92v120h61.03" stroke="#1a1a1a" fill="none"/><path d="M2096.85 1010.5h-.52v-1h.52z" stroke="#1a1a1a" stroke-width=".05" fill="#1a1a1a"/><path d="M2249.55 1130l-14.27 4.63v-9.27z" stroke="#1a1a1a" fill="#1a1a1a"/><path d="M2096.83 1269.5h76.92V1130h61.03" stroke="#1a1a1a" fill="none"/><path d="M2096.85 1270h-.52v-1h.52z" stroke="#1a1a1a" stroke-width=".05" fill="#1a1a1a"/><path d="M2249.55 1130l-14.27 4.63v-9.27z" stroke="#1a1a1a" fill="#1a1a1a"/><path d="M1064.17 920l120 90-120 90-120-90z" stroke="#1a1a1a" fill="#fff"/><g><use xlink:href="#B" transform="matrix(1,0,0,1,949.1666666666667,925) translate(61.67166666666667 80.4375)"/><use xlink:href="#C" transform="matrix(1,0,0,1,949.1666666666667,925) translate(115.005 80.4375)"/><use xlink:href="#D" transform="matrix(1,0,0,1,949.1666666666667,925) translate(141.67166666666668 80.4375)"/><use xlink:href="#E" transform="matrix(1,0,0,1,949.1666666666667,925) translate(61.671666666666674 109.59305555555555)"/></g><path d="M1197.98 1010.5h-12.48v-1h12.48zm224.8 0h-22.13v-1h22.13z" stroke="#1a1a1a" stroke-width=".05" fill="#1a1a1a"/><path d="M1185.5 1010.5h-1.17l.67-.5-.67-.5h1.18z" fill="#1a1a1a"/><path d="M1185.54 1010.52h-1.28l.7-.52-.7-.52h1.28zm-1.13-1l.64.48-.63.48h1.1v-.96z" stroke="#1a1a1a" stroke-width=".05" fill="#1a1a1a"/><path d="M1437.55 1010l-14.27 4.63v-9.26z" fill="#1a1a1a"/><path d="M1439.17 1010l-16.4 5.32v-10.64zm-15.4 3.95l12.16-3.95-12.15-3.95z" stroke="#1a1a1a" stroke-width=".05" fill="#1a1a1a"/><g><use xlink:href="#F" transform="matrix(1,0,0,1,1197.9802827469198,998.3377777777778) translate(0 17.6)"/><use xlink:href="#G" transform="matrix(1,0,0,1,1197.9802827469198,998.3377777777778) translate(21.333333333333332 17.6)"/><use xlink:href="#H" transform="matrix(1,0,0,1,1197.9802827469198,998.3377777777778) translate(53.33333333333333 17.6)"/><use xlink:href="#I" transform="matrix(1,0,0,1,1197.9802827469198,998.3377777777778) translate(138.66666666666666 17.6)"/></g><path d="M276 60c24.3 0 44 22.4 44 50s-19.7 50-44 50H144c-24.3 0-44-22.4-44-50s19.7-50 44-50z" stroke="#1a1a1a" fill="#fff"/><g><use xlink:href="#J" transform="matrix(1,0,0,1,105,65) translate(25 52.9375)"/></g><path d="M1130.17 1220c24.3 0 44 22.4 44 50s-19.7 50-44 50h-132c-24.3 0-44-22.4-44-50s19.7-50 44-50z" stroke="#1a1a1a" fill="#fff"/><g><use xlink:href="#K" transform="matrix(1,0,0,1,959.1666666666667,1225) translate(85 52.9375)"/></g><path d="M1064.67 1203.12h-1v-31.4h1zm0-54.72h-1v-47.28h1z" stroke="#3a414a" stroke-width=".05" fill="#3a414a"/><path d="M1064.67 1101.14h-1v-.9l.5.38.5-.37z" fill="#3a414a"/><path d="M1064.7 1101.16h-1.06v-.96l.53.4.52-.4zm-.53-.5l-.48-.36v.8h.94v-.8z" stroke="#3a414a" stroke-width=".05" fill="#3a414a"/><path d="M1064.17 1217.88l-4.64-14.26h9.27z" fill="#3a414a"/><path d="M1064.17 1219.5l-5.33-16.38h10.65zm-3.95-15.38l3.95 12.14 3.94-12.14z" stroke="#3a414a" stroke-width=".05" fill="#3a414a"/><g><use xlink:href="#L" transform="matrix(1,0,0,1,968.1666666666667,1148.4002777777778) translate(0 17.6)"/><use xlink:href="#M" transform="matrix(1,0,0,1,968.1666666666667,1148.4002777777778) translate(21.333333333333332 17.6)"/><use xlink:href="#N" transform="matrix(1,0,0,1,968.1666666666667,1148.4002777777778) translate(42.666666666666664 17.6)"/><use xlink:href="#O" transform="matrix(1,0,0,1,968.1666666666667,1148.4002777777778) translate(128 17.6)"/></g><defs><path fill="#1a1a1a" d="M755-1056v892h287V0H215v-164h316v-728H225v-164h530zm-302-377c-2-80 64-140 146-140 84 0 148 59 147 140 1 80-63 142-147 142-82 0-148-62-146-142" id="P"/><path fill="#1a1a1a" d="M415-1169c9-225 172-331 405-336 128-1 226 24 315 61l-66 155c-65-27-140-41-227-42-130 1-204 41-204 164v187h353l-24 165H638V0H415v-815H175v-165h240v-189" id="Q"/><g id="a"><use transform="matrix(0.011111111111111112,0,0,0.011111111111111112,0,0)" xlink:href="#P"/><use transform="matrix(0.011111111111111112,0,0,0.011111111111111112,13.333333333333334,0)" xlink:href="#Q"/></g><path fill="#1a1a1a" d="M674-949c54-70 117-135 232-135 163 0 212 119 211 299V0H918v-754c-6-92 8-155-71-155-77 0-113 45-156 104V0H510v-754c-6-92 8-155-71-155-78 0-113 45-156 104V0H83v-1056h169l15 114c55-72 110-142 226-142 97 0 157 48 181 135" id="R"/><path fill="#1a1a1a" d="M123-528c0-328 154-556 478-556 327 0 476 224 476 554 0 329-151 557-477 557-327 0-477-224-477-555zm659-290c-77-117-285-117-363 0-72 108-72 471-1 579 77 118 287 118 364 0 71-108 71-471 0-579" id="S"/><path fill="#1a1a1a" d="M532-1084c122 1 204 47 266 115v-536l224 25V0H825l-16-130C745-41 653 27 512 27c-301 0-392-248-397-555-1-215 71-391 193-484 62-48 137-72 224-72zm266 289c-46-65-107-115-207-117-75 0-130 35-176 94-68 87-79 376-37 510 30 97 82 163 193 163 113 0 179-79 227-150v-500" id="T"/><path fill="#1a1a1a" d="M614-1084c339 7 481 265 450 628H364c11 188 101 309 288 309 121 0 196-41 277-92l97 134C935-31 801 27 641 27c-337-5-509-218-509-554 0-221 87-392 224-483 72-49 158-74 258-74zm238 475c-3-178-70-309-236-309-167 0-243 127-253 309h489" id="U"/><g id="b"><use transform="matrix(0.011111111111111112,0,0,0.011111111111111112,0,0)" xlink:href="#R"/><use transform="matrix(0.011111111111111112,0,0,0.011111111111111112,13.333333333333334,0)" xlink:href="#S"/><use transform="matrix(0.011111111111111112,0,0,0.011111111111111112,26.666666666666668,0)" xlink:href="#T"/><use transform="matrix(0.011111111111111112,0,0,0.011111111111111112,40,0)" xlink:href="#U"/></g><path fill="#1a1a1a" d="M1014-911v183H186v-183h828zm0 395v183H186v-183h828" id="V"/><use transform="matrix(0.011111111111111112,0,0,0.011111111111111112,0,0)" xlink:href="#V" id="c"/><path fill="#1a1a1a" d="M503-176c286-9 375-214 375-521 1-307-86-503-376-505H375v1026h128zm-45-1204c445-1 664 220 664 683C1122-246 918-4 481 0H143v-1380h315" id="W"/><path fill="#1a1a1a" d="M1004 0H724L605-750 477 0H203L24-1056h216l110 917 147-783h224l137 783 110-917h208" id="X"/><path fill="#1a1a1a" d="M649-913c-121 5-192 82-247 155V0H178v-1056h193l17 137c74-93 191-162 341-165 198-2 295 118 295 314V0H800v-659c-2-147-5-257-151-254" id="Y"/><path fill="#1a1a1a" d="M754 27c-209 3-336-128-336-335v-1007H99v-165h543v1192c-12 166 220 149 327 99l57 156C957 1 863 29 754 27" id="Z"/><path fill="#1a1a1a" d="M564-1084c261-3 421 114 421 354v471c0 82 21 112 80 133l-50 152C907 12 832-31 796-120 728-31 607 26 459 27c-204 4-349-130-347-328 0-111 45-194 130-257 110-81 314-97 523-90v-69c10-256-345-202-516-137l-55-158c111-42 235-70 370-72zM347-311c0 114 64 174 180 173 106-2 195-63 238-137v-233H641c-179-1-294 47-294 197" id="aa"/><g id="d"><use transform="matrix(0.011111111111111112,0,0,0.011111111111111112,0,0)" xlink:href="#W"/><use transform="matrix(0.011111111111111112,0,0,0.011111111111111112,13.333333333333334,0)" xlink:href="#S"/><use transform="matrix(0.011111111111111112,0,0,0.011111111111111112,26.666666666666668,0)" xlink:href="#X"/><use transform="matrix(0.011111111111111112,0,0,0.011111111111111112,40,0)" xlink:href="#Y"/><use transform="matrix(0.011111111111111112,0,0,0.011111111111111112,53.333333333333336,0)" xlink:href="#Z"/><use transform="matrix(0.011111111111111112,0,0,0.011111111111111112,66.66666666666667,0)" xlink:href="#S"/><use transform="matrix(0.011111111111111112,0,0,0.011111111111111112,80,0)" xlink:href="#aa"/><use transform="matrix(0.011111111111111112,0,0,0.011111111111111112,93.33333333333334,0)" xlink:href="#T"/></g><path fill="#1a1a1a" d="M734-1168V0H461v-1168H57v-215h1093l-28 215H734" id="ab"/><path fill="#1a1a1a" d="M1024-837c-246-73-386 106-440 300v354h211V0H171v-183h149v-694H171v-182h350l49 243c74-181 206-303 458-264 26 5 51 12 75 21zM880-646v-281l36-132h187l-47 413H880" id="ac"/><path fill="#1a1a1a" d="M465 30C262 33 161-94 161-293v-766h264v734c0 106 37 156 133 156s177-68 217-133v-757h264V0H809l-14-130C731-38 609 28 465 30" id="ad"/><path fill="#1a1a1a" d="M612-1089c350 6 503 264 469 640H386c14 172 99 281 273 281 117 0 197-41 275-91l110 151C950-30 812 31 642 30c-346-4-527-216-527-558 0-222 90-395 229-486 74-50 163-75 268-75zm217 471c-3-162-60-285-216-285-154 0-219 116-230 285h446" id="ae"/><g id="e"><use transform="matrix(0.008888888888888889,0,0,0.008888888888888889,0,0)" xlink:href="#ab"/><use transform="matrix(0.008888888888888889,0,0,0.008888888888888889,10.666666666666666,0)" xlink:href="#ac"/><use transform="matrix(0.008888888888888889,0,0,0.008888888888888889,21.333333333333332,0)" xlink:href="#ad"/><use transform="matrix(0.008888888888888889,0,0,0.008888888888888889,32,0)" xlink:href="#ae"/></g><path fill="#1a1a1a" d="M555-1380c321 0 538 103 538 399 0 221-144 324-314 380L1170 0H900L553-568H402V0H170v-1380h385zm18 642c175-2 278-66 277-243-2-172-103-226-282-227H402v470h171" id="af"/><g id="f"><use transform="matrix(0.011111111111111112,0,0,0.011111111111111112,0,0)" xlink:href="#af"/><use transform="matrix(0.011111111111111112,0,0,0.011111111111111112,13.333333333333334,0)" xlink:href="#U"/><use transform="matrix(0.011111111111111112,0,0,0.011111111111111112,26.666666666666668,0)" xlink:href="#aa"/><use transform="matrix(0.011111111111111112,0,0,0.011111111111111112,40,0)" xlink:href="#T"/></g><path fill="#1a1a1a" d="M511-1181v407h505v202H511V0H237v-1383h876l-29 202H511" id="ag"/><path fill="#1a1a1a" d="M567-1089c274-2 439 110 439 362v448c0 80 20 108 76 130l-57 177C910 15 830-26 789-115 720-26 594 28 446 30 240 35 92-102 94-301c0-113 46-197 132-261 111-82 313-98 524-91 17-171-66-238-225-236-96 2-201 25-285 55l-63-181c112-43 251-72 390-74zM368-316c-4 101 61 156 164 155 94-2 182-60 218-129v-206H646c-166 0-273 40-278 180" id="ah"/><path fill="#1a1a1a" d="M752 30c-228 3-351-143-351-366v-959H84v-187h581v1174c-13 159 208 140 309 94l65 180C965 1 868 32 752 30" id="ai"/><path fill="#1a1a1a" d="M250-278c77 60 182 113 314 113 131 0 253-70 188-190-12-18-37-35-73-51-79-37-260-71-341-116-92-51-161-119-161-254 0-226 198-310 440-313 177-2 312 53 413 124L922-804c-80-50-175-92-299-92-102 0-178 20-178 102 0 65 39 77 99 102 83 34 262 73 342 118 97 50 163 123 160 266-6 249-228 331-481 338-198 2-346-64-452-154" id="aj"/><g id="g"><use transform="matrix(0.008888888888888889,0,0,0.008888888888888889,0,0)" xlink:href="#ag"/><use transform="matrix(0.008888888888888889,0,0,0.008888888888888889,10.666666666666666,0)" xlink:href="#ah"/><use transform="matrix(0.008888888888888889,0,0,0.008888888888888889,21.333333333333332,0)" xlink:href="#ai"/><use transform="matrix(0.008888888888888889,0,0,0.008888888888888889,32,0)" xlink:href="#aj"/><use transform="matrix(0.008888888888888889,0,0,0.008888888888888889,42.666666666666664,0)" xlink:href="#ae"/></g><path fill="#1a1a1a" d="M592-669c187-2 295-82 293-276 1-187-113-259-296-261H423v537h169zm-18-711c323 0 555 121 555 433 0 325-218 450-539 455H423V0H191v-1380h383" id="ak"/><path fill="#1a1a1a" d="M1019-864c-123-36-243-19-321 68-56 57-99 139-131 244v392h213V0H188v-160h155v-737H188v-159h326l41 245c77-178 202-302 457-265 25 5 49 12 74 20zM888-667v-260l28-129h170l-38 389H888" id="al"/><path fill="#1a1a1a" d="M387-920c67-93 165-164 306-164 304 0 379 245 384 554 0 213-63 391-183 485-60 48-135 72-224 72-111 0-200-39-268-117v496l-224 25v-1487h195zm455 391c-5-204-25-382-211-382-111 0-180 81-229 151v494c45 67 107 116 209 118 75 0 133-30 172-91s59-157 59-290" id="am"/><path fill="#1a1a1a" d="M404-523c0 221 78 366 283 366 111 0 189-44 260-92l104 144C968-33 829 27 680 27c-336-6-514-214-514-550 0-334 183-561 518-561 159 0 273 50 366 127L947-816c-72-49-150-88-259-88-195 0-284 153-284 381" id="an"/><path fill="#1a1a1a" d="M247-258c77 61 182 113 315 113 147 0 277-78 211-215-12-20-36-39-72-56-79-39-264-73-347-117-95-50-164-112-164-248 0-218 191-299 422-303 173-2 304 52 401 122l-94 141c-80-51-172-94-301-93-117 0-200 25-200 117 0 71 43 88 105 115 84 35 262 72 343 118 96 50 165 122 162 263-5 244-221 321-466 328-192 3-333-63-434-149" id="ao"/><path fill="#1a1a1a" d="M783-154c79 0 144-22 196-50l81 148C987-9 871 28 752 27c-231 5-375-130-375-347v-573H142v-163h235v-236l224-27v263h356l-25 163H601v571c2 119 57 168 182 168" id="ap"/><path fill="#1a1a1a" d="M599 27c-115 0-193-80-193-194 0-115 79-193 193-193 115 0 194 78 194 193S715 27 599 27" id="aq"/><path fill="#1a1a1a" d="M1071-1380L1149 0H937c-15-387-51-773-34-1176L700-243H498l-218-933c24 392-9 793-21 1176H51l78-1380h278l197 925 188-925h279" id="ar"/><path fill="#1a1a1a" d="M871-1573c-223 219-409 436-409 873 0 438 185 653 409 873L747 293C469 53 233-198 231-700c1-502 238-755 516-993" id="as"/><path fill="#1a1a1a" d="M329 173C553-47 738-262 738-700c0-437-186-654-409-873l124-120c279 239 514 491 516 993-2 502-239 754-516 993" id="at"/><g id="h"><use transform="matrix(0.011111111111111112,0,0,0.011111111111111112,0,0)" xlink:href="#ak"/><use transform="matrix(0.011111111111111112,0,0,0.011111111111111112,13.333333333333334,0)" xlink:href="#al"/><use transform="matrix(0.011111111111111112,0,0,0.011111111111111112,26.666666666666668,0)" xlink:href="#U"/><use transform="matrix(0.011111111111111112,0,0,0.011111111111111112,40,0)" xlink:href="#am"/><use transform="matrix(0.011111111111111112,0,0,0.011111111111111112,53.333333333333336,0)" xlink:href="#al"/><use transform="matrix(0.011111111111111112,0,0,0.011111111111111112,66.66666666666667,0)" xlink:href="#S"/><use transform="matrix(0.011111111111111112,0,0,0.011111111111111112,80,0)" xlink:href="#an"/><use transform="matrix(0.011111111111111112,0,0,0.011111111111111112,93.33333333333334,0)" xlink:href="#U"/><use transform="matrix(0.011111111111111112,0,0,0.011111111111111112,106.66666666666666,0)" xlink:href="#ao"/><use transform="matrix(0.011111111111111112,0,0,0.011111111111111112,119.99999999999999,0)" xlink:href="#ao"/><use transform="matrix(0.011111111111111112,0,0,0.011111111111111112,133.33333333333331,0)" xlink:href="#W"/><use transform="matrix(0.011111111111111112,0,0,0.011111111111111112,146.66666666666666,0)" xlink:href="#aa"/><use transform="matrix(0.011111111111111112,0,0,0.011111111111111112,160,0)" xlink:href="#ap"/><use transform="matrix(0.011111111111111112,0,0,0.011111111111111112,173.33333333333334,0)" xlink:href="#aa"/><use transform="matrix(0.011111111111111112,0,0,0.011111111111111112,186.66666666666669,0)" xlink:href="#aq"/><use transform="matrix(0.011111111111111112,0,0,0.011111111111111112,200.00000000000006,0)" xlink:href="#al"/><use transform="matrix(0.011111111111111112,0,0,0.011111111111111112,213.33333333333337,0)" xlink:href="#U"/><use transform="matrix(0.011111111111111112,0,0,0.011111111111111112,226.6666666666667,0)" xlink:href="#aa"/><use transform="matrix(0.011111111111111112,0,0,0.011111111111111112,240.00000000000006,0)" xlink:href="#T"/><use transform="matrix(0.011111111111111112,0,0,0.011111111111111112,253.33333333333337,0)" xlink:href="#ar"/><use transform="matrix(0.011111111111111112,0,0,0.011111111111111112,266.66666666666674,0)" xlink:href="#S"/><use transform="matrix(0.011111111111111112,0,0,0.011111111111111112,280.00000000000006,0)" xlink:href="#T"/><use transform="matrix(0.011111111111111112,0,0,0.011111111111111112,293.33333333333337,0)" xlink:href="#U"/><use transform="matrix(0.011111111111111112,0,0,0.011111111111111112,306.6666666666667,0)" xlink:href="#as"/><use transform="matrix(0.011111111111111112,0,0,0.011111111111111112,320,0)" xlink:href="#at"/></g><path fill="#1a1a1a" d="M599-158c190 0 246-133 246-337v-885h233v927c-7 299-177 480-479 480-306 0-477-180-477-480v-927h232v885c2 204 54 337 245 337" id="au"/><path fill="#1a1a1a" d="M239 0v-1380h232v1186h618L1064 0H239" id="av"/><g id="i"><use transform="matrix(0.011111111111111112,0,0,0.011111111111111112,0,0)" xlink:href="#au"/><use transform="matrix(0.011111111111111112,0,0,0.011111111111111112,13.333333333333334,0)" xlink:href="#af"/><use transform="matrix(0.011111111111111112,0,0,0.011111111111111112,26.666666666666668,0)" xlink:href="#av"/></g><g id="j"><use transform="matrix(0.011111111111111112,0,0,0.011111111111111112,0,0)" xlink:href="#Q"/><use transform="matrix(0.011111111111111112,0,0,0.011111111111111112,13.333333333333334,0)" xlink:href="#P"/><use transform="matrix(0.011111111111111112,0,0,0.011111111111111112,26.666666666666668,0)" xlink:href="#Z"/><use transform="matrix(0.011111111111111112,0,0,0.011111111111111112,40,0)" xlink:href="#U"/></g><path fill="#1a1a1a" d="M334 0H86l379-557-337-499h258l216 372 216-372h246L734-566 1114 0H851L592-431" id="aw"/><g id="k"><use transform="matrix(0.011111111111111112,0,0,0.011111111111111112,0,0)" xlink:href="#U"/><use transform="matrix(0.011111111111111112,0,0,0.011111111111111112,13.333333333333334,0)" xlink:href="#aw"/><use transform="matrix(0.011111111111111112,0,0,0.011111111111111112,26.666666666666668,0)" xlink:href="#P"/><use transform="matrix(0.011111111111111112,0,0,0.011111111111111112,40,0)" xlink:href="#ao"/><use transform="matrix(0.011111111111111112,0,0,0.011111111111111112,53.333333333333336,0)" xlink:href="#ap"/><use transform="matrix(0.011111111111111112,0,0,0.011111111111111112,66.66666666666667,0)" xlink:href="#ao"/></g><g id="l"><use transform="matrix(0.011111111111111112,0,0,0.011111111111111112,0,0)" xlink:href="#ak"/><use transform="matrix(0.011111111111111112,0,0,0.011111111111111112,13.333333333333334,0)" xlink:href="#al"/><use transform="matrix(0.011111111111111112,0,0,0.011111111111111112,26.666666666666668,0)" xlink:href="#U"/><use transform="matrix(0.011111111111111112,0,0,0.011111111111111112,40,0)" xlink:href="#am"/><use transform="matrix(0.011111111111111112,0,0,0.011111111111111112,53.333333333333336,0)" xlink:href="#al"/><use transform="matrix(0.011111111111111112,0,0,0.011111111111111112,66.66666666666667,0)" xlink:href="#S"/><use transform="matrix(0.011111111111111112,0,0,0.011111111111111112,80,0)" xlink:href="#an"/><use transform="matrix(0.011111111111111112,0,0,0.011111111111111112,93.33333333333334,0)" xlink:href="#U"/><use transform="matrix(0.011111111111111112,0,0,0.011111111111111112,106.66666666666666,0)" xlink:href="#ao"/><use transform="matrix(0.011111111111111112,0,0,0.011111111111111112,119.99999999999999,0)" xlink:href="#ao"/><use transform="matrix(0.011111111111111112,0,0,0.011111111111111112,133.33333333333331,0)" xlink:href="#W"/><use transform="matrix(0.011111111111111112,0,0,0.011111111111111112,146.66666666666666,0)" xlink:href="#aa"/><use transform="matrix(0.011111111111111112,0,0,0.011111111111111112,160,0)" xlink:href="#ap"/><use transform="matrix(0.011111111111111112,0,0,0.011111111111111112,173.33333333333334,0)" xlink:href="#aa"/><use transform="matrix(0.011111111111111112,0,0,0.011111111111111112,186.66666666666669,0)" xlink:href="#aq"/><use transform="matrix(0.011111111111111112,0,0,0.011111111111111112,200.00000000000006,0)" xlink:href="#T"/><use transform="matrix(0.011111111111111112,0,0,0.011111111111111112,213.33333333333337,0)" xlink:href="#S"/><use transform="matrix(0.011111111111111112,0,0,0.011111111111111112,226.6666666666667,0)" xlink:href="#X"/><use transform="matrix(0.011111111111111112,0,0,0.011111111111111112,240.00000000000006,0)" xlink:href="#Y"/><use transform="matrix(0.011111111111111112,0,0,0.011111111111111112,253.33333333333337,0)" xlink:href="#Z"/><use transform="matrix(0.011111111111111112,0,0,0.011111111111111112,266.66666666666674,0)" xlink:href="#S"/><use transform="matrix(0.011111111111111112,0,0,0.011111111111111112,280.00000000000006,0)" xlink:href="#aa"/><use transform="matrix(0.011111111111111112,0,0,0.011111111111111112,293.33333333333337,0)" xlink:href="#T"/><use transform="matrix(0.011111111111111112,0,0,0.011111111111111112,306.6666666666667,0)" xlink:href="#ar"/><use transform="matrix(0.011111111111111112,0,0,0.011111111111111112,320,0)" xlink:href="#S"/><use transform="matrix(0.011111111111111112,0,0,0.011111111111111112,333.3333333333333,0)" xlink:href="#T"/><use transform="matrix(0.011111111111111112,0,0,0.011111111111111112,346.66666666666663,0)" xlink:href="#U"/><use transform="matrix(0.011111111111111112,0,0,0.011111111111111112,359.99999999999994,0)" xlink:href="#as"/><use transform="matrix(0.011111111111111112,0,0,0.011111111111111112,373.33333333333326,0)" xlink:href="#at"/></g><g id="m"><use transform="matrix(0.011111111111111112,0,0,0.011111111111111112,0,0)" xlink:href="#af"/><use transform="matrix(0.011111111111111112,0,0,0.011111111111111112,13.333333333333334,0)" xlink:href="#aa"/><use transform="matrix(0.011111111111111112,0,0,0.011111111111111112,26.666666666666668,0)" xlink:href="#P"/><use transform="matrix(0.011111111111111112,0,0,0.011111111111111112,40,0)" xlink:href="#ao"/><use transform="matrix(0.011111111111111112,0,0,0.011111111111111112,53.333333333333336,0)" xlink:href="#U"/></g><path fill="#1a1a1a" d="M458-1204v415h500v176H458v437h609V0H226v-1380h830l-26 176H458" id="ax"/><g id="n"><use transform="matrix(0.011111111111111112,0,0,0.011111111111111112,0,0)" xlink:href="#ax"/><use transform="matrix(0.011111111111111112,0,0,0.011111111111111112,13.333333333333334,0)" xlink:href="#al"/><use transform="matrix(0.011111111111111112,0,0,0.011111111111111112,26.666666666666668,0)" xlink:href="#al"/><use transform="matrix(0.011111111111111112,0,0,0.011111111111111112,40,0)" xlink:href="#S"/><use transform="matrix(0.011111111111111112,0,0,0.011111111111111112,53.333333333333336,0)" xlink:href="#al"/></g><g id="o"><use transform="matrix(0.011111111111111112,0,0,0.011111111111111112,0,0)" xlink:href="#R"/><use transform="matrix(0.011111111111111112,0,0,0.011111111111111112,13.333333333333334,0)" xlink:href="#S"/><use transform="matrix(0.011111111111111112,0,0,0.011111111111111112,26.666666666666668,0)" xlink:href="#T"/><use transform="matrix(0.011111111111111112,0,0,0.011111111111111112,40,0)" xlink:href="#U"/><use transform="matrix(0.011111111111111112,0,0,0.011111111111111112,53.333333333333336,0)" xlink:href="#Z"/></g><path fill="#1a1a1a" d="M605-220l330-1160h235L733 0H467L30-1380h248" id="ay"/><path fill="#1a1a1a" d="M842-332H349L253 0H17l439-1380h288L1184 0H938zM397-511h396l-197-689" id="az"/><g id="p"><use transform="matrix(0.011111111111111112,0,0,0.011111111111111112,0,0)" xlink:href="#ay"/><use transform="matrix(0.011111111111111112,0,0,0.011111111111111112,13.333333333333334,0)" xlink:href="#az"/><use transform="matrix(0.011111111111111112,0,0,0.011111111111111112,26.666666666666668,0)" xlink:href="#W"/><use transform="matrix(0.011111111111111112,0,0,0.011111111111111112,40,0)" xlink:href="#ax"/><use transform="matrix(0.011111111111111112,0,0,0.011111111111111112,53.333333333333336,0)" xlink:href="#af"/></g><path fill="#1a1a1a" d="M713-1193V0H481v-1193H67v-187h1070l-24 187H713" id="aA"/><path fill="#1a1a1a" d="M394-180c234 5 467 17 467-219 0-173-104-236-270-236H394v455zm180-627c150-1 231-56 234-205 5-207-206-200-414-194v399h180zm214 76c175 32 317 119 315 333C1099-95 866 0 566 0H162v-1380h377c274 5 504 76 504 349 0 177-116 262-255 300" id="aB"/><path fill="#1a1a1a" d="M692-1084c304 0 388 244 393 554 0 215-66 392-189 485-62 48-140 72-231 72-118 0-211-44-278-131L375 0H178v-1480l224-25v575c65-83 155-154 290-154zM402-266c43 66 107 120 207 122 76 0 135-31 177-93s62-159 62-292c-4-205-31-382-217-382-111 0-180 81-229 151v494" id="aC"/><g id="q"><use transform="matrix(0.011111111111111112,0,0,0.011111111111111112,0,0)" xlink:href="#aA"/><use transform="matrix(0.011111111111111112,0,0,0.011111111111111112,13.333333333333334,0)" xlink:href="#U"/><use transform="matrix(0.011111111111111112,0,0,0.011111111111111112,26.666666666666668,0)" xlink:href="#aw"/><use transform="matrix(0.011111111111111112,0,0,0.011111111111111112,40,0)" xlink:href="#ap"/><use transform="matrix(0.011111111111111112,0,0,0.011111111111111112,53.333333333333336,0)" xlink:href="#aB"/><use transform="matrix(0.011111111111111112,0,0,0.011111111111111112,66.66666666666667,0)" xlink:href="#Z"/><use transform="matrix(0.011111111111111112,0,0,0.011111111111111112,80,0)" xlink:href="#S"/><use transform="matrix(0.011111111111111112,0,0,0.011111111111111112,93.33333333333334,0)" xlink:href="#aC"/></g><path fill="#333" d="M511-1181v407h505v202H511V0H237v-1383h876l-29 202H511" id="aD"/><path fill="#333" d="M567-1089c274-2 439 110 439 362v448c0 80 20 108 76 130l-57 177C910 15 830-26 789-115 720-26 594 28 446 30 240 35 92-102 94-301c0-113 46-197 132-261 111-82 313-98 524-91 17-171-66-238-225-236-96 2-201 25-285 55l-63-181c112-43 251-72 390-74zM368-316c-4 101 61 156 164 155 94-2 182-60 218-129v-206H646c-166 0-273 40-278 180" id="aE"/><path fill="#333" d="M752 30c-228 3-351-143-351-366v-959H84v-187h581v1174c-13 159 208 140 309 94l65 180C965 1 868 32 752 30" id="aF"/><path fill="#333" d="M250-278c77 60 182 113 314 113 131 0 253-70 188-190-12-18-37-35-73-51-79-37-260-71-341-116-92-51-161-119-161-254 0-226 198-310 440-313 177-2 312 53 413 124L922-804c-80-50-175-92-299-92-102 0-178 20-178 102 0 65 39 77 99 102 83 34 262 73 342 118 97 50 163 123 160 266-6 249-228 331-481 338-198 2-346-64-452-154" id="aG"/><path fill="#333" d="M612-1089c350 6 503 264 469 640H386c14 172 99 281 273 281 117 0 197-41 275-91l110 151C950-30 812 31 642 30c-346-4-527-216-527-558 0-222 90-395 229-486 74-50 163-75 268-75zm217 471c-3-162-60-285-216-285-154 0-219 116-230 285h446" id="aH"/><g id="r"><use transform="matrix(0.008888888888888889,0,0,0.008888888888888889,0,0)" xlink:href="#aD"/><use transform="matrix(0.008888888888888889,0,0,0.008888888888888889,10.666666666666666,0)" xlink:href="#aE"/><use transform="matrix(0.008888888888888889,0,0,0.008888888888888889,21.333333333333332,0)" xlink:href="#aF"/><use transform="matrix(0.008888888888888889,0,0,0.008888888888888889,32,0)" xlink:href="#aG"/><use transform="matrix(0.008888888888888889,0,0,0.008888888888888889,42.666666666666664,0)" xlink:href="#aH"/></g><path fill="#1a1a1a" d="M1152-137C1055-47 915 31 719 27 312 11 107-263 104-692c-3-304 121-519 305-634 145-91 373-105 543-46 64 24 125 60 180 105l-121 144c-103-100-329-143-474-50-131 84-195 247-192 481 0 310 99 518 382 531 146 3 234-58 313-119" id="aI"/><path fill="#1a1a1a" d="M482 27C280 30 178-92 178-290v-766h224v738c0 118 41 172 151 174 107-1 202-77 245-148v-764h224V0H829l-14-135C749-42 626 24 482 27" id="aJ"/><g id="s"><use transform="matrix(0.011111111111111112,0,0,0.011111111111111112,0,0)" xlink:href="#aI"/><use transform="matrix(0.011111111111111112,0,0,0.011111111111111112,13.333333333333334,0)" xlink:href="#aa"/><use transform="matrix(0.011111111111111112,0,0,0.011111111111111112,26.666666666666668,0)" xlink:href="#Z"/><use transform="matrix(0.011111111111111112,0,0,0.011111111111111112,40,0)" xlink:href="#an"/><use transform="matrix(0.011111111111111112,0,0,0.011111111111111112,53.333333333333336,0)" xlink:href="#aJ"/><use transform="matrix(0.011111111111111112,0,0,0.011111111111111112,66.66666666666667,0)" xlink:href="#Z"/><use transform="matrix(0.011111111111111112,0,0,0.011111111111111112,80,0)" xlink:href="#aa"/><use transform="matrix(0.011111111111111112,0,0,0.011111111111111112,93.33333333333334,0)" xlink:href="#ap"/><use transform="matrix(0.011111111111111112,0,0,0.011111111111111112,106.66666666666666,0)" xlink:href="#U"/></g><g id="t"><use transform="matrix(0.011111111111111112,0,0,0.011111111111111112,0,0)" xlink:href="#ay"/><use transform="matrix(0.011111111111111112,0,0,0.011111111111111112,13.333333333333334,0)" xlink:href="#az"/><use transform="matrix(0.011111111111111112,0,0,0.011111111111111112,26.666666666666668,0)" xlink:href="#W"/><use transform="matrix(0.011111111111111112,0,0,0.011111111111111112,40,0)" xlink:href="#ax"/><use transform="matrix(0.011111111111111112,0,0,0.011111111111111112,53.333333333333336,0)" xlink:href="#af"/></g><path fill="#1a1a1a" d="M1102-1056L738 4c-82 237-222 405-517 428l-29-168C384 239 474 158 530 0h-76L98-1056h238l266 900 270-900h230" id="aK"/><g id="u"><use transform="matrix(0.011111111111111112,0,0,0.011111111111111112,0,0)" xlink:href="#am"/><use transform="matrix(0.011111111111111112,0,0,0.011111111111111112,13.333333333333334,0)" xlink:href="#S"/><use transform="matrix(0.011111111111111112,0,0,0.011111111111111112,26.666666666666668,0)" xlink:href="#Z"/><use transform="matrix(0.011111111111111112,0,0,0.011111111111111112,40,0)" xlink:href="#aa"/><use transform="matrix(0.011111111111111112,0,0,0.011111111111111112,53.333333333333336,0)" xlink:href="#al"/><use transform="matrix(0.011111111111111112,0,0,0.011111111111111112,66.66666666666667,0)" xlink:href="#P"/><use transform="matrix(0.011111111111111112,0,0,0.011111111111111112,80,0)" xlink:href="#ap"/><use transform="matrix(0.011111111111111112,0,0,0.011111111111111112,93.33333333333334,0)" xlink:href="#aK"/></g><g id="v"><use transform="matrix(0.011111111111111112,0,0,0.011111111111111112,0,0)" xlink:href="#ao"/><use transform="matrix(0.011111111111111112,0,0,0.011111111111111112,13.333333333333334,0)" xlink:href="#an"/><use transform="matrix(0.011111111111111112,0,0,0.011111111111111112,26.666666666666668,0)" xlink:href="#S"/><use transform="matrix(0.011111111111111112,0,0,0.011111111111111112,40,0)" xlink:href="#al"/><use transform="matrix(0.011111111111111112,0,0,0.011111111111111112,53.333333333333336,0)" xlink:href="#U"/><use transform="matrix(0.011111111111111112,0,0,0.011111111111111112,66.66666666666667,0)" xlink:href="#ao"/></g><g id="w"><use transform="matrix(0.011111111111111112,0,0,0.011111111111111112,0,0)" xlink:href="#aI"/><use transform="matrix(0.011111111111111112,0,0,0.011111111111111112,13.333333333333334,0)" xlink:href="#aa"/><use transform="matrix(0.011111111111111112,0,0,0.011111111111111112,26.666666666666668,0)" xlink:href="#Z"/><use transform="matrix(0.011111111111111112,0,0,0.011111111111111112,40,0)" xlink:href="#an"/><use transform="matrix(0.011111111111111112,0,0,0.011111111111111112,53.333333333333336,0)" xlink:href="#aJ"/><use transform="matrix(0.011111111111111112,0,0,0.011111111111111112,66.66666666666667,0)" xlink:href="#Z"/><use transform="matrix(0.011111111111111112,0,0,0.011111111111111112,80,0)" xlink:href="#aa"/><use transform="matrix(0.011111111111111112,0,0,0.011111111111111112,93.33333333333334,0)" xlink:href="#ap"/><use transform="matrix(0.011111111111111112,0,0,0.011111111111111112,106.66666666666666,0)" xlink:href="#U"/></g><g id="x"><use transform="matrix(0.011111111111111112,0,0,0.011111111111111112,0,0)" xlink:href="#aA"/><use transform="matrix(0.011111111111111112,0,0,0.011111111111111112,13.333333333333334,0)" xlink:href="#U"/><use transform="matrix(0.011111111111111112,0,0,0.011111111111111112,26.666666666666668,0)" xlink:href="#aw"/><use transform="matrix(0.011111111111111112,0,0,0.011111111111111112,40,0)" xlink:href="#ap"/><use transform="matrix(0.011111111111111112,0,0,0.011111111111111112,53.333333333333336,0)" xlink:href="#aB"/><use transform="matrix(0.011111111111111112,0,0,0.011111111111111112,66.66666666666667,0)" xlink:href="#Z"/><use transform="matrix(0.011111111111111112,0,0,0.011111111111111112,80,0)" xlink:href="#S"/><use transform="matrix(0.011111111111111112,0,0,0.011111111111111112,93.33333333333334,0)" xlink:href="#aC"/></g><g id="y"><use transform="matrix(0.011111111111111112,0,0,0.011111111111111112,0,0)" xlink:href="#am"/><use transform="matrix(0.011111111111111112,0,0,0.011111111111111112,13.333333333333334,0)" xlink:href="#S"/><use transform="matrix(0.011111111111111112,0,0,0.011111111111111112,26.666666666666668,0)" xlink:href="#Z"/><use transform="matrix(0.011111111111111112,0,0,0.011111111111111112,40,0)" xlink:href="#aa"/><use transform="matrix(0.011111111111111112,0,0,0.011111111111111112,53.333333333333336,0)" xlink:href="#al"/><use transform="matrix(0.011111111111111112,0,0,0.011111111111111112,66.66666666666667,0)" xlink:href="#P"/><use transform="matrix(0.011111111111111112,0,0,0.011111111111111112,80,0)" xlink:href="#ap"/><use transform="matrix(0.011111111111111112,0,0,0.011111111111111112,93.33333333333334,0)" xlink:href="#aK"/></g><g id="z"><use transform="matrix(0.011111111111111112,0,0,0.011111111111111112,0,0)" xlink:href="#ak"/><use transform="matrix(0.011111111111111112,0,0,0.011111111111111112,13.333333333333334,0)" xlink:href="#U"/><use transform="matrix(0.011111111111111112,0,0,0.011111111111111112,26.666666666666668,0)" xlink:href="#al"/><use transform="matrix(0.011111111111111112,0,0,0.011111111111111112,40,0)" xlink:href="#Q"/><use transform="matrix(0.011111111111111112,0,0,0.011111111111111112,53.333333333333336,0)" xlink:href="#S"/><use transform="matrix(0.011111111111111112,0,0,0.011111111111111112,66.66666666666667,0)" xlink:href="#al"/><use transform="matrix(0.011111111111111112,0,0,0.011111111111111112,80,0)" xlink:href="#R"/></g><g id="A"><use transform="matrix(0.011111111111111112,0,0,0.011111111111111112,0,0)" xlink:href="#aa"/><use transform="matrix(0.011111111111111112,0,0,0.011111111111111112,13.333333333333334,0)" xlink:href="#Y"/><use transform="matrix(0.011111111111111112,0,0,0.011111111111111112,26.666666666666668,0)" xlink:href="#aa"/><use transform="matrix(0.011111111111111112,0,0,0.011111111111111112,40,0)" xlink:href="#Z"/><use transform="matrix(0.011111111111111112,0,0,0.011111111111111112,53.333333333333336,0)" xlink:href="#aK"/><use transform="matrix(0.011111111111111112,0,0,0.011111111111111112,66.66666666666667,0)" xlink:href="#ao"/><use transform="matrix(0.011111111111111112,0,0,0.011111111111111112,80,0)" xlink:href="#P"/><use transform="matrix(0.011111111111111112,0,0,0.011111111111111112,93.33333333333334,0)" xlink:href="#ao"/></g><g id="B"><use transform="matrix(0.011111111111111112,0,0,0.011111111111111112,0,0)" xlink:href="#Q"/><use transform="matrix(0.011111111111111112,0,0,0.011111111111111112,13.333333333333334,0)" xlink:href="#S"/><use transform="matrix(0.011111111111111112,0,0,0.011111111111111112,26.666666666666668,0)" xlink:href="#al"/></g><use transform="matrix(0.011111111111111112,0,0,0.011111111111111112,0,0)" xlink:href="#P" id="C"/><g id="D"><use transform="matrix(0.011111111111111112,0,0,0.011111111111111112,0,0)" xlink:href="#P"/><use transform="matrix(0.011111111111111112,0,0,0.011111111111111112,13.333333333333334,0)" xlink:href="#Y"/></g><g id="E"><use transform="matrix(0.011111111111111112,0,0,0.011111111111111112,0,0)" xlink:href="#T"/><use transform="matrix(0.011111111111111112,0,0,0.011111111111111112,13.333333333333334,0)" xlink:href="#aa"/><use transform="matrix(0.011111111111111112,0,0,0.011111111111111112,26.666666666666668,0)" xlink:href="#ap"/><use transform="matrix(0.011111111111111112,0,0,0.011111111111111112,40,0)" xlink:href="#aa"/><use transform="matrix(0.011111111111111112,0,0,0.011111111111111112,53.333333333333336,0)" xlink:href="#ao"/><use transform="matrix(0.011111111111111112,0,0,0.011111111111111112,66.66666666666667,0)" xlink:href="#U"/><use transform="matrix(0.011111111111111112,0,0,0.011111111111111112,80,0)" xlink:href="#ap"/><use transform="matrix(0.011111111111111112,0,0,0.011111111111111112,93.33333333333334,0)" xlink:href="#ao"/></g><path fill="#1a1a1a" d="M770-1059v872h279V0H196v-187h310v-685H206v-187h564zm-336-377c-1-90 72-157 165-157s165 67 164 157c1 90-71 158-164 158s-166-68-165-158" id="aL"/><use transform="matrix(0.008888888888888889,0,0,0.008888888888888889,0,0)" xlink:href="#aL" id="F"/><path fill="#1a1a1a" d="M931-1212l118 187-669 398 669 395L924-43 152-524v-206" id="aM"/><path fill="#1a1a1a" d="M1031-931v211H169v-211h862zm0 407v210H169v-210h862" id="aN"/><g id="G"><use transform="matrix(0.008888888888888889,0,0,0.008888888888888889,0,0)" xlink:href="#aM"/><use transform="matrix(0.008888888888888889,0,0,0.008888888888888889,10.666666666666666,0)" xlink:href="#aN"/></g><path fill="#1a1a1a" d="M519-1089c116 1 196 43 256 107v-528l264 28V0H805l-16-125C728-40 634 30 494 30c-300-8-389-252-394-561 0-216 70-393 194-486 63-48 138-72 225-72zm256 301c-44-56-95-102-185-104-67 0-115 32-158 86-62 80-71 365-33 488 27 90 73 150 172 150 101 0 160-72 204-138v-482" id="aO"/><path fill="#1a1a1a" d="M793-181c78 1 140-21 191-48l91 170C997-8 879 31 750 30c-246 5-390-136-390-368v-534H130v-187h230v-233l264-32v265h350l-27 187H624v533c1 113 53 158 169 158" id="aP"/><g id="H"><use transform="matrix(0.008888888888888889,0,0,0.008888888888888889,0,0)" xlink:href="#aO"/><use transform="matrix(0.008888888888888889,0,0,0.008888888888888889,10.666666666666666,0)" xlink:href="#ah"/><use transform="matrix(0.008888888888888889,0,0,0.008888888888888889,21.333333333333332,0)" xlink:href="#aP"/><use transform="matrix(0.008888888888888889,0,0,0.008888888888888889,32,0)" xlink:href="#ah"/><use transform="matrix(0.008888888888888889,0,0,0.008888888888888889,42.666666666666664,0)" xlink:href="#aj"/><use transform="matrix(0.008888888888888889,0,0,0.008888888888888889,53.33333333333333,0)" xlink:href="#ae"/><use transform="matrix(0.008888888888888889,0,0,0.008888888888888889,63.99999999999999,0)" xlink:href="#aP"/></g><path fill="#1a1a1a" d="M646-892c-109 5-167 76-221 141V0H161v-1059h230l19 131c79-93 182-158 336-161 193-1 293 120 293 314V0H775v-672c-2-126-5-222-129-220" id="aQ"/><path fill="#1a1a1a" d="M681-959c55-67 121-129 233-130 170 3 216 122 216 304V0H900v-752c-4-80 4-132-63-132-68 0-97 37-136 89V0H502v-752c-4-80 4-132-63-132-69 0-97 37-136 89V0H70v-1059h197l17 110c57-74 107-140 224-140 94 0 152 46 173 130" id="aR"/><path fill="#1a1a1a" d="M707-1089c305 0 389 245 393 557 0 217-65 396-190 490-63 48-141 72-232 72-115 0-205-44-271-131L395 0H161v-1482l264-28v570c61-81 152-149 282-149zM425-278c40 61 93 109 185 111 67 0 116-32 158-86 62-79 72-366 34-489-27-91-72-149-172-149-102 0-160 73-205 139v474" id="aS"/><g id="I"><use transform="matrix(0.008888888888888889,0,0,0.008888888888888889,0,0)" xlink:href="#aQ"/><use transform="matrix(0.008888888888888889,0,0,0.008888888888888889,10.666666666666666,0)" xlink:href="#ad"/><use transform="matrix(0.008888888888888889,0,0,0.008888888888888889,21.333333333333332,0)" xlink:href="#aR"/><use transform="matrix(0.008888888888888889,0,0,0.008888888888888889,32,0)" xlink:href="#aS"/><use transform="matrix(0.008888888888888889,0,0,0.008888888888888889,42.666666666666664,0)" xlink:href="#ae"/><use transform="matrix(0.008888888888888889,0,0,0.008888888888888889,53.33333333333333,0)" xlink:href="#ac"/></g><g id="J"><use transform="matrix(0.011111111111111112,0,0,0.011111111111111112,0,0)" xlink:href="#U"/><use transform="matrix(0.011111111111111112,0,0,0.011111111111111112,13.333333333333334,0)" xlink:href="#aw"/><use transform="matrix(0.011111111111111112,0,0,0.011111111111111112,26.666666666666668,0)" xlink:href="#U"/><use transform="matrix(0.011111111111111112,0,0,0.011111111111111112,40,0)" xlink:href="#an"/><use transform="matrix(0.011111111111111112,0,0,0.011111111111111112,53.333333333333336,0)" xlink:href="#aJ"/><use transform="matrix(0.011111111111111112,0,0,0.011111111111111112,66.66666666666667,0)" xlink:href="#ap"/><use transform="matrix(0.011111111111111112,0,0,0.011111111111111112,80,0)" xlink:href="#U"/><use transform="matrix(0.011111111111111112,0,0,0.011111111111111112,93.33333333333334,0)" xlink:href="#ar"/><use transform="matrix(0.011111111111111112,0,0,0.011111111111111112,106.66666666666666,0)" xlink:href="#S"/><use transform="matrix(0.011111111111111112,0,0,0.011111111111111112,119.99999999999999,0)" xlink:href="#T"/><use transform="matrix(0.011111111111111112,0,0,0.011111111111111112,133.33333333333331,0)" xlink:href="#U"/><use transform="matrix(0.011111111111111112,0,0,0.011111111111111112,146.66666666666666,0)" xlink:href="#Z"/></g><g id="K"><use transform="matrix(0.011111111111111112,0,0,0.011111111111111112,0,0)" xlink:href="#ax"/><use transform="matrix(0.011111111111111112,0,0,0.011111111111111112,13.333333333333334,0)" xlink:href="#Y"/><use transform="matrix(0.011111111111111112,0,0,0.011111111111111112,26.666666666666668,0)" xlink:href="#T"/></g><path fill="#333" d="M770-1059v872h279V0H196v-187h310v-685H206v-187h564zm-336-377c-1-90 72-157 165-157s165 67 164 157c1 90-71 158-164 158s-166-68-165-158" id="aT"/><use transform="matrix(0.008888888888888889,0,0,0.008888888888888889,0,0)" xlink:href="#aT" id="L"/><path fill="#333" d="M271-1212l778 481v207L277-43 152-226l670-401-670-393" id="aU"/><use transform="matrix(0.008888888888888889,0,0,0.008888888888888889,0,0)" xlink:href="#aU" id="M"/><path fill="#333" d="M519-1089c116 1 196 43 256 107v-528l264 28V0H805l-16-125C728-40 634 30 494 30c-300-8-389-252-394-561 0-216 70-393 194-486 63-48 138-72 225-72zm256 301c-44-56-95-102-185-104-67 0-115 32-158 86-62 80-71 365-33 488 27 90 73 150 172 150 101 0 160-72 204-138v-482" id="aV"/><path fill="#333" d="M793-181c78 1 140-21 191-48l91 170C997-8 879 31 750 30c-246 5-390-136-390-368v-534H130v-187h230v-233l264-32v265h350l-27 187H624v533c1 113 53 158 169 158" id="aW"/><g id="N"><use transform="matrix(0.008888888888888889,0,0,0.008888888888888889,0,0)" xlink:href="#aV"/><use transform="matrix(0.008888888888888889,0,0,0.008888888888888889,10.666666666666666,0)" xlink:href="#aE"/><use transform="matrix(0.008888888888888889,0,0,0.008888888888888889,21.333333333333332,0)" xlink:href="#aW"/><use transform="matrix(0.008888888888888889,0,0,0.008888888888888889,32,0)" xlink:href="#aE"/><use transform="matrix(0.008888888888888889,0,0,0.008888888888888889,42.666666666666664,0)" xlink:href="#aG"/><use transform="matrix(0.008888888888888889,0,0,0.008888888888888889,53.33333333333333,0)" xlink:href="#aH"/><use transform="matrix(0.008888888888888889,0,0,0.008888888888888889,63.99999999999999,0)" xlink:href="#aW"/></g><path fill="#333" d="M646-892c-109 5-167 76-221 141V0H161v-1059h230l19 131c79-93 182-158 336-161 193-1 293 120 293 314V0H775v-672c-2-126-5-222-129-220" id="aX"/><path fill="#333" d="M465 30C262 33 161-94 161-293v-766h264v734c0 106 37 156 133 156s177-68 217-133v-757h264V0H809l-14-130C731-38 609 28 465 30" id="aY"/><path fill="#333" d="M681-959c55-67 121-129 233-130 170 3 216 122 216 304V0H900v-752c-4-80 4-132-63-132-68 0-97 37-136 89V0H502v-752c-4-80 4-132-63-132-69 0-97 37-136 89V0H70v-1059h197l17 110c57-74 107-140 224-140 94 0 152 46 173 130" id="aZ"/><path fill="#333" d="M707-1089c305 0 389 245 393 557 0 217-65 396-190 490-63 48-141 72-232 72-115 0-205-44-271-131L395 0H161v-1482l264-28v570c61-81 152-149 282-149zM425-278c40 61 93 109 185 111 67 0 116-32 158-86 62-79 72-366 34-489-27-91-72-149-172-149-102 0-160 73-205 139v474" id="ba"/><path fill="#333" d="M1024-837c-246-73-386 106-440 300v354h211V0H171v-183h149v-694H171v-182h350l49 243c74-181 206-303 458-264 26 5 51 12 75 21zM880-646v-281l36-132h187l-47 413H880" id="bb"/><g id="O"><use transform="matrix(0.008888888888888889,0,0,0.008888888888888889,0,0)" xlink:href="#aX"/><use transform="matrix(0.008888888888888889,0,0,0.008888888888888889,10.666666666666666,0)" xlink:href="#aY"/><use transform="matrix(0.008888888888888889,0,0,0.008888888888888889,21.333333333333332,0)" xlink:href="#aZ"/><use transform="matrix(0.008888888888888889,0,0,0.008888888888888889,32,0)" xlink:href="#ba"/><use transform="matrix(0.008888888888888889,0,0,0.008888888888888889,42.666666666666664,0)" xlink:href="#aH"/><use transform="matrix(0.008888888888888889,0,0,0.008888888888888889,53.33333333333333,0)" xlink:href="#bb"/></g></defs></g></svg>