<svg xmlns="http://www.w3.org/2000/svg" xmlns:xlink="http://www.w3.org/1999/xlink" xmlns:lucid="lucid" width="863.5" height="700"><g transform="translate(-700 -200)" lucid:page-tab-id="0_0"><path d="M720 220h260v120H720z" stroke="#1a1a1a" fill-opacity="0"/><use xlink:href="#a" transform="matrix(1,0,0,1,732,232) translate(17.999999999999986 55)"/><path d="M720 540h260v120H720z" stroke="#1a1a1a" fill-opacity="0"/><use xlink:href="#b" transform="matrix(1,0,0,1,732,552) translate(4.666666666666643 55)"/><path d="M725.12 760h260v120h-260z" stroke="#1a1a1a" fill-opacity="0"/><use xlink:href="#c" transform="matrix(1,0,0,1,737.1232834056611,772) translate(24.666666666666657 55)"/><path d="M817.35 743.12V661" stroke="#1a1a1a" fill="none"/><path d="M817.35 757.88l-4.63-14.26H822z" stroke="#1a1a1a" fill="#1a1a1a"/><path d="M817.85 661h-1v-.5h1z" stroke="#1a1a1a" stroke-width=".05" fill="#1a1a1a"/><path d="M828.18 356.88V539" stroke="#1a1a1a" fill="none"/><path d="M828.18 342.12l4.64 14.26h-9.28z" stroke="#1a1a1a" fill="#1a1a1a"/><path d="M828.68 539.5h-1v-.5h1z" stroke="#1a1a1a" stroke-width=".05" fill="#1a1a1a"/><path d="M784.7 523.12V341" stroke="#1a1a1a" fill="none"/><path d="M784.7 537.88l-4.62-14.26h9.27z" stroke="#1a1a1a" fill="#1a1a1a"/><path d="M785.2 341h-1v-.5h1z" stroke="#1a1a1a" stroke-width=".05" fill="#1a1a1a"/><path d="M981 584.45h39.5v36.9h-23.62" stroke="#1a1a1a" fill="none"/><path d="M981 584.95h-.5v-1h.5z" stroke="#1a1a1a" stroke-width=".05" fill="#1a1a1a"/><path d="M982.12 621.35l14.26-4.63V626z" stroke="#1a1a1a" fill="#1a1a1a"/><use xlink:href="#d" transform="matrix(1,0,0,1,1028.5,594.1534768504962) translate(0 13.200000000000001)"/><use xlink:href="#e" transform="matrix(1,0,0,1,1028.5,594.1534768504962) translate(32 13.200000000000001)"/><use xlink:href="#f" transform="matrix(1,0,0,1,1028.5,594.1534768504962) translate(48 13.200000000000001)"/><use xlink:href="#g" transform="matrix(1,0,0,1,1028.5,594.1534768504962) translate(72 13.200000000000001)"/><path d="M1010 360h280v120h-280z" stroke="#1a1a1a" fill-opacity="0"/><use xlink:href="#h" transform="matrix(1,0,0,1,1022,372) translate(88 55)"/><path d="M917.32 539v-13h256.27v-29.12" stroke="#1a1a1a" fill="none"/><path d="M917.82 539.5h-1v-.5h1z" stroke="#1a1a1a" stroke-width=".05" fill="#1a1a1a"/><path d="M1173.6 482.12l4.63 14.26h-9.27z" stroke="#1a1a1a" fill="#1a1a1a"/><path d="M881.96 523.12V500h245.62v-19" stroke="#1a1a1a" fill="none"/><path d="M881.96 537.88l-4.63-14.26h9.27z" stroke="#1a1a1a" fill="#1a1a1a"/><path d="M1128.08 481h-1v-.5h1z" stroke="#1a1a1a" stroke-width=".05" fill="#1a1a1a"/><path d="M1323.5 360h220v120h-220z" stroke="#1a1a1a" fill-opacity="0"/><use xlink:href="#i" transform="matrix(1,0,0,1,1335.5,372) translate(64.66666666666666 55)"/><path d="M1291 441.75h15.64" stroke="#1a1a1a" fill="none"/><path d="M1291 442.25h-.5v-1h.5z" stroke="#1a1a1a" stroke-width=".05" fill="#1a1a1a"/><path d="M1321.38 441.77l-14.27 4.62.02-9.28z" stroke="#1a1a1a" fill="#1a1a1a"/><path d="M1322.5 407h-15.63" stroke="#1a1a1a" fill="none"/><path d="M1323 407.5h-.5v-1h.5z" stroke="#1a1a1a" stroke-width=".05" fill="#1a1a1a"/><path d="M1292.12 407.03l14.26-4.65v9.27z" stroke="#1a1a1a" fill="#1a1a1a"/><path d="M877.47 759v-82.12" stroke="#1a1a1a" fill="none"/><path d="M877.97 759.5h-1v-.5h1z" stroke="#1a1a1a" stroke-width=".05" fill="#1a1a1a"/><path d="M877.47 662.12l4.63 14.26h-9.27z" stroke="#1a1a1a" fill="#1a1a1a"/><defs><path fill="#1a1a1a" d="M1071-1380L1149 0H937c-15-387-51-773-34-1176L700-243H498l-218-933c24 392-9 793-21 1176H51l78-1380h278l197 925 188-925h279" id="j"/><path fill="#1a1a1a" d="M564-1084c261-3 421 114 421 354v471c0 82 21 112 80 133l-50 152C907 12 832-31 796-120 728-31 607 26 459 27c-204 4-349-130-347-328 0-111 45-194 130-257 110-81 314-97 523-90v-69c10-256-345-202-516-137l-55-158c111-42 235-70 370-72zM347-311c0 114 64 174 180 173 106-2 195-63 238-137v-233H641c-179-1-294 47-294 197" id="k"/><path fill="#1a1a1a" d="M755-1056v892h287V0H215v-164h316v-728H225v-164h530zm-302-377c-2-80 64-140 146-140 84 0 148 59 147 140 1 80-63 142-147 142-82 0-148-62-146-142" id="l"/><path fill="#1a1a1a" d="M649-913c-121 5-192 82-247 155V0H178v-1056h193l17 137c74-93 191-162 341-165 198-2 295 118 295 314V0H800v-659c-2-147-5-257-151-254" id="m"/><path fill="#1a1a1a" d="M842-332H349L253 0H17l439-1380h288L1184 0H938zM397-511h396l-197-689" id="n"/><path fill="#1a1a1a" d="M387-920c67-93 165-164 306-164 304 0 379 245 384 554 0 213-63 391-183 485-60 48-135 72-224 72-111 0-200-39-268-117v496l-224 25v-1487h195zm455 391c-5-204-25-382-211-382-111 0-180 81-229 151v494c45 67 107 116 209 118 75 0 133-30 172-91s59-157 59-290" id="o"/><path fill="#1a1a1a" d="M754 27c-209 3-336-128-336-335v-1007H99v-165h543v1192c-12 166 220 149 327 99l57 156C957 1 863 29 754 27" id="p"/><path fill="#1a1a1a" d="M404-523c0 221 78 366 283 366 111 0 189-44 260-92l104 144C968-33 829 27 680 27c-336-6-514-214-514-550 0-334 183-561 518-561 159 0 273 50 366 127L947-816c-72-49-150-88-259-88-195 0-284 153-284 381" id="q"/><path fill="#1a1a1a" d="M783-154c79 0 144-22 196-50l81 148C987-9 871 28 752 27c-231 5-375-130-375-347v-573H142v-163h235v-236l224-27v263h356l-25 163H601v571c2 119 57 168 182 168" id="r"/><path fill="#1a1a1a" d="M123-528c0-328 154-556 478-556 327 0 476 224 476 554 0 329-151 557-477 557-327 0-477-224-477-555zm659-290c-77-117-285-117-363 0-72 108-72 471-1 579 77 118 287 118 364 0 71-108 71-471 0-579" id="s"/><g id="a"><use transform="matrix(0.011111111111111112,0,0,0.011111111111111112,0,0)" xlink:href="#j"/><use transform="matrix(0.011111111111111112,0,0,0.011111111111111112,13.333333333333334,0)" xlink:href="#k"/><use transform="matrix(0.011111111111111112,0,0,0.011111111111111112,26.666666666666668,0)" xlink:href="#l"/><use transform="matrix(0.011111111111111112,0,0,0.011111111111111112,40,0)" xlink:href="#m"/><use transform="matrix(0.011111111111111112,0,0,0.011111111111111112,53.333333333333336,0)" xlink:href="#n"/><use transform="matrix(0.011111111111111112,0,0,0.011111111111111112,66.66666666666667,0)" xlink:href="#o"/><use transform="matrix(0.011111111111111112,0,0,0.011111111111111112,80,0)" xlink:href="#o"/><use transform="matrix(0.011111111111111112,0,0,0.011111111111111112,93.33333333333334,0)" xlink:href="#p"/><use transform="matrix(0.011111111111111112,0,0,0.011111111111111112,106.66666666666666,0)" xlink:href="#l"/><use transform="matrix(0.011111111111111112,0,0,0.011111111111111112,119.99999999999999,0)" xlink:href="#q"/><use transform="matrix(0.011111111111111112,0,0,0.011111111111111112,133.33333333333331,0)" xlink:href="#k"/><use transform="matrix(0.011111111111111112,0,0,0.011111111111111112,146.66666666666666,0)" xlink:href="#r"/><use transform="matrix(0.011111111111111112,0,0,0.011111111111111112,160,0)" xlink:href="#l"/><use transform="matrix(0.011111111111111112,0,0,0.011111111111111112,173.33333333333334,0)" xlink:href="#s"/><use transform="matrix(0.011111111111111112,0,0,0.011111111111111112,186.66666666666669,0)" xlink:href="#m"/></g><path fill="#1a1a1a" d="M616-1226c-134 0-250 46-250 178 0 94 53 124 130 162 102 50 299 93 402 153 117 69 204 161 199 343-8 286-224 414-526 417-226 2-393-76-508-185l127-142c94 83 209 146 380 144 158-2 286-65 286-223 0-172-136-196-283-245-168-56-311-109-395-228-71-103-63-280 12-379 81-106 228-178 412-177 210 0 348 64 462 166l-122 138c-83-74-187-122-326-122" id="t"/><path fill="#1a1a1a" d="M614-1084c339 7 481 265 450 628H364c11 188 101 309 288 309 121 0 196-41 277-92l97 134C935-31 801 27 641 27c-337-5-509-218-509-554 0-221 87-392 224-483 72-49 158-74 258-74zm238 475c-3-178-70-309-236-309-167 0-243 127-253 309h489" id="u"/><path fill="#1a1a1a" d="M674-949c54-70 117-135 232-135 163 0 212 119 211 299V0H918v-754c-6-92 8-155-71-155-77 0-113 45-156 104V0H510v-754c-6-92 8-155-71-155-78 0-113 45-156 104V0H83v-1056h169l15 114c55-72 110-142 226-142 97 0 157 48 181 135" id="v"/><path fill="#1a1a1a" d="M1102-1056L738 4c-82 237-222 405-517 428l-29-168C384 239 474 158 530 0h-76L98-1056h238l266 900 270-900h230" id="w"/><path fill="#1a1a1a" d="M247-258c77 61 182 113 315 113 147 0 277-78 211-215-12-20-36-39-72-56-79-39-264-73-347-117-95-50-164-112-164-248 0-218 191-299 422-303 173-2 304 52 401 122l-94 141c-80-51-172-94-301-93-117 0-200 25-200 117 0 71 43 88 105 115 84 35 262 72 343 118 96 50 165 122 162 263-5 244-221 321-466 328-192 3-333-63-434-149" id="x"/><g id="b"><use transform="matrix(0.011111111111111112,0,0,0.011111111111111112,0,0)" xlink:href="#t"/><use transform="matrix(0.011111111111111112,0,0,0.011111111111111112,13.333333333333334,0)" xlink:href="#u"/><use transform="matrix(0.011111111111111112,0,0,0.011111111111111112,26.666666666666668,0)" xlink:href="#m"/><use transform="matrix(0.011111111111111112,0,0,0.011111111111111112,40,0)" xlink:href="#r"/><use transform="matrix(0.011111111111111112,0,0,0.011111111111111112,53.333333333333336,0)" xlink:href="#l"/><use transform="matrix(0.011111111111111112,0,0,0.011111111111111112,66.66666666666667,0)" xlink:href="#v"/><use transform="matrix(0.011111111111111112,0,0,0.011111111111111112,80,0)" xlink:href="#u"/><use transform="matrix(0.011111111111111112,0,0,0.011111111111111112,93.33333333333334,0)" xlink:href="#m"/><use transform="matrix(0.011111111111111112,0,0,0.011111111111111112,106.66666666666666,0)" xlink:href="#r"/><use transform="matrix(0.011111111111111112,0,0,0.011111111111111112,119.99999999999999,0)" xlink:href="#n"/><use transform="matrix(0.011111111111111112,0,0,0.011111111111111112,133.33333333333331,0)" xlink:href="#m"/><use transform="matrix(0.011111111111111112,0,0,0.011111111111111112,146.66666666666666,0)" xlink:href="#k"/><use transform="matrix(0.011111111111111112,0,0,0.011111111111111112,160,0)" xlink:href="#p"/><use transform="matrix(0.011111111111111112,0,0,0.011111111111111112,173.33333333333334,0)" xlink:href="#w"/><use transform="matrix(0.011111111111111112,0,0,0.011111111111111112,186.66666666666669,0)" xlink:href="#x"/><use transform="matrix(0.011111111111111112,0,0,0.011111111111111112,200.00000000000006,0)" xlink:href="#l"/><use transform="matrix(0.011111111111111112,0,0,0.011111111111111112,213.33333333333337,0)" xlink:href="#x"/></g><path fill="#1a1a1a" d="M592-669c187-2 295-82 293-276 1-187-113-259-296-261H423v537h169zm-18-711c323 0 555 121 555 433 0 325-218 450-539 455H423V0H191v-1380h383" id="y"/><path fill="#1a1a1a" d="M1019-864c-123-36-243-19-321 68-56 57-99 139-131 244v392h213V0H188v-160h155v-737H188v-159h326l41 245c77-178 202-302 457-265 25 5 49 12 74 20zM888-667v-260l28-129h170l-38 389H888" id="z"/><path fill="#1a1a1a" d="M503-176c286-9 375-214 375-521 1-307-86-503-376-505H375v1026h128zm-45-1204c445-1 664 220 664 683C1122-246 918-4 481 0H143v-1380h315" id="A"/><g id="c"><use transform="matrix(0.011111111111111112,0,0,0.011111111111111112,0,0)" xlink:href="#y"/><use transform="matrix(0.011111111111111112,0,0,0.011111111111111112,13.333333333333334,0)" xlink:href="#z"/><use transform="matrix(0.011111111111111112,0,0,0.011111111111111112,26.666666666666668,0)" xlink:href="#u"/><use transform="matrix(0.011111111111111112,0,0,0.011111111111111112,40,0)" xlink:href="#o"/><use transform="matrix(0.011111111111111112,0,0,0.011111111111111112,53.333333333333336,0)" xlink:href="#z"/><use transform="matrix(0.011111111111111112,0,0,0.011111111111111112,66.66666666666667,0)" xlink:href="#s"/><use transform="matrix(0.011111111111111112,0,0,0.011111111111111112,80,0)" xlink:href="#q"/><use transform="matrix(0.011111111111111112,0,0,0.011111111111111112,93.33333333333334,0)" xlink:href="#u"/><use transform="matrix(0.011111111111111112,0,0,0.011111111111111112,106.66666666666666,0)" xlink:href="#x"/><use transform="matrix(0.011111111111111112,0,0,0.011111111111111112,119.99999999999999,0)" xlink:href="#x"/><use transform="matrix(0.011111111111111112,0,0,0.011111111111111112,133.33333333333331,0)" xlink:href="#A"/><use transform="matrix(0.011111111111111112,0,0,0.011111111111111112,146.66666666666666,0)" xlink:href="#k"/><use transform="matrix(0.011111111111111112,0,0,0.011111111111111112,160,0)" xlink:href="#r"/><use transform="matrix(0.011111111111111112,0,0,0.011111111111111112,173.33333333333334,0)" xlink:href="#k"/></g><path fill="#1a1a1a" d="M415-1169c9-225 172-331 405-336 128-1 226 24 315 61l-66 155c-65-27-140-41-227-42-130 1-204 41-204 164v187h353l-24 165H638V0H415v-815H175v-165h240v-189" id="B"/><g id="d"><use transform="matrix(0.006666666666666667,0,0,0.006666666666666667,0,0)" xlink:href="#B"/><use transform="matrix(0.006666666666666667,0,0,0.006666666666666667,8,0)" xlink:href="#s"/><use transform="matrix(0.006666666666666667,0,0,0.006666666666666667,16,0)" xlink:href="#z"/></g><use transform="matrix(0.006666666666666667,0,0,0.006666666666666667,0,0)" xlink:href="#l" id="e"/><g id="f"><use transform="matrix(0.006666666666666667,0,0,0.006666666666666667,0,0)" xlink:href="#l"/><use transform="matrix(0.006666666666666667,0,0,0.006666666666666667,8,0)" xlink:href="#m"/></g><path fill="#1a1a1a" d="M532-1084c122 1 204 47 266 115v-536l224 25V0H825l-16-130C745-41 653 27 512 27c-301 0-392-248-397-555-1-215 71-391 193-484 62-48 137-72 224-72zm266 289c-46-65-107-115-207-117-75 0-130 35-176 94-68 87-79 376-37 510 30 97 82 163 193 163 113 0 179-79 227-150v-500" id="C"/><g id="g"><use transform="matrix(0.006666666666666667,0,0,0.006666666666666667,0,0)" xlink:href="#C"/><use transform="matrix(0.006666666666666667,0,0,0.006666666666666667,8,0)" xlink:href="#k"/><use transform="matrix(0.006666666666666667,0,0,0.006666666666666667,16,0)" xlink:href="#r"/><use transform="matrix(0.006666666666666667,0,0,0.006666666666666667,24,0)" xlink:href="#k"/><use transform="matrix(0.006666666666666667,0,0,0.006666666666666667,32,0)" xlink:href="#x"/><use transform="matrix(0.006666666666666667,0,0,0.006666666666666667,40,0)" xlink:href="#u"/><use transform="matrix(0.006666666666666667,0,0,0.006666666666666667,48,0)" xlink:href="#r"/><use transform="matrix(0.006666666666666667,0,0,0.006666666666666667,56.00000000000001,0)" xlink:href="#x"/></g><g id="h"><use transform="matrix(0.011111111111111112,0,0,0.011111111111111112,0,0)" xlink:href="#j"/><use transform="matrix(0.011111111111111112,0,0,0.011111111111111112,13.333333333333334,0)" xlink:href="#s"/><use transform="matrix(0.011111111111111112,0,0,0.011111111111111112,26.666666666666668,0)" xlink:href="#C"/><use transform="matrix(0.011111111111111112,0,0,0.011111111111111112,40,0)" xlink:href="#u"/><use transform="matrix(0.011111111111111112,0,0,0.011111111111111112,53.333333333333336,0)" xlink:href="#p"/><use transform="matrix(0.011111111111111112,0,0,0.011111111111111112,66.66666666666667,0)" xlink:href="#x"/></g><path fill="#1a1a1a" d="M605-220l330-1160h235L733 0H467L30-1380h248" id="D"/><path fill="#1a1a1a" d="M458-1204v415h500v176H458v437h609V0H226v-1380h830l-26 176H458" id="E"/><path fill="#1a1a1a" d="M555-1380c321 0 538 103 538 399 0 221-144 324-314 380L1170 0H900L553-568H402V0H170v-1380h385zm18 642c175-2 278-66 277-243-2-172-103-226-282-227H402v470h171" id="F"/><g id="i"><use transform="matrix(0.011111111111111112,0,0,0.011111111111111112,0,0)" xlink:href="#D"/><use transform="matrix(0.011111111111111112,0,0,0.011111111111111112,13.333333333333334,0)" xlink:href="#n"/><use transform="matrix(0.011111111111111112,0,0,0.011111111111111112,26.666666666666668,0)" xlink:href="#A"/><use transform="matrix(0.011111111111111112,0,0,0.011111111111111112,40,0)" xlink:href="#E"/><use transform="matrix(0.011111111111111112,0,0,0.011111111111111112,53.333333333333336,0)" xlink:href="#F"/></g></defs></g></svg>