<svg xmlns="http://www.w3.org/2000/svg" xmlns:xlink="http://www.w3.org/1999/xlink" xmlns:lucid="lucid" width="1683.5" height="1140"><g transform="translate(-60 -40)" lucid:page-tab-id="0_0"><path d="M680 260h160v120H680z" stroke="#1a1a1a" fill-opacity="0"/><use xlink:href="#a" transform="matrix(1,0,0,1,692,272) translate(41.33333333333333 55)"/><path d="M630 500h260v120H630z" stroke="#1a1a1a" fill-opacity="0"/><use xlink:href="#b" transform="matrix(1,0,0,1,642,512) translate(17.999999999999986 55)"/><path d="M630 820h260v120H630z" stroke="#1a1a1a" fill-opacity="0"/><use xlink:href="#c" transform="matrix(1,0,0,1,642,832) translate(4.666666666666643 55)"/><path d="M220 260h380v120H220z" stroke="#1a1a1a" fill-opacity="0"/><use xlink:href="#d" transform="matrix(1,0,0,1,232,272) translate(11.333333333333343 55)"/><path d="M920 260h280v120H920z" stroke="#1a1a1a" fill-opacity="0"/><use xlink:href="#e" transform="matrix(1,0,0,1,932,272) translate(14.666666666666643 55)"/><path d="M1042.74 381v49H858.07v53.12" stroke="#1a1a1a" fill="none"/><path d="M1043.24 381h-1v-.5h1z" stroke="#1a1a1a" stroke-width=".05" fill="#1a1a1a"/><path d="M858.07 497.88l-4.64-14.26h9.27z" stroke="#1a1a1a" fill="#1a1a1a"/><path d="M80 500h240v120H80z" stroke="#1a1a1a" fill-opacity="0"/><use xlink:href="#f" transform="matrix(1,0,0,1,92,512) translate(34.66666666666667 55)"/><path d="M360 500h240v120H360z" stroke="#1a1a1a" fill-opacity="0"/><use xlink:href="#g" transform="matrix(1,0,0,1,372.00000000000006,512) translate(41.33333333333334 55)"/><path d="M340 1040h260v120H340z" stroke="#1a1a1a" fill-opacity="0"/><use xlink:href="#h" transform="matrix(1,0,0,1,352,1052) translate(24.666666666666657 55)"/><path d="M445.33 1023.12V880H629" stroke="#1a1a1a" fill="none"/><path d="M445.33 1037.88l-4.63-14.26h9.27z" stroke="#1a1a1a" fill="#1a1a1a"/><path d="M629.5 880.5h-.5v-1h.5z" stroke="#1a1a1a" stroke-width=".05" fill="#1a1a1a"/><path d="M613.12 908H491.75v131" stroke="#1a1a1a" fill="none"/><path d="M627.88 908l-14.26 4.63v-9.26z" stroke="#1a1a1a" fill="#1a1a1a"/><path d="M492.25 1039.5h-1v-.5h1z" stroke="#1a1a1a" stroke-width=".05" fill="#1a1a1a"/><path d="M738.18 636.88V819" stroke="#1a1a1a" fill="none"/><path d="M738.18 622.12l4.64 14.26h-9.28z" stroke="#1a1a1a" fill="#1a1a1a"/><path d="M738.68 819.5h-1v-.5h1z" stroke="#1a1a1a" stroke-width=".05" fill="#1a1a1a"/><path d="M694.7 803.12V621" stroke="#1a1a1a" fill="none"/><path d="M694.7 817.88l-4.62-14.26h9.27z" stroke="#1a1a1a" fill="#1a1a1a"/><path d="M695.2 621h-1v-.5h1z" stroke="#1a1a1a" stroke-width=".05" fill="#1a1a1a"/><path d="M781 216.88V259" stroke="#1a1a1a" fill="none"/><path d="M781 202.12l4.63 14.26h-9.26z" stroke="#1a1a1a" fill="#1a1a1a"/><path d="M781.5 259.5h-1v-.5h1z" stroke="#1a1a1a" stroke-width=".05" fill="#1a1a1a"/><path d="M733.07 243.12V201" stroke="#1a1a1a" fill="none"/><path d="M733.07 257.88l-4.64-14.26h9.27z" stroke="#1a1a1a" fill="#1a1a1a"/><path d="M733.07 201v-.5M831.85 381v102.12" stroke="#1a1a1a" fill="none"/><path d="M832.35 381h-1v-.5h1z" stroke="#1a1a1a" stroke-width=".05" fill="#1a1a1a"/><path d="M831.85 497.88l-4.64-14.26h9.28z" stroke="#1a1a1a" fill="#1a1a1a"/><path d="M806.52 499V396.88" stroke="#1a1a1a" fill="none"/><path d="M807.02 499.5h-1v-.5h1z" stroke="#1a1a1a" stroke-width=".05" fill="#1a1a1a"/><path d="M806.52 382.12l4.63 14.26h-9.27z" stroke="#1a1a1a" fill="#1a1a1a"/><path d="M630 1040h260v120H630z" stroke="#1a1a1a" fill-opacity="0"/><use xlink:href="#i" transform="matrix(1,0,0,1,642,1052) translate(17.999999999999986 55)"/><path d="M701.26 956.88V1039" stroke="#1a1a1a" fill="none"/><path d="M701.26 942.12l4.64 14.26h-9.27z" stroke="#1a1a1a" fill="#1a1a1a"/><path d="M701.76 1039.5h-1v-.5h1z" stroke="#1a1a1a" stroke-width=".05" fill="#1a1a1a"/><path d="M661 1023.12V941" stroke="#1a1a1a" fill="none"/><path d="M661 1037.88l-4.63-14.26h9.26z" stroke="#1a1a1a" fill="#1a1a1a"/><path d="M661.5 941h-1v-.5h1z" stroke="#1a1a1a" stroke-width=".05" fill="#1a1a1a"/><path d="M923.5 1040H1200v120H923.5z" stroke="#1a1a1a" fill-opacity="0"/><use xlink:href="#j" transform="matrix(1,0,0,1,935.5,1052) translate(39.83333333333333 55)"/><path d="M891 906h151.32v117.12" stroke="#1a1a1a" fill="none"/><path d="M891 906.5h-.5v-1h.5z" stroke="#1a1a1a" stroke-width=".05" fill="#1a1a1a"/><path d="M1042.32 1037.88l-4.63-14.26h9.26z" stroke="#1a1a1a" fill="#1a1a1a"/><path d="M906.88 880h189.5v159" stroke="#1a1a1a" fill="none"/><path d="M892.12 880l14.26-4.63v9.26z" stroke="#1a1a1a" fill="#1a1a1a"/><path d="M1096.88 1039.5h-1v-.5h1z" stroke="#1a1a1a" stroke-width=".05" fill="#1a1a1a"/><path d="M238.5 381v102.12" stroke="#1a1a1a" fill="none"/><path d="M239 381h-1v-.5h1z" stroke="#1a1a1a" stroke-width=".05" fill="#1a1a1a"/><path d="M238.5 497.88l-4.63-14.26h9.26z" stroke="#1a1a1a" fill="#1a1a1a"/><path d="M414.33 381v102.12" stroke="#1a1a1a" fill="none"/><path d="M414.83 381h-1v-.5h1z" stroke="#1a1a1a" stroke-width=".05" fill="#1a1a1a"/><path d="M414.33 497.88l-4.63-14.26h9.27z" stroke="#1a1a1a" fill="#1a1a1a"/><path d="M1077.67 396.88V460H878.1v39" stroke="#1a1a1a" fill="none"/><path d="M1077.67 382.12l4.63 14.26h-9.27z" stroke="#1a1a1a" fill="#1a1a1a"/><path d="M878.6 499.5h-1v-.5h1z" stroke="#1a1a1a" stroke-width=".05" fill="#1a1a1a"/><path d="M826.84 941v39.5h-39.2v-23.62" stroke="#1a1a1a" fill="none"/><path d="M827.34 941h-1v-.5h1z" stroke="#1a1a1a" stroke-width=".05" fill="#1a1a1a"/><path d="M787.63 942.12l4.63 14.26H783z" stroke="#1a1a1a" fill="#1a1a1a"/><use xlink:href="#k" transform="matrix(1,0,0,1,739.2335488381682,989.1352549156243) translate(0 13.200000000000001)"/><use xlink:href="#l" transform="matrix(1,0,0,1,739.2335488381682,989.1352549156243) translate(32 13.200000000000001)"/><use xlink:href="#m" transform="matrix(1,0,0,1,739.2335488381682,989.1352549156243) translate(48 13.200000000000001)"/><use xlink:href="#n" transform="matrix(1,0,0,1,739.2335488381682,989.1352549156243) translate(72 13.200000000000001)"/><path d="M584.15 480.5H540.5V499h-1v-19.5h44.65zm194.35 0H632.15v-1H777.5v-82.62h1z" stroke="#1a1a1a" stroke-width=".05" fill="#1a1a1a"/><path d="M540.5 499.5h-1v-.5h1z" fill="#1a1a1a"/><path d="M540.52 499.52h-1.04v-.56h1.04zm-1-.5v.46h.96V499z" stroke="#1a1a1a" stroke-width=".05" fill="#1a1a1a"/><path d="M782.63 396.38h-9.26l4.63-14.26z" fill="#1a1a1a"/><path d="M783.32 396.88h-10.64L778 380.5zm-9.27-1h7.9L778 383.74z" stroke="#1a1a1a" stroke-width=".05" fill="#1a1a1a"/><use xlink:href="#o" transform="matrix(1,0,0,1,584.154655094284,471.25333333333333) translate(0 13.200000000000001)"/><path d="M585.6 440.5H297.5V499h-1v-59.5h289.1zm127.9 0h-79.9v-1h78.9v-42.62h1z" stroke="#1a1a1a" stroke-width=".05" fill="#1a1a1a"/><path d="M297.5 499.5h-1v-.5h1z" fill="#1a1a1a"/><path d="M297.52 499.52h-1.04v-.56h1.04zm-1-.5v.46h.96V499z" stroke="#1a1a1a" stroke-width=".05" fill="#1a1a1a"/><path d="M717.63 396.38h-9.26l4.63-14.26z" fill="#1a1a1a"/><path d="M718.32 396.88h-10.64L713 380.5zm-9.27-1h7.9L713 383.74z" stroke="#1a1a1a" stroke-width=".05" fill="#1a1a1a"/><use xlink:href="#o" transform="matrix(1,0,0,1,585.6103008204193,431.25333333333333) translate(0 13.200000000000001)"/><path d="M1233.5 260h220v120h-220z" stroke="#1a1a1a" fill-opacity="0"/><use xlink:href="#p" transform="matrix(1,0,0,1,1245.5,272.0000000000001) translate(11.333333333333329 55)"/><path d="M1320.5 381v138H906.88" stroke="#1a1a1a" fill="none"/><path d="M1321 381h-1v-.5h1z" stroke="#1a1a1a" stroke-width=".05" fill="#1a1a1a"/><path d="M892.12 519l14.26-4.63v9.26z" stroke="#1a1a1a" fill="#1a1a1a"/><path d="M1365.5 396.88V545H891" stroke="#1a1a1a" fill="none"/><path d="M1365.5 382.12l4.63 14.26h-9.27z" stroke="#1a1a1a" fill="#1a1a1a"/><path d="M891 545.5h-.5v-1h.5z" stroke="#1a1a1a" stroke-width=".05" fill="#1a1a1a"/><path d="M1483.5 260h240v120h-240z" stroke="#1a1a1a" fill-opacity="0"/><use xlink:href="#q" transform="matrix(1,0,0,1,1495.5,272.0000000000001) translate(1.3333333333333144 55)"/><path d="M1586.42 381v194.78H906.88" stroke="#1a1a1a" fill="none"/><path d="M1586.92 381h-1v-.5h1z" stroke="#1a1a1a" stroke-width=".05" fill="#1a1a1a"/><path d="M892.12 575.78l14.26-4.64v9.27z" stroke="#1a1a1a" fill="#1a1a1a"/><path d="M1620 396.88V602H891" stroke="#1a1a1a" fill="none"/><path d="M1620 382.12l4.64 14.26h-9.27z" stroke="#1a1a1a" fill="#1a1a1a"/><path d="M891 602.5h-.5v-1h.5z" stroke="#1a1a1a" stroke-width=".05" fill="#1a1a1a"/><path d="M709.18 85.3A10 10 0 0 1 718 80h106c8.84 0 16 26.86 16 60s-7.16 60-16 60H718a10 10 0 0 1-8.82-5.3l-26.36-49.4a11.25 11.25 0 0 1 0-10.6z" stroke="#1a1a1a" fill-opacity="0"/><use xlink:href="#r" transform="matrix(1,0,0,1,685,85) translate(50.33833333333333 63.25)"/><path d="M1407.85 181v62.12" stroke="#1a1a1a" fill="none"/><path d="M1408.35 181h-1v-.5h1z" stroke="#1a1a1a" stroke-width=".05" fill="#1a1a1a"/><path d="M1407.85 257.88l-4.64-14.26h9.28z" stroke="#1a1a1a" fill="#1a1a1a"/><path d="M1431 196.88V259" stroke="#1a1a1a" fill="none"/><path d="M1431 182.12l4.63 14.26h-9.27z" stroke="#1a1a1a" fill="#1a1a1a"/><path d="M1431.5 259.5h-1v-.5h1z" stroke="#1a1a1a" stroke-width=".05" fill="#1a1a1a"/><path d="M1265.6 181v62.12" stroke="#1a1a1a" fill="none"/><path d="M1266.1 181h-1v-.5h1z" stroke="#1a1a1a" stroke-width=".05" fill="#1a1a1a"/><path d="M1265.6 257.88l-4.63-14.26h9.26z" stroke="#1a1a1a" fill="#1a1a1a"/><path d="M1292.8 196.88V259" stroke="#1a1a1a" fill="none"/><path d="M1292.8 182.12l4.63 14.26h-9.27z" stroke="#1a1a1a" fill="#1a1a1a"/><path d="M1293.3 259.5h-1v-.5h1z" stroke="#1a1a1a" stroke-width=".05" fill="#1a1a1a"/><path d="M1170.45 65.8A7.8 7.8 0 0 1 1178 60h176a4.6 4.6 0 0 1 4.45 5.8l-28.9 108.4a7.8 7.8 0 0 1-7.55 5.8h-176a4.6 4.6 0 0 1-4.45-5.8z" stroke="#3a414a" fill-opacity="0"/><use xlink:href="#s" transform="matrix(1,0,0,1,1145,65) translate(31.671666666666674 63.25)"/><path d="M1390.45 65.8A7.8 7.8 0 0 1 1398 60h176a4.6 4.6 0 0 1 4.45 5.8l-28.9 108.4a7.8 7.8 0 0 1-7.55 5.8h-176a4.6 4.6 0 0 1-4.45-5.8z" stroke="#3a414a" fill-opacity="0"/><use xlink:href="#t" transform="matrix(1,0,0,1,1365,65) translate(31.671666666666674 63.25)"/><path d="M920 640h280v120H920z" stroke="#1a1a1a" fill-opacity="0"/><use xlink:href="#u" transform="matrix(1,0,0,1,932,652) translate(88 55)"/><path d="M827.32 819v-13h256.27v-29.12" stroke="#1a1a1a" fill="none"/><path d="M827.82 819.5h-1v-.5h1z" stroke="#1a1a1a" stroke-width=".05" fill="#1a1a1a"/><path d="M1083.6 762.12l4.63 14.26h-9.27z" stroke="#1a1a1a" fill="#1a1a1a"/><path d="M791.96 803.12V780h245.62v-19" stroke="#1a1a1a" fill="none"/><path d="M791.96 817.88l-4.63-14.26h9.27z" stroke="#1a1a1a" fill="#1a1a1a"/><path d="M1038.08 761h-1v-.5h1z" stroke="#1a1a1a" stroke-width=".05" fill="#1a1a1a"/><path d="M1233.5 640h220v120h-220z" stroke="#1a1a1a" fill-opacity="0"/><use xlink:href="#v" transform="matrix(1,0,0,1,1245.5,652) translate(64.66666666666666 55)"/><path d="M1201 721.75h15.64" stroke="#1a1a1a" fill="none"/><path d="M1201 722.25h-.5v-1h.5z" stroke="#1a1a1a" stroke-width=".05" fill="#1a1a1a"/><path d="M1231.38 721.77l-14.27 4.62.02-9.28z" stroke="#1a1a1a" fill="#1a1a1a"/><path d="M1232.5 687h-15.63" stroke="#1a1a1a" fill="none"/><path d="M1233 687.5h-.5v-1h.5z" stroke="#1a1a1a" stroke-width=".05" fill="#1a1a1a"/><path d="M1202.12 687.03l14.26-4.65v9.27z" stroke="#1a1a1a" fill="#1a1a1a"/><path d="M695 420.5H276v62.62h-1V419.5h419V381h1z" stroke="#1a1a1a" stroke-width=".05" fill="#1a1a1a"/><path d="M695 381h-1v-.5h1z" fill="#1a1a1a"/><path d="M695.02 381.04H694v-.56H695zm-1-.52v.47h.96v-.48z" stroke="#1a1a1a" stroke-width=".05" fill="#1a1a1a"/><path d="M275.5 497.88l-4.63-14.26h9.26z" fill="#1a1a1a"/><path d="M275.5 499.5l-5.32-16.38h10.64zm-3.95-15.38l3.95 12.14 3.95-12.14z" stroke="#1a1a1a" stroke-width=".05" fill="#1a1a1a"/><path d="M256.5 396.88V499" stroke="#1a1a1a" fill="none"/><path d="M256.5 382.12l4.63 14.26h-9.26z" stroke="#1a1a1a" fill="#1a1a1a"/><path d="M257 499.5h-1v-.5h1z" stroke="#1a1a1a" stroke-width=".05" fill="#1a1a1a"/><path d="M441.5 396.88V499" stroke="#1a1a1a" fill="none"/><path d="M441.5 382.12l4.63 14.26h-9.26z" stroke="#1a1a1a" fill="#1a1a1a"/><path d="M442 499.5h-1v-.5h1zM740 460.5H504v22.62h-1V459.5h236V381h1z" stroke="#1a1a1a" stroke-width=".05" fill="#1a1a1a"/><path d="M740 381h-1v-.5h1z" fill="#1a1a1a"/><path d="M740.02 381.04H739v-.56H740zm-1-.52v.47h.96v-.48z" stroke="#1a1a1a" stroke-width=".05" fill="#1a1a1a"/><path d="M503.5 497.88l-4.63-14.26h9.26z" fill="#1a1a1a"/><path d="M503.5 499.5l-5.32-16.38h10.64zm-3.95-15.38l3.95 12.14 3.95-12.14z" stroke="#1a1a1a" stroke-width=".05" fill="#1a1a1a"/><defs><path fill="#1a1a1a" d="M674-949c54-70 117-135 232-135 163 0 212 119 211 299V0H918v-754c-6-92 8-155-71-155-77 0-113 45-156 104V0H510v-754c-6-92 8-155-71-155-78 0-113 45-156 104V0H83v-1056h169l15 114c55-72 110-142 226-142 97 0 157 48 181 135" id="w"/><path fill="#1a1a1a" d="M564-1084c261-3 421 114 421 354v471c0 82 21 112 80 133l-50 152C907 12 832-31 796-120 728-31 607 26 459 27c-204 4-349-130-347-328 0-111 45-194 130-257 110-81 314-97 523-90v-69c10-256-345-202-516-137l-55-158c111-42 235-70 370-72zM347-311c0 114 64 174 180 173 106-2 195-63 238-137v-233H641c-179-1-294 47-294 197" id="x"/><path fill="#1a1a1a" d="M755-1056v892h287V0H215v-164h316v-728H225v-164h530zm-302-377c-2-80 64-140 146-140 84 0 148 59 147 140 1 80-63 142-147 142-82 0-148-62-146-142" id="y"/><path fill="#1a1a1a" d="M649-913c-121 5-192 82-247 155V0H178v-1056h193l17 137c74-93 191-162 341-165 198-2 295 118 295 314V0H800v-659c-2-147-5-257-151-254" id="z"/><g id="a"><use transform="matrix(0.011111111111111112,0,0,0.011111111111111112,0,0)" xlink:href="#w"/><use transform="matrix(0.011111111111111112,0,0,0.011111111111111112,13.333333333333334,0)" xlink:href="#x"/><use transform="matrix(0.011111111111111112,0,0,0.011111111111111112,26.666666666666668,0)" xlink:href="#y"/><use transform="matrix(0.011111111111111112,0,0,0.011111111111111112,40,0)" xlink:href="#z"/></g><path fill="#1a1a1a" d="M1071-1380L1149 0H937c-15-387-51-773-34-1176L700-243H498l-218-933c24 392-9 793-21 1176H51l78-1380h278l197 925 188-925h279" id="A"/><path fill="#1a1a1a" d="M842-332H349L253 0H17l439-1380h288L1184 0H938zM397-511h396l-197-689" id="B"/><path fill="#1a1a1a" d="M387-920c67-93 165-164 306-164 304 0 379 245 384 554 0 213-63 391-183 485-60 48-135 72-224 72-111 0-200-39-268-117v496l-224 25v-1487h195zm455 391c-5-204-25-382-211-382-111 0-180 81-229 151v494c45 67 107 116 209 118 75 0 133-30 172-91s59-157 59-290" id="C"/><path fill="#1a1a1a" d="M754 27c-209 3-336-128-336-335v-1007H99v-165h543v1192c-12 166 220 149 327 99l57 156C957 1 863 29 754 27" id="D"/><path fill="#1a1a1a" d="M404-523c0 221 78 366 283 366 111 0 189-44 260-92l104 144C968-33 829 27 680 27c-336-6-514-214-514-550 0-334 183-561 518-561 159 0 273 50 366 127L947-816c-72-49-150-88-259-88-195 0-284 153-284 381" id="E"/><path fill="#1a1a1a" d="M783-154c79 0 144-22 196-50l81 148C987-9 871 28 752 27c-231 5-375-130-375-347v-573H142v-163h235v-236l224-27v263h356l-25 163H601v571c2 119 57 168 182 168" id="F"/><path fill="#1a1a1a" d="M123-528c0-328 154-556 478-556 327 0 476 224 476 554 0 329-151 557-477 557-327 0-477-224-477-555zm659-290c-77-117-285-117-363 0-72 108-72 471-1 579 77 118 287 118 364 0 71-108 71-471 0-579" id="G"/><g id="b"><use transform="matrix(0.011111111111111112,0,0,0.011111111111111112,0,0)" xlink:href="#A"/><use transform="matrix(0.011111111111111112,0,0,0.011111111111111112,13.333333333333334,0)" xlink:href="#x"/><use transform="matrix(0.011111111111111112,0,0,0.011111111111111112,26.666666666666668,0)" xlink:href="#y"/><use transform="matrix(0.011111111111111112,0,0,0.011111111111111112,40,0)" xlink:href="#z"/><use transform="matrix(0.011111111111111112,0,0,0.011111111111111112,53.333333333333336,0)" xlink:href="#B"/><use transform="matrix(0.011111111111111112,0,0,0.011111111111111112,66.66666666666667,0)" xlink:href="#C"/><use transform="matrix(0.011111111111111112,0,0,0.011111111111111112,80,0)" xlink:href="#C"/><use transform="matrix(0.011111111111111112,0,0,0.011111111111111112,93.33333333333334,0)" xlink:href="#D"/><use transform="matrix(0.011111111111111112,0,0,0.011111111111111112,106.66666666666666,0)" xlink:href="#y"/><use transform="matrix(0.011111111111111112,0,0,0.011111111111111112,119.99999999999999,0)" xlink:href="#E"/><use transform="matrix(0.011111111111111112,0,0,0.011111111111111112,133.33333333333331,0)" xlink:href="#x"/><use transform="matrix(0.011111111111111112,0,0,0.011111111111111112,146.66666666666666,0)" xlink:href="#F"/><use transform="matrix(0.011111111111111112,0,0,0.011111111111111112,160,0)" xlink:href="#y"/><use transform="matrix(0.011111111111111112,0,0,0.011111111111111112,173.33333333333334,0)" xlink:href="#G"/><use transform="matrix(0.011111111111111112,0,0,0.011111111111111112,186.66666666666669,0)" xlink:href="#z"/></g><path fill="#1a1a1a" d="M616-1226c-134 0-250 46-250 178 0 94 53 124 130 162 102 50 299 93 402 153 117 69 204 161 199 343-8 286-224 414-526 417-226 2-393-76-508-185l127-142c94 83 209 146 380 144 158-2 286-65 286-223 0-172-136-196-283-245-168-56-311-109-395-228-71-103-63-280 12-379 81-106 228-178 412-177 210 0 348 64 462 166l-122 138c-83-74-187-122-326-122" id="H"/><path fill="#1a1a1a" d="M614-1084c339 7 481 265 450 628H364c11 188 101 309 288 309 121 0 196-41 277-92l97 134C935-31 801 27 641 27c-337-5-509-218-509-554 0-221 87-392 224-483 72-49 158-74 258-74zm238 475c-3-178-70-309-236-309-167 0-243 127-253 309h489" id="I"/><path fill="#1a1a1a" d="M1102-1056L738 4c-82 237-222 405-517 428l-29-168C384 239 474 158 530 0h-76L98-1056h238l266 900 270-900h230" id="J"/><path fill="#1a1a1a" d="M247-258c77 61 182 113 315 113 147 0 277-78 211-215-12-20-36-39-72-56-79-39-264-73-347-117-95-50-164-112-164-248 0-218 191-299 422-303 173-2 304 52 401 122l-94 141c-80-51-172-94-301-93-117 0-200 25-200 117 0 71 43 88 105 115 84 35 262 72 343 118 96 50 165 122 162 263-5 244-221 321-466 328-192 3-333-63-434-149" id="K"/><g id="c"><use transform="matrix(0.011111111111111112,0,0,0.011111111111111112,0,0)" xlink:href="#H"/><use transform="matrix(0.011111111111111112,0,0,0.011111111111111112,13.333333333333334,0)" xlink:href="#I"/><use transform="matrix(0.011111111111111112,0,0,0.011111111111111112,26.666666666666668,0)" xlink:href="#z"/><use transform="matrix(0.011111111111111112,0,0,0.011111111111111112,40,0)" xlink:href="#F"/><use transform="matrix(0.011111111111111112,0,0,0.011111111111111112,53.333333333333336,0)" xlink:href="#y"/><use transform="matrix(0.011111111111111112,0,0,0.011111111111111112,66.66666666666667,0)" xlink:href="#w"/><use transform="matrix(0.011111111111111112,0,0,0.011111111111111112,80,0)" xlink:href="#I"/><use transform="matrix(0.011111111111111112,0,0,0.011111111111111112,93.33333333333334,0)" xlink:href="#z"/><use transform="matrix(0.011111111111111112,0,0,0.011111111111111112,106.66666666666666,0)" xlink:href="#F"/><use transform="matrix(0.011111111111111112,0,0,0.011111111111111112,119.99999999999999,0)" xlink:href="#B"/><use transform="matrix(0.011111111111111112,0,0,0.011111111111111112,133.33333333333331,0)" xlink:href="#z"/><use transform="matrix(0.011111111111111112,0,0,0.011111111111111112,146.66666666666666,0)" xlink:href="#x"/><use transform="matrix(0.011111111111111112,0,0,0.011111111111111112,160,0)" xlink:href="#D"/><use transform="matrix(0.011111111111111112,0,0,0.011111111111111112,173.33333333333334,0)" xlink:href="#J"/><use transform="matrix(0.011111111111111112,0,0,0.011111111111111112,186.66666666666669,0)" xlink:href="#K"/><use transform="matrix(0.011111111111111112,0,0,0.011111111111111112,200.00000000000006,0)" xlink:href="#y"/><use transform="matrix(0.011111111111111112,0,0,0.011111111111111112,213.33333333333337,0)" xlink:href="#K"/></g><path fill="#1a1a1a" d="M482 27C280 30 178-92 178-290v-766h224v738c0 118 41 172 151 174 107-1 202-77 245-148v-764h224V0H829l-14-135C749-42 626 24 482 27" id="L"/><path fill="#1a1a1a" d="M1108-1056L681-584 1153 0H879L425-578l422-478h261zm-699-449V0H185v-1480" id="M"/><path fill="#1a1a1a" d="M1019-864c-123-36-243-19-321 68-56 57-99 139-131 244v392h213V0H188v-160h155v-737H188v-159h326l41 245c77-178 202-302 457-265 25 5 49 12 74 20zM888-667v-260l28-129h170l-38 389H888" id="N"/><path fill="#1a1a1a" d="M599 27c-115 0-193-80-193-194 0-115 79-193 193-193 115 0 194 78 194 193S715 27 599 27" id="O"/><path fill="#1a1a1a" d="M1152-137C1055-47 915 31 719 27 312 11 107-263 104-692c-3-304 121-519 305-634 145-91 373-105 543-46 64 24 125 60 180 105l-121 144c-103-100-329-143-474-50-131 84-195 247-192 481 0 310 99 518 382 531 146 3 234-58 313-119" id="P"/><path fill="#1a1a1a" d="M713-1193V0H481v-1193H67v-187h1070l-24 187H713" id="Q"/><path fill="#1a1a1a" d="M1103-1056L731 0H469L97-1056h240l268 870 269-870h229" id="R"/><g id="d"><use transform="matrix(0.011111111111111112,0,0,0.011111111111111112,0,0)" xlink:href="#E"/><use transform="matrix(0.011111111111111112,0,0,0.011111111111111112,13.333333333333334,0)" xlink:href="#L"/><use transform="matrix(0.011111111111111112,0,0,0.011111111111111112,26.666666666666668,0)" xlink:href="#K"/><use transform="matrix(0.011111111111111112,0,0,0.011111111111111112,40,0)" xlink:href="#F"/><use transform="matrix(0.011111111111111112,0,0,0.011111111111111112,53.333333333333336,0)" xlink:href="#G"/><use transform="matrix(0.011111111111111112,0,0,0.011111111111111112,66.66666666666667,0)" xlink:href="#w"/><use transform="matrix(0.011111111111111112,0,0,0.011111111111111112,80,0)" xlink:href="#F"/><use transform="matrix(0.011111111111111112,0,0,0.011111111111111112,93.33333333333334,0)" xlink:href="#M"/><use transform="matrix(0.011111111111111112,0,0,0.011111111111111112,106.66666666666666,0)" xlink:href="#y"/><use transform="matrix(0.011111111111111112,0,0,0.011111111111111112,119.99999999999999,0)" xlink:href="#z"/><use transform="matrix(0.011111111111111112,0,0,0.011111111111111112,133.33333333333331,0)" xlink:href="#F"/><use transform="matrix(0.011111111111111112,0,0,0.011111111111111112,146.66666666666666,0)" xlink:href="#I"/><use transform="matrix(0.011111111111111112,0,0,0.011111111111111112,160,0)" xlink:href="#N"/><use transform="matrix(0.011111111111111112,0,0,0.011111111111111112,173.33333333333334,0)" xlink:href="#O"/><use transform="matrix(0.011111111111111112,0,0,0.011111111111111112,186.66666666666669,0)" xlink:href="#P"/><use transform="matrix(0.011111111111111112,0,0,0.011111111111111112,200.00000000000006,0)" xlink:href="#Q"/><use transform="matrix(0.011111111111111112,0,0,0.011111111111111112,213.33333333333337,0)" xlink:href="#M"/><use transform="matrix(0.011111111111111112,0,0,0.011111111111111112,226.6666666666667,0)" xlink:href="#Q"/><use transform="matrix(0.011111111111111112,0,0,0.011111111111111112,240.00000000000006,0)" xlink:href="#G"/><use transform="matrix(0.011111111111111112,0,0,0.011111111111111112,253.33333333333337,0)" xlink:href="#C"/><use transform="matrix(0.011111111111111112,0,0,0.011111111111111112,266.66666666666674,0)" xlink:href="#D"/><use transform="matrix(0.011111111111111112,0,0,0.011111111111111112,280.00000000000006,0)" xlink:href="#I"/><use transform="matrix(0.011111111111111112,0,0,0.011111111111111112,293.33333333333337,0)" xlink:href="#R"/><use transform="matrix(0.011111111111111112,0,0,0.011111111111111112,306.6666666666667,0)" xlink:href="#I"/><use transform="matrix(0.011111111111111112,0,0,0.011111111111111112,320,0)" xlink:href="#D"/></g><g id="e"><use transform="matrix(0.011111111111111112,0,0,0.011111111111111112,0,0)" xlink:href="#E"/><use transform="matrix(0.011111111111111112,0,0,0.011111111111111112,13.333333333333334,0)" xlink:href="#L"/><use transform="matrix(0.011111111111111112,0,0,0.011111111111111112,26.666666666666668,0)" xlink:href="#K"/><use transform="matrix(0.011111111111111112,0,0,0.011111111111111112,40,0)" xlink:href="#F"/><use transform="matrix(0.011111111111111112,0,0,0.011111111111111112,53.333333333333336,0)" xlink:href="#G"/><use transform="matrix(0.011111111111111112,0,0,0.011111111111111112,66.66666666666667,0)" xlink:href="#w"/><use transform="matrix(0.011111111111111112,0,0,0.011111111111111112,80,0)" xlink:href="#F"/><use transform="matrix(0.011111111111111112,0,0,0.011111111111111112,93.33333333333334,0)" xlink:href="#M"/><use transform="matrix(0.011111111111111112,0,0,0.011111111111111112,106.66666666666666,0)" xlink:href="#y"/><use transform="matrix(0.011111111111111112,0,0,0.011111111111111112,119.99999999999999,0)" xlink:href="#z"/><use transform="matrix(0.011111111111111112,0,0,0.011111111111111112,133.33333333333331,0)" xlink:href="#F"/><use transform="matrix(0.011111111111111112,0,0,0.011111111111111112,146.66666666666666,0)" xlink:href="#I"/><use transform="matrix(0.011111111111111112,0,0,0.011111111111111112,160,0)" xlink:href="#N"/><use transform="matrix(0.011111111111111112,0,0,0.011111111111111112,173.33333333333334,0)" xlink:href="#O"/><use transform="matrix(0.011111111111111112,0,0,0.011111111111111112,186.66666666666669,0)" xlink:href="#P"/><use transform="matrix(0.011111111111111112,0,0,0.011111111111111112,200.00000000000006,0)" xlink:href="#Q"/><use transform="matrix(0.011111111111111112,0,0,0.011111111111111112,213.33333333333337,0)" xlink:href="#M"/></g><path fill="#1a1a1a" d="M692-1084c304 0 388 244 393 554 0 215-66 392-189 485-62 48-140 72-231 72-118 0-211-44-278-131L375 0H178v-1480l224-25v575c65-83 155-154 290-154zM402-266c43 66 107 120 207 122 76 0 135-31 177-93s62-159 62-292c-4-205-31-382-217-382-111 0-180 81-229 151v494" id="S"/><path fill="#1a1a1a" d="M592-669c187-2 295-82 293-276 1-187-113-259-296-261H423v537h169zm-18-711c323 0 555 121 555 433 0 325-218 450-539 455H423V0H191v-1380h383" id="T"/><g id="f"><use transform="matrix(0.011111111111111112,0,0,0.011111111111111112,0,0)" xlink:href="#B"/><use transform="matrix(0.011111111111111112,0,0,0.011111111111111112,13.333333333333334,0)" xlink:href="#S"/><use transform="matrix(0.011111111111111112,0,0,0.011111111111111112,26.666666666666668,0)" xlink:href="#G"/><use transform="matrix(0.011111111111111112,0,0,0.011111111111111112,40,0)" xlink:href="#L"/><use transform="matrix(0.011111111111111112,0,0,0.011111111111111112,53.333333333333336,0)" xlink:href="#F"/><use transform="matrix(0.011111111111111112,0,0,0.011111111111111112,66.66666666666667,0)" xlink:href="#T"/><use transform="matrix(0.011111111111111112,0,0,0.011111111111111112,80,0)" xlink:href="#N"/><use transform="matrix(0.011111111111111112,0,0,0.011111111111111112,93.33333333333334,0)" xlink:href="#G"/><use transform="matrix(0.011111111111111112,0,0,0.011111111111111112,106.66666666666666,0)" xlink:href="#w"/><use transform="matrix(0.011111111111111112,0,0,0.011111111111111112,119.99999999999999,0)" xlink:href="#C"/><use transform="matrix(0.011111111111111112,0,0,0.011111111111111112,133.33333333333331,0)" xlink:href="#F"/></g><path fill="#1a1a1a" d="M825 0v-627H375V0H143v-1380h232v562h450v-562h232V0H825" id="U"/><g id="g"><use transform="matrix(0.011111111111111112,0,0,0.011111111111111112,0,0)" xlink:href="#U"/><use transform="matrix(0.011111111111111112,0,0,0.011111111111111112,13.333333333333334,0)" xlink:href="#I"/><use transform="matrix(0.011111111111111112,0,0,0.011111111111111112,26.666666666666668,0)" xlink:href="#D"/><use transform="matrix(0.011111111111111112,0,0,0.011111111111111112,40,0)" xlink:href="#C"/><use transform="matrix(0.011111111111111112,0,0,0.011111111111111112,53.333333333333336,0)" xlink:href="#T"/><use transform="matrix(0.011111111111111112,0,0,0.011111111111111112,66.66666666666667,0)" xlink:href="#N"/><use transform="matrix(0.011111111111111112,0,0,0.011111111111111112,80,0)" xlink:href="#G"/><use transform="matrix(0.011111111111111112,0,0,0.011111111111111112,93.33333333333334,0)" xlink:href="#w"/><use transform="matrix(0.011111111111111112,0,0,0.011111111111111112,106.66666666666666,0)" xlink:href="#C"/><use transform="matrix(0.011111111111111112,0,0,0.011111111111111112,119.99999999999999,0)" xlink:href="#F"/></g><path fill="#1a1a1a" d="M503-176c286-9 375-214 375-521 1-307-86-503-376-505H375v1026h128zm-45-1204c445-1 664 220 664 683C1122-246 918-4 481 0H143v-1380h315" id="V"/><g id="h"><use transform="matrix(0.011111111111111112,0,0,0.011111111111111112,0,0)" xlink:href="#T"/><use transform="matrix(0.011111111111111112,0,0,0.011111111111111112,13.333333333333334,0)" xlink:href="#N"/><use transform="matrix(0.011111111111111112,0,0,0.011111111111111112,26.666666666666668,0)" xlink:href="#I"/><use transform="matrix(0.011111111111111112,0,0,0.011111111111111112,40,0)" xlink:href="#C"/><use transform="matrix(0.011111111111111112,0,0,0.011111111111111112,53.333333333333336,0)" xlink:href="#N"/><use transform="matrix(0.011111111111111112,0,0,0.011111111111111112,66.66666666666667,0)" xlink:href="#G"/><use transform="matrix(0.011111111111111112,0,0,0.011111111111111112,80,0)" xlink:href="#E"/><use transform="matrix(0.011111111111111112,0,0,0.011111111111111112,93.33333333333334,0)" xlink:href="#I"/><use transform="matrix(0.011111111111111112,0,0,0.011111111111111112,106.66666666666666,0)" xlink:href="#K"/><use transform="matrix(0.011111111111111112,0,0,0.011111111111111112,119.99999999999999,0)" xlink:href="#K"/><use transform="matrix(0.011111111111111112,0,0,0.011111111111111112,133.33333333333331,0)" xlink:href="#V"/><use transform="matrix(0.011111111111111112,0,0,0.011111111111111112,146.66666666666666,0)" xlink:href="#x"/><use transform="matrix(0.011111111111111112,0,0,0.011111111111111112,160,0)" xlink:href="#F"/><use transform="matrix(0.011111111111111112,0,0,0.011111111111111112,173.33333333333334,0)" xlink:href="#x"/></g><path fill="#1a1a1a" d="M555-1380c321 0 538 103 538 399 0 221-144 324-314 380L1170 0H900L553-568H402V0H170v-1380h385zm18 642c175-2 278-66 277-243-2-172-103-226-282-227H402v470h171" id="W"/><g id="i"><use transform="matrix(0.011111111111111112,0,0,0.011111111111111112,0,0)" xlink:href="#W"/><use transform="matrix(0.011111111111111112,0,0,0.011111111111111112,13.333333333333334,0)" xlink:href="#I"/><use transform="matrix(0.011111111111111112,0,0,0.011111111111111112,26.666666666666668,0)" xlink:href="#K"/><use transform="matrix(0.011111111111111112,0,0,0.011111111111111112,40,0)" xlink:href="#L"/><use transform="matrix(0.011111111111111112,0,0,0.011111111111111112,53.333333333333336,0)" xlink:href="#D"/><use transform="matrix(0.011111111111111112,0,0,0.011111111111111112,66.66666666666667,0)" xlink:href="#F"/><use transform="matrix(0.011111111111111112,0,0,0.011111111111111112,80,0)" xlink:href="#K"/><use transform="matrix(0.011111111111111112,0,0,0.011111111111111112,93.33333333333334,0)" xlink:href="#B"/><use transform="matrix(0.011111111111111112,0,0,0.011111111111111112,106.66666666666666,0)" xlink:href="#z"/><use transform="matrix(0.011111111111111112,0,0,0.011111111111111112,119.99999999999999,0)" xlink:href="#x"/><use transform="matrix(0.011111111111111112,0,0,0.011111111111111112,133.33333333333331,0)" xlink:href="#D"/><use transform="matrix(0.011111111111111112,0,0,0.011111111111111112,146.66666666666666,0)" xlink:href="#J"/><use transform="matrix(0.011111111111111112,0,0,0.011111111111111112,160,0)" xlink:href="#K"/><use transform="matrix(0.011111111111111112,0,0,0.011111111111111112,173.33333333333334,0)" xlink:href="#y"/><use transform="matrix(0.011111111111111112,0,0,0.011111111111111112,186.66666666666669,0)" xlink:href="#K"/></g><path fill="#1a1a1a" d="M1196-1380L1005 0H734L598-1021 457 0H180L4-1380h224L337-224l146-996h239l138 996 129-1156h207" id="X"/><g id="j"><use transform="matrix(0.011111111111111112,0,0,0.011111111111111112,0,0)" xlink:href="#W"/><use transform="matrix(0.011111111111111112,0,0,0.011111111111111112,13.333333333333334,0)" xlink:href="#I"/><use transform="matrix(0.011111111111111112,0,0,0.011111111111111112,26.666666666666668,0)" xlink:href="#K"/><use transform="matrix(0.011111111111111112,0,0,0.011111111111111112,40,0)" xlink:href="#L"/><use transform="matrix(0.011111111111111112,0,0,0.011111111111111112,53.333333333333336,0)" xlink:href="#D"/><use transform="matrix(0.011111111111111112,0,0,0.011111111111111112,66.66666666666667,0)" xlink:href="#F"/><use transform="matrix(0.011111111111111112,0,0,0.011111111111111112,80,0)" xlink:href="#K"/><use transform="matrix(0.011111111111111112,0,0,0.011111111111111112,93.33333333333334,0)" xlink:href="#X"/><use transform="matrix(0.011111111111111112,0,0,0.011111111111111112,106.66666666666666,0)" xlink:href="#N"/><use transform="matrix(0.011111111111111112,0,0,0.011111111111111112,119.99999999999999,0)" xlink:href="#y"/><use transform="matrix(0.011111111111111112,0,0,0.011111111111111112,133.33333333333331,0)" xlink:href="#F"/><use transform="matrix(0.011111111111111112,0,0,0.011111111111111112,146.66666666666666,0)" xlink:href="#I"/><use transform="matrix(0.011111111111111112,0,0,0.011111111111111112,160,0)" xlink:href="#N"/></g><path fill="#1a1a1a" d="M415-1169c9-225 172-331 405-336 128-1 226 24 315 61l-66 155c-65-27-140-41-227-42-130 1-204 41-204 164v187h353l-24 165H638V0H415v-815H175v-165h240v-189" id="Y"/><g id="k"><use transform="matrix(0.006666666666666667,0,0,0.006666666666666667,0,0)" xlink:href="#Y"/><use transform="matrix(0.006666666666666667,0,0,0.006666666666666667,8,0)" xlink:href="#G"/><use transform="matrix(0.006666666666666667,0,0,0.006666666666666667,16,0)" xlink:href="#N"/></g><use transform="matrix(0.006666666666666667,0,0,0.006666666666666667,0,0)" xlink:href="#y" id="l"/><g id="m"><use transform="matrix(0.006666666666666667,0,0,0.006666666666666667,0,0)" xlink:href="#y"/><use transform="matrix(0.006666666666666667,0,0,0.006666666666666667,8,0)" xlink:href="#z"/></g><path fill="#1a1a1a" d="M532-1084c122 1 204 47 266 115v-536l224 25V0H825l-16-130C745-41 653 27 512 27c-301 0-392-248-397-555-1-215 71-391 193-484 62-48 137-72 224-72zm266 289c-46-65-107-115-207-117-75 0-130 35-176 94-68 87-79 376-37 510 30 97 82 163 193 163 113 0 179-79 227-150v-500" id="Z"/><g id="n"><use transform="matrix(0.006666666666666667,0,0,0.006666666666666667,0,0)" xlink:href="#Z"/><use transform="matrix(0.006666666666666667,0,0,0.006666666666666667,8,0)" xlink:href="#x"/><use transform="matrix(0.006666666666666667,0,0,0.006666666666666667,16,0)" xlink:href="#F"/><use transform="matrix(0.006666666666666667,0,0,0.006666666666666667,24,0)" xlink:href="#x"/><use transform="matrix(0.006666666666666667,0,0,0.006666666666666667,32,0)" xlink:href="#K"/><use transform="matrix(0.006666666666666667,0,0,0.006666666666666667,40,0)" xlink:href="#I"/><use transform="matrix(0.006666666666666667,0,0,0.006666666666666667,48,0)" xlink:href="#F"/><use transform="matrix(0.006666666666666667,0,0,0.006666666666666667,56.00000000000001,0)" xlink:href="#K"/></g><path fill="#1a1a1a" d="M407-930c69-92 163-159 301-159 306 0 381 246 386 557 0 215-64 395-184 490-60 48-135 72-223 72C579 30 492-8 425-85v493l-264 28v-1495h232zm18 652c42 62 94 106 186 108 67 0 115-31 155-84 58-77 66-366 32-488-25-91-68-149-167-149-103 0-160 73-206 139v474" id="aa"/><path fill="#1a1a1a" d="M1024-837c-246-73-386 106-440 300v354h211V0H171v-183h149v-694H171v-182h350l49 243c74-181 206-303 458-264 26 5 51 12 75 21zM880-646v-281l36-132h187l-47 413H880" id="ab"/><path fill="#1a1a1a" d="M106-530c0-333 164-559 495-559 332 0 493 223 493 557 0 338-160 562-494 562S106-191 106-530zm659-274c-70-110-260-109-329 1-64 100-64 447-1 547 69 110 261 110 330 0 62-99 64-448 0-548" id="ac"/><path fill="#1a1a1a" d="M681-959c55-67 121-129 233-130 170 3 216 122 216 304V0H900v-752c-4-80 4-132-63-132-68 0-97 37-136 89V0H502v-752c-4-80 4-132-63-132-69 0-97 37-136 89V0H70v-1059h197l17 110c57-74 107-140 224-140 94 0 152 46 173 130" id="ad"/><path fill="#1a1a1a" d="M793-181c78 1 140-21 191-48l91 170C997-8 879 31 750 30c-246 5-390-136-390-368v-534H130v-187h230v-233l264-32v265h350l-27 187H624v533c1 113 53 158 169 158" id="ae"/><g id="o"><use transform="matrix(0.006666666666666667,0,0,0.006666666666666667,0,0)" xlink:href="#aa"/><use transform="matrix(0.006666666666666667,0,0,0.006666666666666667,8,0)" xlink:href="#ab"/><use transform="matrix(0.006666666666666667,0,0,0.006666666666666667,16,0)" xlink:href="#ac"/><use transform="matrix(0.006666666666666667,0,0,0.006666666666666667,24,0)" xlink:href="#ad"/><use transform="matrix(0.006666666666666667,0,0,0.006666666666666667,32,0)" xlink:href="#aa"/><use transform="matrix(0.006666666666666667,0,0,0.006666666666666667,40,0)" xlink:href="#ae"/></g><path fill="#1a1a1a" d="M1100-100C970-30 836 28 636 27 231 17 76-268 74-692c1-341 138-565 372-670 132-61 340-59 466-4 63 28 121 67 175 117l-130 135c-76-68-147-113-275-113-279 0-365 236-365 536s52 528 330 537c92 0 165-24 228-58v-380H641l-25-177h484v669" id="af"/><g id="p"><use transform="matrix(0.011111111111111112,0,0,0.011111111111111112,0,0)" xlink:href="#af"/><use transform="matrix(0.011111111111111112,0,0,0.011111111111111112,13.333333333333334,0)" xlink:href="#I"/><use transform="matrix(0.011111111111111112,0,0,0.011111111111111112,26.666666666666668,0)" xlink:href="#F"/><use transform="matrix(0.011111111111111112,0,0,0.011111111111111112,40,0)" xlink:href="#T"/><use transform="matrix(0.011111111111111112,0,0,0.011111111111111112,53.333333333333336,0)" xlink:href="#x"/><use transform="matrix(0.011111111111111112,0,0,0.011111111111111112,66.66666666666667,0)" xlink:href="#N"/><use transform="matrix(0.011111111111111112,0,0,0.011111111111111112,80,0)" xlink:href="#x"/><use transform="matrix(0.011111111111111112,0,0,0.011111111111111112,93.33333333333334,0)" xlink:href="#w"/><use transform="matrix(0.011111111111111112,0,0,0.011111111111111112,106.66666666666666,0)" xlink:href="#I"/><use transform="matrix(0.011111111111111112,0,0,0.011111111111111112,119.99999999999999,0)" xlink:href="#F"/><use transform="matrix(0.011111111111111112,0,0,0.011111111111111112,133.33333333333331,0)" xlink:href="#I"/><use transform="matrix(0.011111111111111112,0,0,0.011111111111111112,146.66666666666666,0)" xlink:href="#N"/><use transform="matrix(0.011111111111111112,0,0,0.011111111111111112,160,0)" xlink:href="#K"/></g><path fill="#1a1a1a" d="M580-1083c217 0 350-38 487-107l60 186c-88 30-187 34-307 35 112 51 191 121 191 268 0 235-171 354-416 357-60 0-99-4-145-17-24 16-47 49-47 87 2 116 199 79 316 79 151 0 271 56 335 143 94 134 47 317-86 396-92 55-221 87-392 87-285 0-468-59-471-326h201c1 148 113 161 272 163 125 0 217-16 272-72 20-23 29-50 29-82C873-43 660-23 492-20S203-88 203-223c0-89 55-151 118-191-113-61-182-138-182-295 0-247 187-374 441-374zm209 370c0-142-67-216-207-216-138-3-215 86-215 218 0 134 79 224 218 221 135 0 205-85 204-223" id="ag"/><path fill="#1a1a1a" d="M486-1204v439h519v176H486V0H254v-1380h849l-26 176H486" id="ah"/><g id="q"><use transform="matrix(0.011111111111111112,0,0,0.011111111111111112,0,0)" xlink:href="#H"/><use transform="matrix(0.011111111111111112,0,0,0.011111111111111112,13.333333333333334,0)" xlink:href="#F"/><use transform="matrix(0.011111111111111112,0,0,0.011111111111111112,26.666666666666668,0)" xlink:href="#N"/><use transform="matrix(0.011111111111111112,0,0,0.011111111111111112,40,0)" xlink:href="#y"/><use transform="matrix(0.011111111111111112,0,0,0.011111111111111112,53.333333333333336,0)" xlink:href="#z"/><use transform="matrix(0.011111111111111112,0,0,0.011111111111111112,66.66666666666667,0)" xlink:href="#ag"/><use transform="matrix(0.011111111111111112,0,0,0.011111111111111112,80,0)" xlink:href="#ah"/><use transform="matrix(0.011111111111111112,0,0,0.011111111111111112,93.33333333333334,0)" xlink:href="#G"/><use transform="matrix(0.011111111111111112,0,0,0.011111111111111112,106.66666666666666,0)" xlink:href="#N"/><use transform="matrix(0.011111111111111112,0,0,0.011111111111111112,119.99999999999999,0)" xlink:href="#w"/><use transform="matrix(0.011111111111111112,0,0,0.011111111111111112,133.33333333333331,0)" xlink:href="#x"/><use transform="matrix(0.011111111111111112,0,0,0.011111111111111112,146.66666666666666,0)" xlink:href="#F"/><use transform="matrix(0.011111111111111112,0,0,0.011111111111111112,160,0)" xlink:href="#F"/><use transform="matrix(0.011111111111111112,0,0,0.011111111111111112,173.33333333333334,0)" xlink:href="#y"/><use transform="matrix(0.011111111111111112,0,0,0.011111111111111112,186.66666666666669,0)" xlink:href="#z"/><use transform="matrix(0.011111111111111112,0,0,0.011111111111111112,200.00000000000006,0)" xlink:href="#ag"/></g><path fill="#1a1a1a" d="M599-158c190 0 246-133 246-337v-885h233v927c-7 299-177 480-479 480-306 0-477-180-477-480v-927h232v885c2 204 54 337 245 337" id="ai"/><g id="r"><use transform="matrix(0.011111111111111112,0,0,0.011111111111111112,0,0)" xlink:href="#ai"/><use transform="matrix(0.011111111111111112,0,0,0.011111111111111112,13.333333333333334,0)" xlink:href="#K"/><use transform="matrix(0.011111111111111112,0,0,0.011111111111111112,26.666666666666668,0)" xlink:href="#I"/><use transform="matrix(0.011111111111111112,0,0,0.011111111111111112,40,0)" xlink:href="#N"/></g><g id="s"><use transform="matrix(0.011111111111111112,0,0,0.011111111111111112,0,0)" xlink:href="#E"/><use transform="matrix(0.011111111111111112,0,0,0.011111111111111112,13.333333333333334,0)" xlink:href="#G"/><use transform="matrix(0.011111111111111112,0,0,0.011111111111111112,26.666666666666668,0)" xlink:href="#z"/><use transform="matrix(0.011111111111111112,0,0,0.011111111111111112,40,0)" xlink:href="#Y"/><use transform="matrix(0.011111111111111112,0,0,0.011111111111111112,53.333333333333336,0)" xlink:href="#y"/><use transform="matrix(0.011111111111111112,0,0,0.011111111111111112,66.66666666666667,0)" xlink:href="#ag"/><use transform="matrix(0.011111111111111112,0,0,0.011111111111111112,80,0)" xlink:href="#O"/><use transform="matrix(0.011111111111111112,0,0,0.011111111111111112,93.33333333333334,0)" xlink:href="#F"/><use transform="matrix(0.011111111111111112,0,0,0.011111111111111112,106.66666666666666,0)" xlink:href="#G"/><use transform="matrix(0.011111111111111112,0,0,0.011111111111111112,119.99999999999999,0)" xlink:href="#w"/><use transform="matrix(0.011111111111111112,0,0,0.011111111111111112,133.33333333333331,0)" xlink:href="#D"/></g><g id="t"><use transform="matrix(0.011111111111111112,0,0,0.011111111111111112,0,0)" xlink:href="#C"/><use transform="matrix(0.011111111111111112,0,0,0.011111111111111112,13.333333333333334,0)" xlink:href="#x"/><use transform="matrix(0.011111111111111112,0,0,0.011111111111111112,26.666666666666668,0)" xlink:href="#N"/><use transform="matrix(0.011111111111111112,0,0,0.011111111111111112,40,0)" xlink:href="#x"/><use transform="matrix(0.011111111111111112,0,0,0.011111111111111112,53.333333333333336,0)" xlink:href="#w"/><use transform="matrix(0.011111111111111112,0,0,0.011111111111111112,66.66666666666667,0)" xlink:href="#K"/><use transform="matrix(0.011111111111111112,0,0,0.011111111111111112,80,0)" xlink:href="#O"/><use transform="matrix(0.011111111111111112,0,0,0.011111111111111112,93.33333333333334,0)" xlink:href="#F"/><use transform="matrix(0.011111111111111112,0,0,0.011111111111111112,106.66666666666666,0)" xlink:href="#G"/><use transform="matrix(0.011111111111111112,0,0,0.011111111111111112,119.99999999999999,0)" xlink:href="#w"/><use transform="matrix(0.011111111111111112,0,0,0.011111111111111112,133.33333333333331,0)" xlink:href="#D"/></g><g id="u"><use transform="matrix(0.011111111111111112,0,0,0.011111111111111112,0,0)" xlink:href="#A"/><use transform="matrix(0.011111111111111112,0,0,0.011111111111111112,13.333333333333334,0)" xlink:href="#G"/><use transform="matrix(0.011111111111111112,0,0,0.011111111111111112,26.666666666666668,0)" xlink:href="#Z"/><use transform="matrix(0.011111111111111112,0,0,0.011111111111111112,40,0)" xlink:href="#I"/><use transform="matrix(0.011111111111111112,0,0,0.011111111111111112,53.333333333333336,0)" xlink:href="#D"/><use transform="matrix(0.011111111111111112,0,0,0.011111111111111112,66.66666666666667,0)" xlink:href="#K"/></g><path fill="#1a1a1a" d="M605-220l330-1160h235L733 0H467L30-1380h248" id="aj"/><path fill="#1a1a1a" d="M458-1204v415h500v176H458v437h609V0H226v-1380h830l-26 176H458" id="ak"/><g id="v"><use transform="matrix(0.011111111111111112,0,0,0.011111111111111112,0,0)" xlink:href="#aj"/><use transform="matrix(0.011111111111111112,0,0,0.011111111111111112,13.333333333333334,0)" xlink:href="#B"/><use transform="matrix(0.011111111111111112,0,0,0.011111111111111112,26.666666666666668,0)" xlink:href="#V"/><use transform="matrix(0.011111111111111112,0,0,0.011111111111111112,40,0)" xlink:href="#ak"/><use transform="matrix(0.011111111111111112,0,0,0.011111111111111112,53.333333333333336,0)" xlink:href="#W"/></g></defs></g></svg>