<svg xmlns="http://www.w3.org/2000/svg" xmlns:xlink="http://www.w3.org/1999/xlink" xmlns:lucid="lucid" width="1575.23" height="520"><g transform="translate(-20 -120)" lucid:page-tab-id="0_0"><path d="M81.12 465.8a7.8 7.8 0 0 1 7.55-5.8H294a4.6 4.6 0 0 1 4.45 5.8l-39.57 148.4a7.8 7.8 0 0 1-7.55 5.8H46a4.6 4.6 0 0 1-4.45-5.8z" stroke="#3a414a" fill="#fff"/><use xlink:href="#a" transform="matrix(1,0,0,1,45,465) translate(51.17166666666668 82.9375)"/><path d="M81.12 205.8a7.8 7.8 0 0 1 7.55-5.8H294a4.6 4.6 0 0 1 4.45 5.8l-39.57 148.4a7.8 7.8 0 0 1-7.55 5.8H46a4.6 4.6 0 0 1-4.45-5.8z" stroke="#3a414a" fill="#fff"/><use xlink:href="#b" transform="matrix(1,0,0,1,45,205) translate(51.17166666666668 82.9375)"/><path d="M455.23 200h260v420h-260z" stroke="#3a414a" fill="#fff"/><use xlink:href="#c" transform="matrix(1,0,0,1,467.2258640040402,211.9999999999999) translate(31.33333333333333 207.625)"/><path d="M438.34 250.84v1H406.6v-1zm-151 1v-1h47.6v1z" stroke="#1a1a1a" stroke-width=".05" fill="#1a1a1a"/><path d="M287.34 251.83h-.64l.26-1h.38z" fill="#1a1a1a"/><path d="M287.37 251.85h-.7l.27-1.04h.43zm-.4-1l-.24.96h.6v-.95z" stroke="#1a1a1a" stroke-width=".05" fill="#1a1a1a"/><path d="M453.1 251.34l-14.26 4.64v-9.27z" fill="#1a1a1a"/><path d="M454.73 251.34l-16.4 5.33v-10.65zm-15.4 3.95l12.16-3.96-12.16-3.94z" stroke="#1a1a1a" stroke-width=".05" fill="#1a1a1a"/><use xlink:href="#d" transform="matrix(1,0,0,1,334.94749576905434,240.7558011521555) translate(0 15.9375)"/><path d="M341.85 311.96h-54.67v-1h54.67zm112.38-.24H402v-1h52.23z" stroke="#1a1a1a" stroke-width=".05" fill="#1a1a1a"/><path d="M454.73 311.72h-.52v-1h.53z" fill="#1a1a1a"/><path d="M454.75 311.75h-.56v-1.05h.55zm-.5-1v.95h.45v-.95z" stroke="#1a1a1a" stroke-width=".05" fill="#1a1a1a"/><path d="M286.68 316.1l-14.27-4.64 14.28-4.64z" fill="#1a1a1a"/><path d="M287.18 316.78l-16.38-5.32 16.38-5.33zm-13.15-5.32l12.15 3.94v-7.9z" stroke="#1a1a1a" stroke-width=".05" fill="#1a1a1a"/><use xlink:href="#e" transform="matrix(1,0,0,1,341.85382327934985,300.6430385724557) translate(0 15.9375)"/><path d="M438.34 509.65v1H398v-1zm-150.67.9v-1h38.68v1z" stroke="#1a1a1a" stroke-width=".05" fill="#1a1a1a"/><path d="M287.7 510.54h-.66l.27-1h.38z" fill="#1a1a1a"/><path d="M287.7 510.57h-.7l.3-1.05h.4zm-.38-1l-.25.95h.6v-.95z" stroke="#1a1a1a" stroke-width=".05" fill="#1a1a1a"/><path d="M453.1 510.15l-14.26 4.64v-9.28z" fill="#1a1a1a"/><path d="M454.73 510.15l-16.4 5.33v-10.65zm-15.4 3.95l12.16-3.95-12.16-3.94z" stroke="#1a1a1a" stroke-width=".05" fill="#1a1a1a"/><use xlink:href="#d" transform="matrix(1,0,0,1,326.3518275372765,499.46209521068613) translate(0 15.9375)"/><path d="M332.85 570.73H287.5v-1h45.35zm121.38-.2H393v-1h61.23z" stroke="#1a1a1a" stroke-width=".05" fill="#1a1a1a"/><path d="M454.73 570.53h-.52v-1h.53z" fill="#1a1a1a"/><path d="M454.75 570.56h-.56v-1.05h.55zm-.5-1v.95h.45v-.94z" stroke="#1a1a1a" stroke-width=".05" fill="#1a1a1a"/><path d="M287 574.86l-14.26-4.63L287 565.6z" fill="#1a1a1a"/><path d="M287.5 575.55l-16.38-5.32 16.4-5.33zm-13.14-5.32l12.15 3.94v-7.9z" stroke="#1a1a1a" stroke-width=".05" fill="#1a1a1a"/><use xlink:href="#e" transform="matrix(1,0,0,1,332.85130320807593,559.550045650938) translate(0 15.9375)"/><path d="M875.23 199.9h300v200h-300z" stroke="#3a414a" fill="#fff"/><use xlink:href="#f" transform="matrix(1,0,0,1,887.2258640040402,211.89269643475245) translate(37.999999999999986 82.5)"/><use xlink:href="#g" transform="matrix(1,0,0,1,887.2258640040402,211.89269643475245) translate(71.33333333333334 111.65555555555555)"/><path d="M752.2 307.1h-35.97v-1h35.97zm106.14-.04h-20.1v-1h20.1z" stroke="#1a1a1a" stroke-width=".05" fill="#1a1a1a"/><path d="M716.24 307.1h-.5v-1h.5z" fill="#1a1a1a"/><path d="M716.26 307.12h-.56v-1.05h.56zm-.5-1v.95h.45v-.95z" stroke="#1a1a1a" stroke-width=".05" fill="#1a1a1a"/><path d="M873.1 306.56l-14.26 4.64v-9.27z" fill="#1a1a1a"/><path d="M874.73 306.56l-16.4 5.32v-10.64zm-15.4 3.95l12.16-3.94-12.16-3.95z" stroke="#1a1a1a" stroke-width=".05" fill="#1a1a1a"/><use xlink:href="#h" transform="matrix(1,0,0,1,752.1985202540402,295.9955089357925) translate(0 15.9375)"/><use xlink:href="#i" transform="matrix(1,0,0,1,752.1985202540402,295.9955089357925) translate(27.4609375 15.9375)"/><use xlink:href="#j" transform="matrix(1,0,0,1,752.1985202540402,295.9955089357925) translate(49.82421875 15.9375)"/><path d="M875.23 419.9h300v200h-300z" stroke="#3a414a" fill="#fff"/><use xlink:href="#k" transform="matrix(1,0,0,1,887.2258640040402,431.89269643475245) translate(11.3333333333333 82.5)"/><use xlink:href="#g" transform="matrix(1,0,0,1,887.2258640040402,431.89269643475245) translate(71.33333333333334 111.65555555555555)"/><path d="M752.2 520.58h-35.97v-1h35.97zm106.14-.2l-20.1.04v-1l20.1-.03z" stroke="#1a1a1a" stroke-width=".05" fill="#1a1a1a"/><path d="M716.24 520.58h-.5v-1h.5z" fill="#1a1a1a"/><path d="M716.26 520.6h-.56v-1.05h.56zm-.5-1v.95h.45v-.95z" stroke="#1a1a1a" stroke-width=".05" fill="#1a1a1a"/><path d="M873.1 519.9l-14.26 4.63v-9.27z" fill="#1a1a1a"/><path d="M874.73 519.9l-16.4 5.32v-10.65zm-15.4 3.94l12.16-3.95-12.16-3.95z" stroke="#1a1a1a" stroke-width=".05" fill="#1a1a1a"/><use xlink:href="#h" transform="matrix(1,0,0,1,752.1985202540402,509.40483342922914) translate(0 15.9375)"/><use xlink:href="#i" transform="matrix(1,0,0,1,752.1985202540402,509.40483342922914) translate(27.4609375 15.9375)"/><use xlink:href="#j" transform="matrix(1,0,0,1,752.1985202540402,509.40483342922914) translate(49.82421875 15.9375)"/><path d="M1219.92 259.16h-43.7v-1h43.7zm138.42-.07h-27.8v-1h27.8z" stroke="#1a1a1a" stroke-width=".05" fill="#1a1a1a"/><path d="M1176.24 259.16h-.5v-1h.5z" fill="#1a1a1a"/><path d="M1176.26 259.18h-.56v-1.05h.56zm-.5-1v.95h.45v-.95z" stroke="#1a1a1a" stroke-width=".05" fill="#1a1a1a"/><path d="M1373.1 258.6l-14.26 4.63v-9.28z" fill="#1a1a1a"/><path d="M1374.73 258.6l-16.4 5.3v-10.63zm-15.4 3.94l12.16-3.95-12.16-3.96z" stroke="#1a1a1a" stroke-width=".05" fill="#1a1a1a"/><use xlink:href="#l" transform="matrix(1,0,0,1,1219.9182468165402,248.0428019794075) translate(0 15.9375)"/><use xlink:href="#m" transform="matrix(1,0,0,1,1219.9182468165402,248.0428019794075) translate(76.15234375 15.9375)"/><path d="M1374.23 343.43v1h-43.32v-1zm-154.7-.05v1l-27.42-.02v-1z" stroke="#1a1a1a" stroke-width=".05" fill="#1a1a1a"/><path d="M1374.73 344.43h-.52v-1h.53z" fill="#1a1a1a"/><path d="M1374.75 344.46h-.56v-1.05h.55zm-.5-1v.95h.45v-.94z" stroke="#1a1a1a" stroke-width=".05" fill="#1a1a1a"/><path d="M1191.6 348.5l-14.26-4.64 14.27-4.64z" fill="#1a1a1a"/><path d="M1192.1 349.18l-16.37-5.32 16.38-5.32zm-13.14-5.32l12.15 3.95v-7.9z" stroke="#1a1a1a" stroke-width=".05" fill="#1a1a1a"/><g><use xlink:href="#h" transform="matrix(1,0,0,1,1219.5373874415402,333.31424026293655) translate(0 15.9375)"/><use xlink:href="#n" transform="matrix(1,0,0,1,1219.5373874415402,333.31424026293655) translate(27.4609375 15.9375)"/></g><path d="M1375.23 199.9h200v200h-200z" stroke="#3a414a" fill="#fff"/><g><use xlink:href="#o" transform="matrix(1,0,0,1,1387.2258640040402,211.89269643475245) translate(68 93.5)"/></g><path d="M455.23 140h260v60h-260z" stroke="#000" stroke-opacity="0" fill="#fff" fill-opacity="0"/><g><use xlink:href="#p" transform="matrix(1,0,0,1,460.2258640040402,145) translate(36.03515625 30.208333333333332)"/><use xlink:href="#q" transform="matrix(1,0,0,1,460.2258640040402,145) translate(96.61458333333333 30.208333333333332)"/></g><defs><path fill="#1a1a1a" d="M387-920c67-93 165-164 306-164 304 0 379 245 384 554 0 213-63 391-183 485-60 48-135 72-224 72-111 0-200-39-268-117v496l-224 25v-1487h195zm455 391c-5-204-25-382-211-382-111 0-180 81-229 151v494c45 67 107 116 209 118 75 0 133-30 172-91s59-157 59-290" id="r"/><path fill="#1a1a1a" d="M564-1084c261-3 421 114 421 354v471c0 82 21 112 80 133l-50 152C907 12 832-31 796-120 728-31 607 26 459 27c-204 4-349-130-347-328 0-111 45-194 130-257 110-81 314-97 523-90v-69c10-256-345-202-516-137l-55-158c111-42 235-70 370-72zM347-311c0 114 64 174 180 173 106-2 195-63 238-137v-233H641c-179-1-294 47-294 197" id="s"/><path fill="#1a1a1a" d="M1019-864c-123-36-243-19-321 68-56 57-99 139-131 244v392h213V0H188v-160h155v-737H188v-159h326l41 245c77-178 202-302 457-265 25 5 49 12 74 20zM888-667v-260l28-129h170l-38 389H888" id="t"/><path fill="#1a1a1a" d="M674-949c54-70 117-135 232-135 163 0 212 119 211 299V0H918v-754c-6-92 8-155-71-155-77 0-113 45-156 104V0H510v-754c-6-92 8-155-71-155-78 0-113 45-156 104V0H83v-1056h169l15 114c55-72 110-142 226-142 97 0 157 48 181 135" id="u"/><path fill="#1a1a1a" d="M247-258c77 61 182 113 315 113 147 0 277-78 211-215-12-20-36-39-72-56-79-39-264-73-347-117-95-50-164-112-164-248 0-218 191-299 422-303 173-2 304 52 401 122l-94 141c-80-51-172-94-301-93-117 0-200 25-200 117 0 71 43 88 105 115 84 35 262 72 343 118 96 50 165 122 162 263-5 244-221 321-466 328-192 3-333-63-434-149" id="v"/><path fill="#1a1a1a" d="M599 27c-115 0-193-80-193-194 0-115 79-193 193-193 115 0 194 78 194 193S715 27 599 27" id="w"/><path fill="#1a1a1a" d="M783-154c79 0 144-22 196-50l81 148C987-9 871 28 752 27c-231 5-375-130-375-347v-573H142v-163h235v-236l224-27v263h356l-25 163H601v571c2 119 57 168 182 168" id="x"/><path fill="#1a1a1a" d="M123-528c0-328 154-556 478-556 327 0 476 224 476 554 0 329-151 557-477 557-327 0-477-224-477-555zm659-290c-77-117-285-117-363 0-72 108-72 471-1 579 77 118 287 118 364 0 71-108 71-471 0-579" id="y"/><path fill="#1a1a1a" d="M754 27c-209 3-336-128-336-335v-1007H99v-165h543v1192c-12 166 220 149 327 99l57 156C957 1 863 29 754 27" id="z"/><g id="a"><use transform="matrix(0.011111111111111112,0,0,0.011111111111111112,0,0)" xlink:href="#r"/><use transform="matrix(0.011111111111111112,0,0,0.011111111111111112,13.333333333333334,0)" xlink:href="#s"/><use transform="matrix(0.011111111111111112,0,0,0.011111111111111112,26.666666666666668,0)" xlink:href="#t"/><use transform="matrix(0.011111111111111112,0,0,0.011111111111111112,40,0)" xlink:href="#s"/><use transform="matrix(0.011111111111111112,0,0,0.011111111111111112,53.333333333333336,0)" xlink:href="#u"/><use transform="matrix(0.011111111111111112,0,0,0.011111111111111112,66.66666666666667,0)" xlink:href="#v"/><use transform="matrix(0.011111111111111112,0,0,0.011111111111111112,80,0)" xlink:href="#w"/><use transform="matrix(0.011111111111111112,0,0,0.011111111111111112,93.33333333333334,0)" xlink:href="#x"/><use transform="matrix(0.011111111111111112,0,0,0.011111111111111112,106.66666666666666,0)" xlink:href="#y"/><use transform="matrix(0.011111111111111112,0,0,0.011111111111111112,119.99999999999999,0)" xlink:href="#u"/><use transform="matrix(0.011111111111111112,0,0,0.011111111111111112,133.33333333333331,0)" xlink:href="#z"/></g><path fill="#1a1a1a" d="M404-523c0 221 78 366 283 366 111 0 189-44 260-92l104 144C968-33 829 27 680 27c-336-6-514-214-514-550 0-334 183-561 518-561 159 0 273 50 366 127L947-816c-72-49-150-88-259-88-195 0-284 153-284 381" id="A"/><path fill="#1a1a1a" d="M649-913c-121 5-192 82-247 155V0H178v-1056h193l17 137c74-93 191-162 341-165 198-2 295 118 295 314V0H800v-659c-2-147-5-257-151-254" id="B"/><path fill="#1a1a1a" d="M415-1169c9-225 172-331 405-336 128-1 226 24 315 61l-66 155c-65-27-140-41-227-42-130 1-204 41-204 164v187h353l-24 165H638V0H415v-815H175v-165h240v-189" id="C"/><path fill="#1a1a1a" d="M755-1056v892h287V0H215v-164h316v-728H225v-164h530zm-302-377c-2-80 64-140 146-140 84 0 148 59 147 140 1 80-63 142-147 142-82 0-148-62-146-142" id="D"/><path fill="#1a1a1a" d="M580-1083c217 0 350-38 487-107l60 186c-88 30-187 34-307 35 112 51 191 121 191 268 0 235-171 354-416 357-60 0-99-4-145-17-24 16-47 49-47 87 2 116 199 79 316 79 151 0 271 56 335 143 94 134 47 317-86 396-92 55-221 87-392 87-285 0-468-59-471-326h201c1 148 113 161 272 163 125 0 217-16 272-72 20-23 29-50 29-82C873-43 660-23 492-20S203-88 203-223c0-89 55-151 118-191-113-61-182-138-182-295 0-247 187-374 441-374zm209 370c0-142-67-216-207-216-138-3-215 86-215 218 0 134 79 224 218 221 135 0 205-85 204-223" id="E"/><g id="b"><use transform="matrix(0.011111111111111112,0,0,0.011111111111111112,0,0)" xlink:href="#A"/><use transform="matrix(0.011111111111111112,0,0,0.011111111111111112,13.333333333333334,0)" xlink:href="#y"/><use transform="matrix(0.011111111111111112,0,0,0.011111111111111112,26.666666666666668,0)" xlink:href="#B"/><use transform="matrix(0.011111111111111112,0,0,0.011111111111111112,40,0)" xlink:href="#C"/><use transform="matrix(0.011111111111111112,0,0,0.011111111111111112,53.333333333333336,0)" xlink:href="#D"/><use transform="matrix(0.011111111111111112,0,0,0.011111111111111112,66.66666666666667,0)" xlink:href="#E"/><use transform="matrix(0.011111111111111112,0,0,0.011111111111111112,80,0)" xlink:href="#w"/><use transform="matrix(0.011111111111111112,0,0,0.011111111111111112,93.33333333333334,0)" xlink:href="#x"/><use transform="matrix(0.011111111111111112,0,0,0.011111111111111112,106.66666666666666,0)" xlink:href="#y"/><use transform="matrix(0.011111111111111112,0,0,0.011111111111111112,119.99999999999999,0)" xlink:href="#u"/><use transform="matrix(0.011111111111111112,0,0,0.011111111111111112,133.33333333333331,0)" xlink:href="#z"/></g><path fill="#1a1a1a" d="M1100-100C970-30 836 28 636 27 231 17 76-268 74-692c1-341 138-565 372-670 132-61 340-59 466-4 63 28 121 67 175 117l-130 135c-76-68-147-113-275-113-279 0-365 236-365 536s52 528 330 537c92 0 165-24 228-58v-380H641l-25-177h484v669" id="F"/><path fill="#1a1a1a" d="M614-1084c339 7 481 265 450 628H364c11 188 101 309 288 309 121 0 196-41 277-92l97 134C935-31 801 27 641 27c-337-5-509-218-509-554 0-221 87-392 224-483 72-49 158-74 258-74zm238 475c-3-178-70-309-236-309-167 0-243 127-253 309h489" id="G"/><path fill="#1a1a1a" d="M592-669c187-2 295-82 293-276 1-187-113-259-296-261H423v537h169zm-18-711c323 0 555 121 555 433 0 325-218 450-539 455H423V0H191v-1380h383" id="H"/><g id="c"><use transform="matrix(0.011111111111111112,0,0,0.011111111111111112,0,0)" xlink:href="#F"/><use transform="matrix(0.011111111111111112,0,0,0.011111111111111112,13.333333333333334,0)" xlink:href="#G"/><use transform="matrix(0.011111111111111112,0,0,0.011111111111111112,26.666666666666668,0)" xlink:href="#x"/><use transform="matrix(0.011111111111111112,0,0,0.011111111111111112,40,0)" xlink:href="#H"/><use transform="matrix(0.011111111111111112,0,0,0.011111111111111112,53.333333333333336,0)" xlink:href="#s"/><use transform="matrix(0.011111111111111112,0,0,0.011111111111111112,66.66666666666667,0)" xlink:href="#t"/><use transform="matrix(0.011111111111111112,0,0,0.011111111111111112,80,0)" xlink:href="#s"/><use transform="matrix(0.011111111111111112,0,0,0.011111111111111112,93.33333333333334,0)" xlink:href="#u"/><use transform="matrix(0.011111111111111112,0,0,0.011111111111111112,106.66666666666666,0)" xlink:href="#G"/><use transform="matrix(0.011111111111111112,0,0,0.011111111111111112,119.99999999999999,0)" xlink:href="#x"/><use transform="matrix(0.011111111111111112,0,0,0.011111111111111112,133.33333333333331,0)" xlink:href="#G"/><use transform="matrix(0.011111111111111112,0,0,0.011111111111111112,146.66666666666666,0)" xlink:href="#t"/><use transform="matrix(0.011111111111111112,0,0,0.011111111111111112,160,0)" xlink:href="#v"/></g><path fill="#1a1a1a" d="M678-717c-63-19-137-80-213-34-49 30-102 79-102 147v452C366-48 477-50 563-29c14 3 12 29 0 29H62c-12-1-14-26 0-29 70-16 145-29 145-123v-529c-2-73-93-59-143-85-8-12 0-30 12-35 91-40 179-85 270-126 11 0 17 8 17 24v162c-3 17 16 13 20 2 39-51 79-117 133-153 67-44 156 13 210 36 42 18 8 61 0 90-10 19-25 46-48 49" id="I"/><path fill="#1a1a1a" d="M829-187C738-86 627 27 450 27 259 27 152-102 98-248c-67-182-2-404 82-516 80-106 223-191 412-155 134 26 191 150 236 265 12 30 16 77-17 77H231c-37 47-14 172 0 235C264-192 376-86 555-86c115 0 175-74 247-123 14-5 19 19 27 22zM457-858c-125 0-190 95-215 203-4 17 3 31 18 31h367c17 0 26-8 26-23-4-94-56-158-121-193-24-12-48-18-75-18" id="J"/><path fill="#1a1a1a" d="M324 27C262 30 212 8 162-6c-32 2-32 40-73 33-14-66-24-166-24-245 0-35 47-2 45 18 40 94 92 172 222 175 121 3 178-154 109-246-88-118-265-157-343-287-42-69-36-189 15-240 65-113 271-174 422-87 35 35 11 130 20 201 3 27-37 30-39 5-36-94-109-211-244-165-54 18-81 76-82 152 35 102 140 133 222 188 96 64 198 128 198 281C610-59 487 19 324 27" id="K"/><path fill="#1a1a1a" d="M344 4c-23-4-21 19-21 37v427c3 104 114 102 200 123 14 3 12 29 0 29H22c-12-1-14-26 0-29 70-16 145-29 145-123V-731c-2-73-93-59-143-85-8-12 0-30 12-35 91-40 179-85 270-126 11 0 17 8 17 24v127c1 14 22 13 30 4 95-55 170-104 301-104 166 0 237 133 288 259 38 94 54 228 19 337C907-161 793-41 623 13c-90 29-191 7-279-9zm208-51c212 0 297-186 268-415-24-186-88-360-283-360-93 0-161 29-214 78 2 200-5 410 4 603 36 67 134 94 225 94" id="L"/><path fill="#1a1a1a" d="M210-114c-103-99-185-338-98-524 74-158 211-291 430-291 228 0 374 126 450 287 53 112 52 262 4 377C925-97 783 27 551 27c-150 0-261-64-341-141zm296-751c-240 0-303 272-244 513C303-185 390-27 591-27c191 0 270-158 270-349 0-177-68-314-161-406-46-46-108-83-194-83" id="M"/><path fill="#1a1a1a" d="M796-162c0-113 6-239 6-364 0-163-25-330-197-304-81 12-138 49-216 88-10 5-25 14-26 28v558c-3 95 71 110 145 126 14 3 13 30 0 30H62c-13-1-14-27 0-30 71-16 145-30 145-126v-574c-2-73-93-60-143-86-8-12 0-29 12-34 91-40 179-85 270-126 11 0 17 8 17 24v156c3 15 14 11 24 6l219-110c56-28 162-42 218-6 186 119 129 466 129 750 0 102 98 108 181 126 14 3 13 30 0 30H652c-13-1-14-27 0-30 73-16 144-33 144-132" id="N"/><g id="d"><use transform="matrix(0.009765625,0,0,0.009765625,0,0)" xlink:href="#I"/><use transform="matrix(0.009765625,0,0,0.009765625,7.294921875,0)" xlink:href="#J"/><use transform="matrix(0.009765625,0,0,0.009765625,16.376953125,0)" xlink:href="#K"/><use transform="matrix(0.009765625,0,0,0.009765625,23.06640625,0)" xlink:href="#L"/><use transform="matrix(0.009765625,0,0,0.009765625,33.7109375,0)" xlink:href="#M"/><use transform="matrix(0.009765625,0,0,0.009765625,44.521484375,0)" xlink:href="#N"/><use transform="matrix(0.009765625,0,0,0.009765625,55.888671875,0)" xlink:href="#K"/><use transform="matrix(0.009765625,0,0,0.009765625,62.578125,0)" xlink:href="#J"/></g><path fill="#1a1a1a" d="M917-935c7 1 16-3 16 6V468c-3 93 73 107 145 123 14 3 12 29 0 29H542c-12-1-14-26 0-29 93-23 235-13 235-123v-568c0-5 0-6-4-6C648-46 517 82 341 8 189-56 100-219 100-428c0-232 131-379 294-459 132-64 320-44 428 24 49-1 62-55 95-72zM777-626c-3-155-86-243-235-243-162 0-233 130-270 269-26 96-36 233 6 321C327-175 413-89 552-84c88 3 176-41 225-88v-454" id="O"/><path fill="#1a1a1a" d="M783 21c-18 12-29 4-29-19v-96c-2-3-13-6-16-2C648-54 566 3 460 23 350 44 238 8 188-56c-16-19-24-43-24-70v-610c-7-49-56-80-108-80-21 0-21-36 0-41 86-19 164-52 254-70 7 0 10 6 10 17v691C333-117 430-72 537-72c91 0 167-39 217-92v-572c-7-49-56-80-108-80-21 0-21-36 0-41 86-19 164-52 254-70 5-1 7 5 10 9v721c8 57 27 81 90 82l58-4c11 9 6 28-9 30" id="P"/><path fill="#1a1a1a" d="M368 27c-143 0-217-98-217-239v-557c-43-2-127 14-99-41 81-55 147-122 208-198 17-21 41-55 69-55 8 0 12 5 12 14 0 46-23 88-34 131 0 13 2 19 16 19h255c52 3 33 72 44 124 0 4-3 6-8 6H313c-7 0-6 2-6 9v552c2 69 26 124 89 128 82 5 123-39 170-72 12-9 25-14 38-14 16 4 6 33 0 41C553-59 481 27 368 27" id="Q"/><g id="e"><use transform="matrix(0.009765625,0,0,0.009765625,0,0)" xlink:href="#I"/><use transform="matrix(0.009765625,0,0,0.009765625,7.294921875,0)" xlink:href="#J"/><use transform="matrix(0.009765625,0,0,0.009765625,16.376953125,0)" xlink:href="#O"/><use transform="matrix(0.009765625,0,0,0.009765625,27.080078125,0)" xlink:href="#P"/><use transform="matrix(0.009765625,0,0,0.009765625,38.056640625,0)" xlink:href="#J"/><use transform="matrix(0.009765625,0,0,0.009765625,47.138671875,0)" xlink:href="#K"/><use transform="matrix(0.009765625,0,0,0.009765625,53.828125,0)" xlink:href="#Q"/></g><path fill="#1a1a1a" d="M599-158c190 0 246-133 246-337v-885h233v927c-7 299-177 480-479 480-306 0-477-180-477-480v-927h232v885c2 204 54 337 245 337" id="R"/><path fill="#1a1a1a" d="M187-534v-184h826v184H187" id="S"/><path fill="#1a1a1a" d="M532-1084c122 1 204 47 266 115v-536l224 25V0H825l-16-130C745-41 653 27 512 27c-301 0-392-248-397-555-1-215 71-391 193-484 62-48 137-72 224-72zm266 289c-46-65-107-115-207-117-75 0-130 35-176 94-68 87-79 376-37 510 30 97 82 163 193 163 113 0 179-79 227-150v-500" id="T"/><path fill="#1a1a1a" d="M692-1084c304 0 388 244 393 554 0 215-66 392-189 485-62 48-140 72-231 72-118 0-211-44-278-131L375 0H178v-1480l224-25v575c65-83 155-154 290-154zM402-266c43 66 107 120 207 122 76 0 135-31 177-93s62-159 62-292c-4-205-31-382-217-382-111 0-180 81-229 151v494" id="U"/><g id="f"><use transform="matrix(0.011111111111111112,0,0,0.011111111111111112,0,0)" xlink:href="#R"/><use transform="matrix(0.011111111111111112,0,0,0.011111111111111112,13.333333333333334,0)" xlink:href="#v"/><use transform="matrix(0.011111111111111112,0,0,0.011111111111111112,26.666666666666668,0)" xlink:href="#G"/><use transform="matrix(0.011111111111111112,0,0,0.011111111111111112,40,0)" xlink:href="#t"/><use transform="matrix(0.011111111111111112,0,0,0.011111111111111112,53.333333333333336,0)" xlink:href="#S"/><use transform="matrix(0.011111111111111112,0,0,0.011111111111111112,66.66666666666667,0)" xlink:href="#u"/><use transform="matrix(0.011111111111111112,0,0,0.011111111111111112,80,0)" xlink:href="#y"/><use transform="matrix(0.011111111111111112,0,0,0.011111111111111112,93.33333333333334,0)" xlink:href="#T"/><use transform="matrix(0.011111111111111112,0,0,0.011111111111111112,106.66666666666666,0)" xlink:href="#D"/><use transform="matrix(0.011111111111111112,0,0,0.011111111111111112,119.99999999999999,0)" xlink:href="#C"/><use transform="matrix(0.011111111111111112,0,0,0.011111111111111112,133.33333333333331,0)" xlink:href="#D"/><use transform="matrix(0.011111111111111112,0,0,0.011111111111111112,146.66666666666666,0)" xlink:href="#s"/><use transform="matrix(0.011111111111111112,0,0,0.011111111111111112,160,0)" xlink:href="#U"/><use transform="matrix(0.011111111111111112,0,0,0.011111111111111112,173.33333333333334,0)" xlink:href="#z"/><use transform="matrix(0.011111111111111112,0,0,0.011111111111111112,186.66666666666669,0)" xlink:href="#G"/></g><g id="g"><use transform="matrix(0.011111111111111112,0,0,0.011111111111111112,0,0)" xlink:href="#r"/><use transform="matrix(0.011111111111111112,0,0,0.011111111111111112,13.333333333333334,0)" xlink:href="#s"/><use transform="matrix(0.011111111111111112,0,0,0.011111111111111112,26.666666666666668,0)" xlink:href="#t"/><use transform="matrix(0.011111111111111112,0,0,0.011111111111111112,40,0)" xlink:href="#s"/><use transform="matrix(0.011111111111111112,0,0,0.011111111111111112,53.333333333333336,0)" xlink:href="#u"/><use transform="matrix(0.011111111111111112,0,0,0.011111111111111112,66.66666666666667,0)" xlink:href="#G"/><use transform="matrix(0.011111111111111112,0,0,0.011111111111111112,80,0)" xlink:href="#x"/><use transform="matrix(0.011111111111111112,0,0,0.011111111111111112,93.33333333333334,0)" xlink:href="#G"/><use transform="matrix(0.011111111111111112,0,0,0.011111111111111112,106.66666666666666,0)" xlink:href="#t"/><use transform="matrix(0.011111111111111112,0,0,0.011111111111111112,119.99999999999999,0)" xlink:href="#v"/></g><path fill="#333" d="M324 27C262 30 212 8 162-6c-32 2-32 40-73 33-14-66-24-166-24-245 0-35 47-2 45 18 40 94 92 172 222 175 121 3 178-154 109-246-88-118-265-157-343-287-42-69-36-189 15-240 65-113 271-174 422-87 35 35 11 130 20 201 3 27-37 30-39 5-36-94-109-211-244-165-54 18-81 76-82 152 35 102 140 133 222 188 96 64 198 128 198 281C610-59 487 19 324 27" id="V"/><path fill="#333" d="M829-187C738-86 627 27 450 27 259 27 152-102 98-248c-67-182-2-404 82-516 80-106 223-191 412-155 134 26 191 150 236 265 12 30 16 77-17 77H231c-37 47-14 172 0 235C264-192 376-86 555-86c115 0 175-74 247-123 14-5 19 19 27 22zM457-858c-125 0-190 95-215 203-4 17 3 31 18 31h367c17 0 26-8 26-23-4-94-56-158-121-193-24-12-48-18-75-18" id="W"/><path fill="#333" d="M368 27c-143 0-217-98-217-239v-557c-43-2-127 14-99-41 81-55 147-122 208-198 17-21 41-55 69-55 8 0 12 5 12 14 0 46-23 88-34 131 0 13 2 19 16 19h255c52 3 33 72 44 124 0 4-3 6-8 6H313c-7 0-6 2-6 9v552c2 69 26 124 89 128 82 5 123-39 170-72 12-9 25-14 38-14 16 4 6 33 0 41C553-59 481 27 368 27" id="X"/><g id="h"><use transform="matrix(0.009765625,0,0,0.009765625,0,0)" xlink:href="#V"/><use transform="matrix(0.009765625,0,0,0.009765625,6.689453125,0)" xlink:href="#W"/><use transform="matrix(0.009765625,0,0,0.009765625,15.771484375,0)" xlink:href="#X"/></g><path fill="#333" d="M70 0c-12-1-14-26 0-29 70-16 145-29 145-123v-529c-2-73-93-59-143-85-8-12 0-30 12-35 91-40 179-85 270-126 11 0 17 8 17 24v751c-3 93 73 107 145 123 14 3 12 29 0 29H70zm212-1208c-59 3-108-38-108-99s46-103 106-100c56 3 94 44 94 100 0 57-36 96-92 99" id="Y"/><path fill="#333" d="M796-162c0-113 6-239 6-364 0-163-25-330-197-304-81 12-138 49-216 88-10 5-25 14-26 28v558c-3 95 71 110 145 126 14 3 13 30 0 30H62c-13-1-14-27 0-30 71-16 145-30 145-126v-574c-2-73-93-60-143-86-8-12 0-29 12-34 91-40 179-85 270-126 11 0 17 8 17 24v156c3 15 14 11 24 6l219-110c56-28 162-42 218-6 186 119 129 466 129 750 0 102 98 108 181 126 14 3 13 30 0 30H652c-13-1-14-27 0-30 73-16 144-33 144-132" id="Z"/><g id="i"><use transform="matrix(0.009765625,0,0,0.009765625,0,0)" xlink:href="#Y"/><use transform="matrix(0.009765625,0,0,0.009765625,5.625,0)" xlink:href="#Z"/></g><path fill="#333" d="M830-218c19-25 46 8 28 32C770-72 658 27 473 27 281 27 171-92 117-236c-19-50-27-104-27-159 1-348 161-531 503-533 128-1 245 16 262 121 8 49-35 70-81 70-122 0-138-172-284-117-145 55-228 180-228 375 0 231 94 395 325 395 118 0 190-65 243-134" id="aa"/><path fill="#333" d="M476-29c14 3 12 29 0 29H30c-12-1-14-26 0-29 70-16 145-29 145-123v-1247c-2-73-93-59-143-85-8-12-1-32 12-35l255-120c14-10 32-7 32 18v1469c-3 93 73 107 145 123" id="ab"/><path fill="#333" d="M850-141c17 0 10 35 6 43-36 35-83 62-123 93-27 21-94 47-132 21-40-27-54-86-73-131C460-68 409-3 320 22c-11 3-25 3-40 3C157 25 70-53 70-179c0-109 69-142 152-179 84-38 244-58 308-121 6-63 2-137 2-205 0-101-53-174-155-174-84 0-142 67-121 162-37 27-100 53-148 70-15 1-16-21-16-34 0-111 91-173 165-220 89-56 244-69 328 5 51 44 103 94 103 183v527c-1 36 43 57 80 57 39 0 55-23 82-33zM243-266C188-162 281-37 400-86c54-22 132-49 132-113v-203c0-9-5-13-12-10L288-304c-17 13-35 20-45 38" id="ac"/><g id="j"><use transform="matrix(0.009765625,0,0,0.009765625,0,0)" xlink:href="#aa"/><use transform="matrix(0.009765625,0,0,0.009765625,9.12109375,0)" xlink:href="#ab"/><use transform="matrix(0.009765625,0,0,0.009765625,14.208984375,0)" xlink:href="#ac"/><use transform="matrix(0.009765625,0,0,0.009765625,22.8515625,0)" xlink:href="#V"/><use transform="matrix(0.009765625,0,0,0.009765625,29.541015625,0)" xlink:href="#V"/></g><path fill="#1a1a1a" d="M884-205c-46-346-31-781-33-1175h206V0H755L316-1174c44 353 32 776 33 1174H143v-1380h301" id="ad"/><path fill="#1a1a1a" d="M482 27C280 30 178-92 178-290v-766h224v738c0 118 41 172 151 174 107-1 202-77 245-148v-764h224V0H829l-14-135C749-42 626 24 482 27" id="ae"/><g id="k"><use transform="matrix(0.011111111111111112,0,0,0.011111111111111112,0,0)" xlink:href="#ad"/><use transform="matrix(0.011111111111111112,0,0,0.011111111111111112,13.333333333333334,0)" xlink:href="#y"/><use transform="matrix(0.011111111111111112,0,0,0.011111111111111112,26.666666666666668,0)" xlink:href="#B"/><use transform="matrix(0.011111111111111112,0,0,0.011111111111111112,40,0)" xlink:href="#S"/><use transform="matrix(0.011111111111111112,0,0,0.011111111111111112,53.333333333333336,0)" xlink:href="#ae"/><use transform="matrix(0.011111111111111112,0,0,0.011111111111111112,66.66666666666667,0)" xlink:href="#v"/><use transform="matrix(0.011111111111111112,0,0,0.011111111111111112,80,0)" xlink:href="#G"/><use transform="matrix(0.011111111111111112,0,0,0.011111111111111112,93.33333333333334,0)" xlink:href="#t"/><use transform="matrix(0.011111111111111112,0,0,0.011111111111111112,106.66666666666666,0)" xlink:href="#S"/><use transform="matrix(0.011111111111111112,0,0,0.011111111111111112,119.99999999999999,0)" xlink:href="#u"/><use transform="matrix(0.011111111111111112,0,0,0.011111111111111112,133.33333333333331,0)" xlink:href="#y"/><use transform="matrix(0.011111111111111112,0,0,0.011111111111111112,146.66666666666666,0)" xlink:href="#T"/><use transform="matrix(0.011111111111111112,0,0,0.011111111111111112,160,0)" xlink:href="#D"/><use transform="matrix(0.011111111111111112,0,0,0.011111111111111112,173.33333333333334,0)" xlink:href="#C"/><use transform="matrix(0.011111111111111112,0,0,0.011111111111111112,186.66666666666669,0)" xlink:href="#D"/><use transform="matrix(0.011111111111111112,0,0,0.011111111111111112,200.00000000000006,0)" xlink:href="#s"/><use transform="matrix(0.011111111111111112,0,0,0.011111111111111112,213.33333333333337,0)" xlink:href="#U"/><use transform="matrix(0.011111111111111112,0,0,0.011111111111111112,226.6666666666667,0)" xlink:href="#z"/><use transform="matrix(0.011111111111111112,0,0,0.011111111111111112,240.00000000000006,0)" xlink:href="#G"/></g><path fill="#333" d="M1015-900c15 2 14 33-1 34-30 9-73 9-94 32-31 33-55 81-73 126C741-439 668-230 566 16c-10 25-62 7-93 11-12 2-18-23-22-31L186-721c-28-69-76-126-164-136-12-1-22-8-22-23 0-13 8-20 24-20h445c7-2 8 12 8 17-2 30-42 25-73 25-53 0-89 29-71 84 64 191 133 384 209 570 11 27 31-10 37-25 69-189 134-328 190-514 6-67-37-105-97-110-27-2-57-2-58-30-1-11 12-17 22-17h379" id="af"/><path fill="#333" d="M783 21c-18 12-29 4-29-19v-96c-2-3-13-6-16-2C648-54 566 3 460 23 350 44 238 8 188-56c-16-19-24-43-24-70v-610c-7-49-56-80-108-80-21 0-21-36 0-41 86-19 164-52 254-70 7 0 10 6 10 17v691C333-117 430-72 537-72c91 0 167-39 217-92v-572c-7-49-56-80-108-80-21 0-21-36 0-41 86-19 164-52 254-70 5-1 7 5 10 9v721c8 57 27 81 90 82l58-4c11 9 6 28-9 30" id="ag"/><path fill="#333" d="M310-116c-3 5-8 20 3 20h385c94-5 109-94 155-146 10-11 36-19 38 0-28 75-55 149-83 224-3 8-9 17-19 18H84C59 3 56-29 68-45c173-239 346-476 520-714 5-7 8-15 8-25-93-17-224-9-336-9-107 0-112 112-145 188-5 13-19 20-29 11l57-334c2-12 9-12 21-12 24 7 23 43 51 45 198 14 413 8 625 2 21 10 2 48-6 59-176 238-350 478-524 718" id="ah"/><g id="l"><use transform="matrix(0.009765625,0,0,0.009765625,0,0)" xlink:href="#af"/><use transform="matrix(0.009765625,0,0,0.009765625,10.1171875,0)" xlink:href="#Y"/><use transform="matrix(0.009765625,0,0,0.009765625,15.7421875,0)" xlink:href="#V"/><use transform="matrix(0.009765625,0,0,0.009765625,22.431640625,0)" xlink:href="#ag"/><use transform="matrix(0.009765625,0,0,0.009765625,33.408203125,0)" xlink:href="#ac"/><use transform="matrix(0.009765625,0,0,0.009765625,42.05078125,0)" xlink:href="#ab"/><use transform="matrix(0.009765625,0,0,0.009765625,47.138671875,0)" xlink:href="#Y"/><use transform="matrix(0.009765625,0,0,0.009765625,52.763671875,0)" xlink:href="#ah"/><use transform="matrix(0.009765625,0,0,0.009765625,61.69921875,0)" xlink:href="#W"/></g><path fill="#333" d="M210-114c-103-99-185-338-98-524 74-158 211-291 430-291 228 0 374 126 450 287 53 112 52 262 4 377C925-97 783 27 551 27c-150 0-261-64-341-141zm296-751c-240 0-303 272-244 513C303-185 390-27 591-27c191 0 270-158 270-349 0-177-68-314-161-406-46-46-108-83-194-83" id="ai"/><path fill="#333" d="M344 4c-23-4-21 19-21 37v427c3 104 114 102 200 123 14 3 12 29 0 29H22c-12-1-14-26 0-29 70-16 145-29 145-123V-731c-2-73-93-59-143-85-8-12 0-30 12-35 91-40 179-85 270-126 11 0 17 8 17 24v127c1 14 22 13 30 4 95-55 170-104 301-104 166 0 237 133 288 259 38 94 54 228 19 337C907-161 793-41 623 13c-90 29-191 7-279-9zm208-51c212 0 297-186 268-415-24-186-88-360-283-360-93 0-161 29-214 78 2 200-5 410 4 603 36 67 134 94 225 94" id="aj"/><g id="m"><use transform="matrix(0.009765625,0,0,0.009765625,0,0)" xlink:href="#ai"/><use transform="matrix(0.009765625,0,0,0.009765625,10.810546875,0)" xlink:href="#aj"/><use transform="matrix(0.009765625,0,0,0.009765625,21.455078125,0)" xlink:href="#X"/><use transform="matrix(0.009765625,0,0,0.009765625,27.7734375,0)" xlink:href="#V"/></g><path fill="#333" d="M678-717c-63-19-137-80-213-34-49 30-102 79-102 147v452C366-48 477-50 563-29c14 3 12 29 0 29H62c-12-1-14-26 0-29 70-16 145-29 145-123v-529c-2-73-93-59-143-85-8-12 0-30 12-35 91-40 179-85 270-126 11 0 17 8 17 24v162c-3 17 16 13 20 2 39-51 79-117 133-153 67-44 156 13 210 36 42 18 8 61 0 90-10 19-25 46-48 49" id="ak"/><path fill="#333" d="M1380-162c0-113 6-239 6-364 0-163-25-330-197-304-81 12-138 49-216 88-10 5-25 14-26 28v558c-3 95 71 110 145 126 14 3 13 30 0 30H646c-13-1-14-27 0-30 71-16 145-30 145-126v-498c-2-111-73-187-194-177-98 8-185 69-244 123v552c-3 95 71 110 145 126 14 3 13 30 0 30H52c-13-1-14-27 0-30 70-16 145-29 145-124v-576c-2-73-93-60-143-86-8-12 0-29 12-34 91-40 179-85 270-126 11 0 17 8 17 24v166c3 9 14 6 22 2 110-54 197-138 351-143 107-4 156 55 190 125 9 20 31 24 55 12l219-110c56-28 162-42 218-6 186 119 129 466 129 750 0 102 98 108 181 126 14 3 13 30 0 30h-482c-13-1-14-27 0-30 73-16 144-33 144-132" id="al"/><g id="n"><use transform="matrix(0.009765625,0,0,0.009765625,0,0)" xlink:href="#aj"/><use transform="matrix(0.009765625,0,0,0.009765625,10.64453125,0)" xlink:href="#ac"/><use transform="matrix(0.009765625,0,0,0.009765625,19.287109375,0)" xlink:href="#ak"/><use transform="matrix(0.009765625,0,0,0.009765625,26.58203125,0)" xlink:href="#ac"/><use transform="matrix(0.009765625,0,0,0.009765625,35.224609375,0)" xlink:href="#al"/><use transform="matrix(0.009765625,0,0,0.009765625,52.138671875,0)" xlink:href="#W"/><use transform="matrix(0.009765625,0,0,0.009765625,61.220703125,0)" xlink:href="#X"/><use transform="matrix(0.009765625,0,0,0.009765625,67.5390625,0)" xlink:href="#W"/><use transform="matrix(0.009765625,0,0,0.009765625,76.62109375,0)" xlink:href="#ak"/></g><path fill="#1a1a1a" d="M1015-1380v177H717v1025h298V0H185v-178h298v-1025H185v-177h830" id="am"/><g id="o"><use transform="matrix(0.011111111111111112,0,0,0.011111111111111112,0,0)" xlink:href="#F"/><use transform="matrix(0.011111111111111112,0,0,0.011111111111111112,13.333333333333334,0)" xlink:href="#R"/><use transform="matrix(0.011111111111111112,0,0,0.011111111111111112,26.666666666666668,0)" xlink:href="#am"/></g><path fill="#3a414a" d="M1461-581c-4 395-204 608-600 608-300 0-527-108-622-324-20-45-28-96-28-153v-800c-6-87-77-116-167-120-13 0-6-21-8-32 0-5 2-8 7-8h542c13 0 6 20 8 32 0 4-2 9-8 8-103-1-180 29-179 134v716C418-231 585-71 873-71c222 0 377-92 449-247 25-54 37-115 37-185v-636c11-155-58-235-211-231-13 0-6-21-8-32 0-5 3-8 8-8h492c12 0 12 37 0 40-110-4-179 42-179 134v655" id="an"/><path fill="#3a414a" d="M344 4c-23-4-21 19-21 37v427c3 104 114 102 200 123 14 3 12 29 0 29H22c-12-1-14-26 0-29 70-16 145-29 145-123V-731c-2-73-93-59-143-85-8-12 0-30 12-35 91-40 179-85 270-126 11 0 17 8 17 24v127c1 14 22 13 30 4 95-55 170-104 301-104 166 0 237 133 288 259 38 94 54 228 19 337C907-161 793-41 623 13c-90 29-191 7-279-9zm208-51c212 0 297-186 268-415-24-186-88-360-283-360-93 0-161 29-214 78 2 200-5 410 4 603 36 67 134 94 225 94" id="ao"/><path fill="#3a414a" d="M210-114c-103-99-185-338-98-524 74-158 211-291 430-291 228 0 374 126 450 287 53 112 52 262 4 377C925-97 783 27 551 27c-150 0-261-64-341-141zm296-751c-240 0-303 272-244 513C303-185 390-27 591-27c191 0 270-158 270-349 0-177-68-314-161-406-46-46-108-83-194-83" id="ap"/><path fill="#3a414a" d="M796-162c0-113 6-239 6-364 0-163-25-330-197-304-81 12-138 49-216 88-10 5-25 14-26 28v558c-3 95 71 110 145 126 14 3 13 30 0 30H62c-13-1-14-27 0-30 71-16 145-30 145-126v-574c-2-73-93-60-143-86-8-12 0-29 12-34 91-40 179-85 270-126 11 0 17 8 17 24v156c3 15 14 11 24 6l219-110c56-28 162-42 218-6 186 119 129 466 129 750 0 102 98 108 181 126 14 3 13 30 0 30H652c-13-1-14-27 0-30 73-16 144-33 144-132" id="aq"/><g id="p"><use transform="matrix(0.010850694444444444,0,0,0.010850694444444444,0,0)" xlink:href="#an"/><use transform="matrix(0.010850694444444444,0,0,0.010850694444444444,18.14236111111111,0)" xlink:href="#ao"/><use transform="matrix(0.010850694444444444,0,0,0.010850694444444444,29.96961805555556,0)" xlink:href="#ap"/><use transform="matrix(0.010850694444444444,0,0,0.010850694444444444,41.98133680555556,0)" xlink:href="#aq"/></g><path fill="#3a414a" d="M70 0c-12-1-14-26 0-29 70-16 145-29 145-123v-529c-2-73-93-59-143-85-8-12 0-30 12-35 91-40 179-85 270-126 11 0 17 8 17 24v751c-3 93 73 107 145 123 14 3 12 29 0 29H70zm212-1208c-59 3-108-38-108-99s46-103 106-100c56 3 94 44 94 100 0 57-36 96-92 99" id="ar"/><path fill="#3a414a" d="M368 27c-143 0-217-98-217-239v-557c-43-2-127 14-99-41 81-55 147-122 208-198 17-21 41-55 69-55 8 0 12 5 12 14 0 46-23 88-34 131 0 13 2 19 16 19h255c52 3 33 72 44 124 0 4-3 6-8 6H313c-7 0-6 2-6 9v552c2 69 26 124 89 128 82 5 123-39 170-72 12-9 25-14 38-14 16 4 6 33 0 41C553-59 481 27 368 27" id="as"/><path fill="#3a414a" d="M850-141c17 0 10 35 6 43-36 35-83 62-123 93-27 21-94 47-132 21-40-27-54-86-73-131C460-68 409-3 320 22c-11 3-25 3-40 3C157 25 70-53 70-179c0-109 69-142 152-179 84-38 244-58 308-121 6-63 2-137 2-205 0-101-53-174-155-174-84 0-142 67-121 162-37 27-100 53-148 70-15 1-16-21-16-34 0-111 91-173 165-220 89-56 244-69 328 5 51 44 103 94 103 183v527c-1 36 43 57 80 57 39 0 55-23 82-33zM243-266C188-162 281-37 400-86c54-22 132-49 132-113v-203c0-9-5-13-12-10L288-304c-17 13-35 20-45 38" id="at"/><path fill="#3a414a" d="M476-29c14 3 12 29 0 29H30c-12-1-14-26 0-29 70-16 145-29 145-123v-1247c-2-73-93-59-143-85-8-12-1-32 12-35l255-120c14-10 32-7 32 18v1469c-3 93 73 107 145 123" id="au"/><path fill="#3a414a" d="M310-116c-3 5-8 20 3 20h385c94-5 109-94 155-146 10-11 36-19 38 0-28 75-55 149-83 224-3 8-9 17-19 18H84C59 3 56-29 68-45c173-239 346-476 520-714 5-7 8-15 8-25-93-17-224-9-336-9-107 0-112 112-145 188-5 13-19 20-29 11l57-334c2-12 9-12 21-12 24 7 23 43 51 45 198 14 413 8 625 2 21 10 2 48-6 59-176 238-350 478-524 718" id="av"/><g id="q"><use transform="matrix(0.010850694444444444,0,0,0.010850694444444444,0,0)" xlink:href="#ar"/><use transform="matrix(0.010850694444444444,0,0,0.010850694444444444,6.25,0)" xlink:href="#aq"/><use transform="matrix(0.010850694444444444,0,0,0.010850694444444444,18.880208333333332,0)" xlink:href="#ar"/><use transform="matrix(0.010850694444444444,0,0,0.010850694444444444,25.130208333333332,0)" xlink:href="#as"/><use transform="matrix(0.010850694444444444,0,0,0.010850694444444444,32.150607638888886,0)" xlink:href="#ar"/><use transform="matrix(0.010850694444444444,0,0,0.010850694444444444,38.400607638888886,0)" xlink:href="#at"/><use transform="matrix(0.010850694444444444,0,0,0.010850694444444444,48.00347222222221,0)" xlink:href="#au"/><use transform="matrix(0.010850694444444444,0,0,0.010850694444444444,53.65668402777778,0)" xlink:href="#ar"/><use transform="matrix(0.010850694444444444,0,0,0.010850694444444444,59.90668402777778,0)" xlink:href="#av"/><use transform="matrix(0.010850694444444444,0,0,0.010850694444444444,69.83506944444444,0)" xlink:href="#at"/><use transform="matrix(0.010850694444444444,0,0,0.010850694444444444,79.43793402777777,0)" xlink:href="#as"/><use transform="matrix(0.010850694444444444,0,0,0.010850694444444444,86.45833333333333,0)" xlink:href="#ar"/><use transform="matrix(0.010850694444444444,0,0,0.010850694444444444,92.70833333333333,0)" xlink:href="#ap"/><use transform="matrix(0.010850694444444444,0,0,0.010850694444444444,104.72005208333333,0)" xlink:href="#aq"/></g></defs></g></svg>