<svg xmlns="http://www.w3.org/2000/svg" xmlns:xlink="http://www.w3.org/1999/xlink" xmlns:lucid="lucid" width="3620" height="2649.39"><g transform="translate(-80 -80)" lucid:page-tab-id="0_0"><path d="M100 300h260v120H100z" stroke="#1a1a1a" fill-opacity="0"/><use xlink:href="#a" transform="matrix(1,0,0,1,112,312) translate(38 55)"/><path d="M308 100c28.72 0 52 26.86 52 60s-23.28 60-52 60H152c-28.72 0-52-26.86-52-60s23.28-60 52-60z" stroke="#1a1a1a" fill-opacity="0"/><use xlink:href="#b" transform="matrix(1,0,0,1,105,105) translate(31.666666666666657 63.25)"/><path d="M860 280h260v120H860z" stroke="#1a1a1a" fill-opacity="0"/><use xlink:href="#c" transform="matrix(1,0,0,1,872,292) translate(64.66666666666667 55)"/><path d="M100 500h260v120H100z" stroke="#1a1a1a" fill-opacity="0"/><use xlink:href="#d" transform="matrix(1,0,0,1,112,512) translate(38 55)"/><path d="M230 221v62.12" stroke="#1a1a1a" fill="none"/><path d="M230.5 221h-1v-.5h1z" stroke="#1a1a1a" stroke-width=".05" fill="#1a1a1a"/><path d="M230 297.88l-4.63-14.26h9.26z" stroke="#1a1a1a" fill="#1a1a1a"/><path d="M230 221v29h760v13.12" stroke="#1a1a1a" fill="none"/><path d="M230.5 221h-1v-.5h1z" stroke="#1a1a1a" stroke-width=".05" fill="#1a1a1a"/><path d="M990 277.88l-4.63-14.26h9.26z" stroke="#1a1a1a" fill="#1a1a1a"/><path d="M230 421v62.12" stroke="#1a1a1a" fill="none"/><path d="M230.5 421h-1v-.5h1z" stroke="#1a1a1a" stroke-width=".05" fill="#1a1a1a"/><path d="M230 497.88l-4.63-14.26h9.26z" stroke="#1a1a1a" fill="#1a1a1a"/><path d="M860 480h260v120H860z" stroke="#1a1a1a" fill-opacity="0"/><use xlink:href="#e" transform="matrix(1,0,0,1,872,492) translate(64.66666666666667 55)"/><path d="M3420 2340h260v120h-260z" stroke="#1a1a1a" fill-opacity="0"/><use xlink:href="#f" transform="matrix(1,0,0,1,3432,2352) translate(51.33333333333334 40)"/><use xlink:href="#g" transform="matrix(1,0,0,1,3432,2352) translate(144.66666666666669 40)"/><use xlink:href="#h" transform="matrix(1,0,0,1,3432,2352) translate(44.66666666666667 69.15555555555555)"/><path d="M3628 2589.4c28.72 0 52 26.86 52 60 0 33.13-23.28 60-52 60h-156c-28.72 0-52-26.87-52-60 0-33.14 23.28-60 52-60z" stroke="#1a1a1a" fill-opacity="0"/><use xlink:href="#i" transform="matrix(1,0,0,1,3425,2594.391869680737) translate(105 63.25)"/><path d="M990 401v62.12" stroke="#1a1a1a" fill="none"/><path d="M990.5 401h-1v-.5h1z" stroke="#1a1a1a" stroke-width=".05" fill="#1a1a1a"/><path d="M990 477.88l-4.63-14.26h9.26z" stroke="#1a1a1a" fill="#1a1a1a"/><path d="M230 680l130 90-130 90-130-90z" stroke="#1a1a1a" fill-opacity="0"/><use xlink:href="#j" transform="matrix(1,0,0,1,105,685) translate(51.67166666666666 80.4375)"/><use xlink:href="#k" transform="matrix(1,0,0,1,105,685) translate(91.67166666666665 80.4375)"/><use xlink:href="#l" transform="matrix(1,0,0,1,105,685) translate(145.005 80.4375)"/><use xlink:href="#m" transform="matrix(1,0,0,1,105,685) translate(85.005 109.59305555555555)"/><path d="M230 621V665" stroke="#1a1a1a" fill="none"/><path d="M230.5 621h-1v-.5h1z" stroke="#1a1a1a" stroke-width=".05" fill="#1a1a1a"/><path d="M230 679.75l-4.63-14.26h9.26z" stroke="#1a1a1a" fill="#1a1a1a"/><path d="M391.7 770.5h-30.32v-1h30.32zm71.42 0h-28.75v-1h28.75z" stroke="#1a1a1a" stroke-width=".05" fill="#1a1a1a"/><path d="M361.4 770.5h-1.24l.72-.5-.72-.5h1.23z" fill="#1a1a1a"/><path d="M361.42 770.52h-1.34l.75-.52-.75-.52h1.34zm-1.18-1l.68.48-.68.48h1.13v-.96z" stroke="#1a1a1a" stroke-width=".05" fill="#1a1a1a"/><path d="M477.88 770l-14.26 4.63v-9.26z" fill="#1a1a1a"/><path d="M479.5 770l-16.38 5.32v-10.64zm-15.38 3.95l12.14-3.95-12.14-3.95z" stroke="#1a1a1a" stroke-width=".05" fill="#1a1a1a"/><use xlink:href="#n" transform="matrix(1,0,0,1,391.70003860118027,758.3377777777778) translate(0 17.6)"/><path d="M230.5 943.12h-1v-29.25h1zm0-52.57h-1V861.1h1z" stroke="#1a1a1a" stroke-width=".05" fill="#1a1a1a"/><path d="M230.5 861.12h-1v-.86l.5.35.5-.34z" fill="#1a1a1a"/><path d="M230.53 861.15h-1.06v-.94l.53.38.53-.37zm-.53-.5l-.47-.34v.8h.94v-.8z" stroke="#1a1a1a" stroke-width=".05" fill="#1a1a1a"/><path d="M230 957.88l-4.63-14.26h9.26z" fill="#1a1a1a"/><path d="M230 959.5l-5.32-16.38h10.64zm-3.95-15.38l3.95 12.14 3.95-12.14z" stroke="#1a1a1a" stroke-width=".05" fill="#1a1a1a"/><use xlink:href="#o" transform="matrix(1,0,0,1,203.33333333333334,890.5505248548452) translate(0 17.6)"/><path d="M100 960h260v120H100z" stroke="#1a1a1a" fill-opacity="0"/><use xlink:href="#f" transform="matrix(1,0,0,1,112,972) translate(38 55)"/><use xlink:href="#p" transform="matrix(1,0,0,1,112,972) translate(131.33333333333331 55)"/><path d="M480 710h260v120H480z" stroke="#1a1a1a" fill-opacity="0"/><use xlink:href="#q" transform="matrix(1,0,0,1,492,722) translate(24.66666666666667 55)"/><use xlink:href="#r" transform="matrix(1,0,0,1,492,722) translate(144.66666666666666 55)"/><path d="M741 770h59V540h43.12" stroke="#1a1a1a" fill="none"/><path d="M741 770.5h-.5v-1h.5z" stroke="#1a1a1a" stroke-width=".05" fill="#1a1a1a"/><path d="M857.88 540l-14.26 4.63v-9.26z" stroke="#1a1a1a" fill="#1a1a1a"/><path d="M990 680l130 90-130 90-130-90z" stroke="#1a1a1a" fill-opacity="0"/><use xlink:href="#j" transform="matrix(1,0,0,1,865,685) translate(45.00499999999999 80.4375)"/><use xlink:href="#s" transform="matrix(1,0,0,1,865,685) translate(85.00499999999998 80.4375)"/><use xlink:href="#t" transform="matrix(1,0,0,1,865,685) translate(151.67166666666668 80.4375)"/><use xlink:href="#u" transform="matrix(1,0,0,1,865,685) translate(65.005 109.59305555555555)"/><use xlink:href="#v" transform="matrix(1,0,0,1,865,685) translate(131.67166666666668 109.59305555555555)"/><path d="M990 940l130 90-130 90-130-90z" stroke="#1a1a1a" fill-opacity="0"/><use xlink:href="#j" transform="matrix(1,0,0,1,865,945) translate(45.00499999999999 80.4375)"/><use xlink:href="#s" transform="matrix(1,0,0,1,865,945) translate(85.00499999999998 80.4375)"/><use xlink:href="#t" transform="matrix(1,0,0,1,865,945) translate(151.67166666666668 80.4375)"/><use xlink:href="#u" transform="matrix(1,0,0,1,865,945) translate(65.005 109.59305555555555)"/><use xlink:href="#w" transform="matrix(1,0,0,1,865,945) translate(131.67166666666668 109.59305555555555)"/><path d="M990 1200l130 90-130 90-130-90z" stroke="#1a1a1a" fill-opacity="0"/><use xlink:href="#j" transform="matrix(1,0,0,1,865,1205) translate(78.33833333333334 64.5)"/><use xlink:href="#l" transform="matrix(1,0,0,1,865,1205) translate(118.33833333333332 64.5)"/><use xlink:href="#x" transform="matrix(1,0,0,1,865,1205) translate(65.005 93.65555555555555)"/><use xlink:href="#y" transform="matrix(1,0,0,1,865,1205) translate(131.67166666666668 93.65555555555555)"/><use xlink:href="#z" transform="matrix(1,0,0,1,865,1205) translate(78.33833333333334 122.8111111111111)"/><path d="M990 601v62" stroke="#1a1a1a" fill="none"/><path d="M990.5 601h-1v-.5h1z" stroke="#1a1a1a" stroke-width=".05" fill="#1a1a1a"/><path d="M990 677.77l-4.63-14.26h9.26z" stroke="#1a1a1a" fill="#1a1a1a"/><path d="M1160.5 770.5h-39.12v-1h39.1zm82.62 0h-39.96v-1h39.96z" stroke="#1a1a1a" stroke-width=".05" fill="#1a1a1a"/><path d="M1121.4 770.5h-1.24l.72-.5-.72-.5h1.23z" fill="#1a1a1a"/><path d="M1121.42 770.52h-1.34l.75-.52-.75-.52h1.34zm-1.18-1l.68.48-.68.48h1.13v-.96z" stroke="#1a1a1a" stroke-width=".05" fill="#1a1a1a"/><path d="M1257.88 770l-14.26 4.63v-9.26z" fill="#1a1a1a"/><path d="M1259.5 770l-16.38 5.32v-10.64zm-15.38 3.95l12.14-3.95-12.14-3.95z" stroke="#1a1a1a" stroke-width=".05" fill="#1a1a1a"/><use xlink:href="#n" transform="matrix(1,0,0,1,1160.493540977285,758.3377777777778) translate(0 17.6)"/><path d="M1260 710h260v120h-260z" stroke="#1a1a1a" fill-opacity="0"/><use xlink:href="#A" transform="matrix(1,0,0,1,1272,722) translate(4.666666666666671 40)"/><use xlink:href="#B" transform="matrix(1,0,0,1,1272,722) translate(71.33333333333334 40)"/><use xlink:href="#s" transform="matrix(1,0,0,1,1272,722) translate(138 40)"/><use xlink:href="#C" transform="matrix(1,0,0,1,1272,722) translate(204.66666666666669 40)"/><use xlink:href="#D" transform="matrix(1,0,0,1,1272,722) translate(11.333333333333343 69.15555555555555)"/><use xlink:href="#E" transform="matrix(1,0,0,1,1272,722) translate(104.66666666666667 69.15555555555555)"/><path d="M1159.62 1030.5h-39.12v-1h39.12zm82.62 0h-39.96v-1h39.96zM1120.5 1030.5h-.5v-1h.5z" stroke="#1a1a1a" stroke-width=".05" fill="#1a1a1a"/><path d="M1257 1030l-14.26 4.63v-9.27z" fill="#1a1a1a"/><path d="M1258.62 1030l-16.38 5.32v-10.64zm-15.38 3.95l12.15-3.95-12.16-3.95z" stroke="#1a1a1a" stroke-width=".05" fill="#1a1a1a"/><use xlink:href="#n" transform="matrix(1,0,0,1,1159.615130516127,1018.3377777777778) translate(0 17.6)"/><path d="M1259.12 970h260v120h-260z" stroke="#1a1a1a" fill-opacity="0"/><use xlink:href="#A" transform="matrix(1,0,0,1,1271.121589538842,982) translate(4.666666666666671 40)"/><use xlink:href="#F" transform="matrix(1,0,0,1,1271.121589538842,982) translate(71.33333333333334 40)"/><use xlink:href="#s" transform="matrix(1,0,0,1,1271.121589538842,982) translate(138 40)"/><use xlink:href="#C" transform="matrix(1,0,0,1,1271.121589538842,982) translate(204.66666666666669 40)"/><use xlink:href="#D" transform="matrix(1,0,0,1,1271.121589538842,982) translate(11.333333333333343 69.15555555555555)"/><use xlink:href="#E" transform="matrix(1,0,0,1,1271.121589538842,982) translate(104.66666666666667 69.15555555555555)"/><path d="M1160.1 1290.5h-38.72v-1h38.73zm82.14 0h-39.47v-1h39.47z" stroke="#1a1a1a" stroke-width=".05" fill="#1a1a1a"/><path d="M1121.4 1290.5h-1.24l.72-.5-.72-.5h1.23z" fill="#1a1a1a"/><path d="M1121.42 1290.53h-1.34l.75-.53-.75-.53h1.34zm-1.18-1l.68.47-.68.47h1.13v-.94z" stroke="#1a1a1a" stroke-width=".05" fill="#1a1a1a"/><path d="M1257 1290l-14.26 4.63v-9.27z" fill="#1a1a1a"/><path d="M1258.62 1290l-16.38 5.32v-10.64zm-15.38 3.95l12.15-3.95-12.16-3.95z" stroke="#1a1a1a" stroke-width=".05" fill="#1a1a1a"/><use xlink:href="#n" transform="matrix(1,0,0,1,1160.1073257534156,1278.3377777777778) translate(0 17.6)"/><path d="M1259.12 1230h260v120h-260z" stroke="#1a1a1a" fill-opacity="0"/><use xlink:href="#G" transform="matrix(1,0,0,1,1271.121589538842,1242) translate(4.666666666666671 55)"/><use xlink:href="#H" transform="matrix(1,0,0,1,1271.121589538842,1242) translate(98 55)"/><use xlink:href="#I" transform="matrix(1,0,0,1,1271.121589538842,1242) translate(151.33333333333331 55)"/><path d="M1599.38 1230h260v120h-260z" stroke="#1a1a1a" fill-opacity="0"/><use xlink:href="#A" transform="matrix(1,0,0,1,1611.378410461158,1242) translate(4.666666666666671 25)"/><use xlink:href="#J" transform="matrix(1,0,0,1,1611.378410461158,1242) translate(71.33333333333334 25)"/><use xlink:href="#l" transform="matrix(1,0,0,1,1611.378410461158,1242) translate(178 25)"/><use xlink:href="#K" transform="matrix(1,0,0,1,1611.378410461158,1242) translate(58 54.15555555555555)"/><use xlink:href="#L" transform="matrix(1,0,0,1,1611.378410461158,1242) translate(98 54.15555555555555)"/><use xlink:href="#E" transform="matrix(1,0,0,1,1611.378410461158,1242) translate(58.00000000000001 83.3111111111111)"/><path d="M1520.12 1290h62.38" stroke="#1a1a1a" fill="none"/><path d="M1520.13 1290.5h-.5v-1h.5z" stroke="#1a1a1a" stroke-width=".05" fill="#1a1a1a"/><path d="M1597.26 1290l-14.27 4.63v-9.27z" stroke="#1a1a1a" fill="#1a1a1a"/><path d="M991 923.62h-1v-18.15h1zm0-41.47h-1v-21.38h1z" stroke="#1a1a1a" stroke-width=".05" fill="#1a1a1a"/><path d="M991 860.78h-1v-.17l1-.68z" fill="#1a1a1a"/><path d="M991.02 860.8h-1.05v-.2l1.05-.73zm-1-.18v.13h.95v-.78z" stroke="#1a1a1a" stroke-width=".05" fill="#1a1a1a"/><path d="M990.5 938.38l-4.64-14.26h9.27z" fill="#1a1a1a"/><path d="M990.5 940l-5.33-16.38h10.65zm-3.95-15.38l3.95 12.14 3.94-12.14z" stroke="#1a1a1a" stroke-width=".05" fill="#1a1a1a"/><use xlink:href="#o" transform="matrix(1,0,0,1,963.8293872614732,882.1477741577133) translate(0 17.6)"/><path d="M990.5 1183h-1v-17.6h1zm0-40.9h-1v-21h1z" stroke="#1a1a1a" stroke-width=".05" fill="#1a1a1a"/><path d="M990.5 1121.12h-1v-.86l.5.35.5-.34z" fill="#1a1a1a"/><path d="M990.52 1121.15h-1.04v-.94l.52.38.52-.37zm-.52-.5l-.48-.34v.8h.96v-.8z" stroke="#1a1a1a" stroke-width=".05" fill="#1a1a1a"/><path d="M990 1197.77l-4.63-14.26h9.26z" fill="#1a1a1a"/><path d="M990 1199.4l-5.32-16.4h10.64zm-3.95-15.4l3.95 12.16 3.95-12.15z" stroke="#1a1a1a" stroke-width=".05" fill="#1a1a1a"/><use xlink:href="#o" transform="matrix(1,0,0,1,963.3333333333334,1142.0908703013436) translate(0 17.6)"/><path d="M990.5 1443.12h-1v-17.66h1zm0-40.98h-1v-21.03h1z" stroke="#1a1a1a" stroke-width=".05" fill="#1a1a1a"/><path d="M990.5 1381.12h-1v-.86l.5.35.5-.34z" fill="#1a1a1a"/><path d="M990.52 1381.15h-1.04v-.94l.52.38.52-.37zm-.52-.5l-.48-.34v.8h.96v-.8z" stroke="#1a1a1a" stroke-width=".05" fill="#1a1a1a"/><path d="M990 1457.88l-4.63-14.26h9.26z" fill="#1a1a1a"/><path d="M990 1459.5l-5.32-16.38h10.64zm-3.95-15.38l3.95 12.14 3.95-12.14z" stroke="#1a1a1a" stroke-width=".05" fill="#1a1a1a"/><use xlink:href="#o" transform="matrix(1,0,0,1,963.3333333333334,1402.1363616092476) translate(0 17.6)"/><path d="M860 1460h260v120H860z" stroke="#1a1a1a" fill-opacity="0"/><use xlink:href="#f" transform="matrix(1,0,0,1,872,1472) translate(38 55)"/><use xlink:href="#p" transform="matrix(1,0,0,1,872,1472) translate(131.33333333333331 55)"/><path d="M1939.63 1230h260v120h-260z" stroke="#1a1a1a" fill-opacity="0"/><use xlink:href="#M" transform="matrix(1,0,0,1,1951.6352313834732,1242) translate(51.33333333333334 55)"/><path d="M1520.12 1030h549.52v183.12" stroke="#1a1a1a" fill="none"/><path d="M1520.13 1030.5h-.5v-1h.5z" stroke="#1a1a1a" stroke-width=".05" fill="#1a1a1a"/><path d="M2069.64 1227.88l-4.64-14.26h9.27z" stroke="#1a1a1a" fill="#1a1a1a"/><path d="M1521 770h548.64v443.12" stroke="#1a1a1a" fill="none"/><path d="M1521 770.5h-.5v-1h.5z" stroke="#1a1a1a" stroke-width=".05" fill="#1a1a1a"/><path d="M2069.64 1227.88l-4.64-14.26h9.27z" stroke="#1a1a1a" fill="#1a1a1a"/><path d="M1860.38 1290h62.37" stroke="#3a414a" fill="none"/><path d="M1860.4 1290.5h-.52v-1h.5z" stroke="#3a414a" stroke-width=".05" fill="#3a414a"/><path d="M1937.52 1290l-14.27 4.63v-9.27z" stroke="#3a414a" fill="#3a414a"/><path d="M2069.64 1430l130 90-130 90-130-90z" stroke="#1a1a1a" fill-opacity="0"/><use xlink:href="#j" transform="matrix(1,0,0,1,1944.6352313834732,1435) translate(38.33833333333334 91.0625)"/><use xlink:href="#N" transform="matrix(1,0,0,1,1944.6352313834732,1435) translate(78.33833333333334 91.0625)"/><use xlink:href="#m" transform="matrix(1,0,0,1,1944.6352313834732,1435) translate(131.67166666666668 91.0625)"/><path d="M2069.64 1351v62" stroke="#1a1a1a" fill="none"/><path d="M2070.14 1351h-1v-.5h1z" stroke="#1a1a1a" stroke-width=".05" fill="#1a1a1a"/><path d="M2069.64 1427.77l-4.64-14.26h9.27z" stroke="#1a1a1a" fill="#1a1a1a"/><path d="M2240.3 1520.5H2201v-1h39.3zm82.82 0h-40.16v-1h40.16z" stroke="#1a1a1a" stroke-width=".05" fill="#1a1a1a"/><path d="M2201.03 1520.5h-1.24l.7-.5-.7-.5h1.23z" fill="#1a1a1a"/><path d="M2201.05 1520.53h-1.34l.77-.53-.76-.53h1.35zm-1.18-1l.7.47-.7.47h1.13v-.94z" stroke="#1a1a1a" stroke-width=".05" fill="#1a1a1a"/><path d="M2337.88 1520l-14.26 4.63v-9.27z" fill="#1a1a1a"/><path d="M2339.5 1520l-16.38 5.32v-10.64zm-15.38 3.95l12.14-3.95-12.14-3.95z" stroke="#1a1a1a" stroke-width=".05" fill="#1a1a1a"/><use xlink:href="#n" transform="matrix(1,0,0,1,2240.2891520455655,1508.3377777777778) translate(0 17.6)"/><path d="M2070.14 1683.12h-1v-23.45h1zm0-46.78h-1v-25.23h1z" stroke="#1a1a1a" stroke-width=".05" fill="#1a1a1a"/><path d="M2070.14 1611.12h-1v-.86l.5.35.5-.34z" fill="#1a1a1a"/><path d="M2070.16 1611.15h-1.05v-.94l.54.38.52-.37zm-.52-.5l-.48-.34v.8h.95v-.8z" stroke="#1a1a1a" stroke-width=".05" fill="#1a1a1a"/><path d="M2069.64 1697.88l-4.64-14.26h9.27z" fill="#1a1a1a"/><path d="M2069.64 1699.5l-5.33-16.38h10.66zm-3.95-15.38l3.94 12.14 3.94-12.14z" stroke="#1a1a1a" stroke-width=".05" fill="#1a1a1a"/><use xlink:href="#o" transform="matrix(1,0,0,1,2042.9685647168064,1636.3434432320464) translate(0 17.6)"/><path d="M1940 1700h260v120h-260z" stroke="#1a1a1a" fill-opacity="0"/><use xlink:href="#O" transform="matrix(1,0,0,1,1952,1712) translate(38 55)"/><use xlink:href="#p" transform="matrix(1,0,0,1,1952,1712) translate(131.33333333333331 55)"/><path d="M2340 1460h260v120h-260z" stroke="#1a1a1a" fill-opacity="0"/><use xlink:href="#P" transform="matrix(1,0,0,1,2352,1472) translate(58.00000000000001 55)"/><path d="M2340 1700h260v120h-260z" stroke="#1a1a1a" fill-opacity="0"/><use xlink:href="#Q" transform="matrix(1,0,0,1,2352,1712) translate(24.66666666666667 25)"/><use xlink:href="#R" transform="matrix(1,0,0,1,2352,1712) translate(118 25)"/><use xlink:href="#S" transform="matrix(1,0,0,1,2352,1712) translate(11.333333333333343 54.15555555555555)"/><use xlink:href="#T" transform="matrix(1,0,0,1,2352,1712) translate(78.00000000000001 54.15555555555555)"/><use xlink:href="#U" transform="matrix(1,0,0,1,2352,1712) translate(31.333333333333343 83.3111111111111)"/><use xlink:href="#V" transform="matrix(1,0,0,1,2352,1712) translate(84.66666666666669 83.3111111111111)"/><path d="M2340 1900h260v120h-260z" stroke="#1a1a1a" fill-opacity="0"/><use xlink:href="#W" transform="matrix(1,0,0,1,2352,1912) translate(44.66666666666667 55)"/><path d="M2700 2120h260v120h-260z" stroke="#1a1a1a" fill-opacity="0"/><use xlink:href="#X" transform="matrix(1,0,0,1,2712,2132) translate(58.00000000000001 55)"/><path d="M2470 1821v62.12" stroke="#1a1a1a" fill="none"/><path d="M2470.5 1821h-1v-.5h1z" stroke="#1a1a1a" stroke-width=".05" fill="#1a1a1a"/><path d="M2470 1897.88l-4.64-14.26h9.28z" stroke="#1a1a1a" fill="#1a1a1a"/><path d="M2470 1581v102.12" stroke="#1a1a1a" fill="none"/><path d="M2470.5 1581h-1v-.5h1z" stroke="#1a1a1a" stroke-width=".05" fill="#1a1a1a"/><path d="M2470 1697.88l-4.64-14.26h9.28z" stroke="#1a1a1a" fill="#1a1a1a"/><path d="M2470 2021v52.12" stroke="#3a414a" fill="none"/><path d="M2470.5 2021h-1v-.5h1z" stroke="#3a414a" stroke-width=".05" fill="#3a414a"/><path d="M2470 2087.88l-4.64-14.26h9.28z" stroke="#3a414a" fill="#3a414a"/><path d="M2470 2090l130 90-130 90-130-90z" stroke="#1a1a1a" fill-opacity="0"/><use xlink:href="#Y" transform="matrix(1,0,0,1,2345,2095) translate(105.005 53.875)"/><use xlink:href="#Z" transform="matrix(1,0,0,1,2345,2095) translate(58.33833333333335 83.03055555555555)"/><use xlink:href="#C" transform="matrix(1,0,0,1,2345,2095) translate(165.005 83.03055555555555)"/><use xlink:href="#aa" transform="matrix(1,0,0,1,2345,2095) translate(51.671666666666674 112.1861111111111)"/><path d="M2470.5 2323h-1v-15.1h1zm0-38.43h-1v-13.46h1z" stroke="#1a1a1a" stroke-width=".05" fill="#1a1a1a"/><path d="M2470.5 2271.12h-1v-.86l.5.35.5-.34z" fill="#1a1a1a"/><path d="M2470.53 2271.15h-1.06v-.94l.53.38.53-.37zm-.53-.5l-.47-.34v.8h.94v-.8z" stroke="#1a1a1a" stroke-width=".05" fill="#1a1a1a"/><path d="M2470 2337.77l-4.64-14.26h9.28z" fill="#1a1a1a"/><path d="M2470 2339.4l-5.32-16.4h10.64zm-3.95-15.4l3.95 12.16 3.95-12.15z" stroke="#1a1a1a" stroke-width=".05" fill="#1a1a1a"/><use xlink:href="#o" transform="matrix(1,0,0,1,2443.3333333333335,2284.567093182466) translate(0 17.6)"/><path d="M2621.38 2180.5h-20v-1h20zm61.74 0h-19.07v-1h19.07z" stroke="#1a1a1a" stroke-width=".05" fill="#1a1a1a"/><path d="M2601.4 2180.5h-1.24l.72-.5-.72-.5h1.23z" fill="#1a1a1a"/><path d="M2601.42 2180.53h-1.34l.75-.53-.75-.53h1.34zm-1.18-1l.68.47-.68.47h1.13v-.94z" stroke="#1a1a1a" stroke-width=".05" fill="#1a1a1a"/><path d="M2697.88 2180l-14.26 4.64v-9.28z" fill="#1a1a1a"/><path d="M2699.5 2180l-16.38 5.32v-10.64zm-15.38 3.95l12.14-3.95-12.14-3.95z" stroke="#1a1a1a" stroke-width=".05" fill="#1a1a1a"/><g><use xlink:href="#n" transform="matrix(1,0,0,1,2621.3844739055535,2168.337777777778) translate(0 17.6)"/></g><path d="M3190 2090l130 90-130 90-130-90z" stroke="#1a1a1a" fill-opacity="0"/><g><use xlink:href="#Y" transform="matrix(1,0,0,1,3065,2095) translate(105.005 64.5)"/><use xlink:href="#Z" transform="matrix(1,0,0,1,3065,2095) translate(58.33833333333334 93.65555555555555)"/><use xlink:href="#C" transform="matrix(1,0,0,1,3065,2095) translate(165.005 93.65555555555555)"/><use xlink:href="#V" transform="matrix(1,0,0,1,3065,2095) translate(65.005 122.8111111111111)"/></g><path d="M2961 2180h81.74" stroke="#1a1a1a" fill="none"/><path d="M2961 2180.5h-.5v-1h.5z" stroke="#1a1a1a" stroke-width=".05" fill="#1a1a1a"/><path d="M3057.5 2180l-14.26 4.64v-9.28z" stroke="#1a1a1a" fill="#1a1a1a"/><path d="M3190.5 2323.12h-1v-15.2h1zm0-38.5h-1v-13.5h1z" stroke="#1a1a1a" stroke-width=".05" fill="#1a1a1a"/><path d="M3190.5 2271.12h-1v-.86l.5.35.5-.34z" fill="#1a1a1a"/><path d="M3190.53 2271.15h-1.06v-.94l.53.38.53-.37zm-.53-.5l-.47-.34v.8h.94v-.8z" stroke="#1a1a1a" stroke-width=".05" fill="#1a1a1a"/><path d="M3190 2337.88l-4.64-14.26h9.28z" fill="#1a1a1a"/><path d="M3190 2339.5l-5.32-16.38h10.64zm-3.95-15.38l3.95 12.14 3.95-12.14z" stroke="#1a1a1a" stroke-width=".05" fill="#1a1a1a"/><g><use xlink:href="#o" transform="matrix(1,0,0,1,3163.3333333333335,2284.6073705350627) translate(0 17.6)"/></g><path d="M3060 2340h260v120h-260z" stroke="#1a1a1a" fill-opacity="0"/><g><use xlink:href="#f" transform="matrix(1,0,0,1,3072,2352) translate(38 55)"/><use xlink:href="#p" transform="matrix(1,0,0,1,3072,2352) translate(131.33333333333331 55)"/></g><path d="M3420 2120h260v120h-260z" stroke="#1a1a1a" fill-opacity="0"/><g><use xlink:href="#ab" transform="matrix(1,0,0,1,3432,2132) translate(51.33333333333333 55)"/><use xlink:href="#ac" transform="matrix(1,0,0,1,3432,2132) translate(118 55)"/></g><path d="M3339.28 2180.5h-17.9v-1h17.9zm63.84 0h-26.4v-1h26.4z" stroke="#1a1a1a" stroke-width=".05" fill="#1a1a1a"/><path d="M3321.4 2180.5h-1.24l.72-.5-.72-.5h1.23z" fill="#1a1a1a"/><path d="M3321.42 2180.53h-1.34l.75-.53-.75-.53h1.34zm-1.18-1l.68.47-.68.47h1.13v-.94z" stroke="#1a1a1a" stroke-width=".05" fill="#1a1a1a"/><path d="M3417.88 2180l-14.26 4.64v-9.28z" fill="#1a1a1a"/><path d="M3419.5 2180l-16.38 5.32v-10.64zm-15.38 3.95l12.14-3.95-12.14-3.95z" stroke="#1a1a1a" stroke-width=".05" fill="#1a1a1a"/><g><use xlink:href="#ad" transform="matrix(1,0,0,1,3339.283950617284,2169.3333333333335) translate(0 14.222222222222223)"/></g><path d="M3550 2241v82.12" stroke="#1a1a1a" fill="none"/><path d="M3550.5 2241h-1v-.5h1z" stroke="#1a1a1a" stroke-width=".05" fill="#1a1a1a"/><path d="M3550 2337.88l-4.64-14.26h9.28z" stroke="#1a1a1a" fill="#1a1a1a"/><path d="M2470 2340l130 90-130 90-130-90z" stroke="#1a1a1a" fill-opacity="0"/><g><use xlink:href="#Y" transform="matrix(1,0,0,1,2345,2345) translate(105.005 53.875)"/><use xlink:href="#Z" transform="matrix(1,0,0,1,2345,2345) translate(58.33833333333335 83.03055555555555)"/><use xlink:href="#C" transform="matrix(1,0,0,1,2345,2345) translate(165.005 83.03055555555555)"/><use xlink:href="#aa" transform="matrix(1,0,0,1,2345,2345) translate(51.671666666666674 112.1861111111111)"/></g><path d="M2629.28 2430.5h-27.9v-1h27.9zm534.05-130H3010.7v130H2666.7v-1h342.97v-130h153.63zm239.8-120h-12.63v120h-173.83v-1h172.83v-120h13.62z" stroke="#1a1a1a" stroke-width=".05" fill="#1a1a1a"/><path d="M2601.4 2430.5h-1.24l.72-.5-.72-.5h1.23z" fill="#1a1a1a"/><path d="M2601.42 2430.53h-1.34l.75-.53-.75-.53h1.34zm-1.18-1l.68.47-.68.47h1.13v-.94z" stroke="#1a1a1a" stroke-width=".05" fill="#1a1a1a"/><path d="M3417.88 2180l-14.26 4.64v-9.28z" fill="#1a1a1a"/><path d="M3419.5 2180l-16.38 5.32v-10.64zm-15.38 3.95l12.14-3.95-12.14-3.95z" stroke="#1a1a1a" stroke-width=".05" fill="#1a1a1a"/><g><use xlink:href="#ae" transform="matrix(1,0,0,1,2629.283950617284,2419.3333333333335) translate(0 14.222222222222223)"/></g><path d="M2470.5 2572.5h-1v-14.8h1zm0-38.12h-1v-13.27h1z" stroke="#1a1a1a" stroke-width=".05" fill="#1a1a1a"/><path d="M2470.5 2521.12h-1v-.86l.5.35.5-.34z" fill="#1a1a1a"/><path d="M2470.53 2521.15h-1.06v-.94l.53.38.53-.37zm-.53-.5l-.47-.34v.8h.94v-.8z" stroke="#1a1a1a" stroke-width=".05" fill="#1a1a1a"/><path d="M2470 2587.27l-4.64-14.26h9.28z" fill="#1a1a1a"/><path d="M2470 2588.9l-5.32-16.4h10.64zm-3.95-15.4l3.95 12.16 3.95-12.15z" stroke="#1a1a1a" stroke-width=".05" fill="#1a1a1a"/><g><use xlink:href="#o" transform="matrix(1,0,0,1,2443.3333333333335,2534.3808486912294) translate(0 17.6)"/></g><path d="M2340 2589.4h260v120h-260z" stroke="#1a1a1a" fill-opacity="0"/><g><use xlink:href="#f" transform="matrix(1,0,0,1,2352,2601.391869680737) translate(38 55)"/><use xlink:href="#p" transform="matrix(1,0,0,1,2352,2601.391869680737) translate(131.33333333333331 55)"/></g><path d="M3550 2461v111.5" stroke="#1a1a1a" fill="none"/><path d="M3550.5 2461h-1v-.5h1z" stroke="#1a1a1a" stroke-width=".05" fill="#1a1a1a"/><path d="M3550 2587.27l-4.64-14.26h9.28z" stroke="#1a1a1a" fill="#1a1a1a"/><defs><path fill="#1a1a1a" d="M532-1084c122 1 204 47 266 115v-536l224 25V0H825l-16-130C745-41 653 27 512 27c-301 0-392-248-397-555-1-215 71-391 193-484 62-48 137-72 224-72zm266 289c-46-65-107-115-207-117-75 0-130 35-176 94-68 87-79 376-37 510 30 97 82 163 193 163 113 0 179-79 227-150v-500" id="af"/><path fill="#1a1a1a" d="M123-528c0-328 154-556 478-556 327 0 476 224 476 554 0 329-151 557-477 557-327 0-477-224-477-555zm659-290c-77-117-285-117-363 0-72 108-72 471-1 579 77 118 287 118 364 0 71-108 71-471 0-579" id="ag"/><path fill="#1a1a1a" d="M1004 0H724L605-750 477 0H203L24-1056h216l110 917 147-783h224l137 783 110-917h208" id="ah"/><path fill="#1a1a1a" d="M649-913c-121 5-192 82-247 155V0H178v-1056h193l17 137c74-93 191-162 341-165 198-2 295 118 295 314V0H800v-659c-2-147-5-257-151-254" id="ai"/><path fill="#1a1a1a" d="M754 27c-209 3-336-128-336-335v-1007H99v-165h543v1192c-12 166 220 149 327 99l57 156C957 1 863 29 754 27" id="aj"/><path fill="#1a1a1a" d="M564-1084c261-3 421 114 421 354v471c0 82 21 112 80 133l-50 152C907 12 832-31 796-120 728-31 607 26 459 27c-204 4-349-130-347-328 0-111 45-194 130-257 110-81 314-97 523-90v-69c10-256-345-202-516-137l-55-158c111-42 235-70 370-72zM347-311c0 114 64 174 180 173 106-2 195-63 238-137v-233H641c-179-1-294 47-294 197" id="ak"/><path fill="#1a1a1a" d="M1071-1380L1149 0H937c-15-387-51-773-34-1176L700-243H498l-218-933c24 392-9 793-21 1176H51l78-1380h278l197 925 188-925h279" id="al"/><path fill="#1a1a1a" d="M614-1084c339 7 481 265 450 628H364c11 188 101 309 288 309 121 0 196-41 277-92l97 134C935-31 801 27 641 27c-337-5-509-218-509-554 0-221 87-392 224-483 72-49 158-74 258-74zm238 475c-3-178-70-309-236-309-167 0-243 127-253 309h489" id="am"/><g id="a"><use transform="matrix(0.011111111111111112,0,0,0.011111111111111112,0,0)" xlink:href="#af"/><use transform="matrix(0.011111111111111112,0,0,0.011111111111111112,13.333333333333334,0)" xlink:href="#ag"/><use transform="matrix(0.011111111111111112,0,0,0.011111111111111112,26.666666666666668,0)" xlink:href="#ah"/><use transform="matrix(0.011111111111111112,0,0,0.011111111111111112,40,0)" xlink:href="#ai"/><use transform="matrix(0.011111111111111112,0,0,0.011111111111111112,53.333333333333336,0)" xlink:href="#aj"/><use transform="matrix(0.011111111111111112,0,0,0.011111111111111112,66.66666666666667,0)" xlink:href="#ag"/><use transform="matrix(0.011111111111111112,0,0,0.011111111111111112,80,0)" xlink:href="#ak"/><use transform="matrix(0.011111111111111112,0,0,0.011111111111111112,93.33333333333334,0)" xlink:href="#af"/><use transform="matrix(0.011111111111111112,0,0,0.011111111111111112,106.66666666666666,0)" xlink:href="#al"/><use transform="matrix(0.011111111111111112,0,0,0.011111111111111112,119.99999999999999,0)" xlink:href="#ag"/><use transform="matrix(0.011111111111111112,0,0,0.011111111111111112,133.33333333333331,0)" xlink:href="#af"/><use transform="matrix(0.011111111111111112,0,0,0.011111111111111112,146.66666666666666,0)" xlink:href="#am"/></g><path fill="#1a1a1a" d="M592-669c187-2 295-82 293-276 1-187-113-259-296-261H423v537h169zm-18-711c323 0 555 121 555 433 0 325-218 450-539 455H423V0H191v-1380h383" id="an"/><path fill="#1a1a1a" d="M1019-864c-123-36-243-19-321 68-56 57-99 139-131 244v392h213V0H188v-160h155v-737H188v-159h326l41 245c77-178 202-302 457-265 25 5 49 12 74 20zM888-667v-260l28-129h170l-38 389H888" id="ao"/><path fill="#1a1a1a" d="M387-920c67-93 165-164 306-164 304 0 379 245 384 554 0 213-63 391-183 485-60 48-135 72-224 72-111 0-200-39-268-117v496l-224 25v-1487h195zm455 391c-5-204-25-382-211-382-111 0-180 81-229 151v494c45 67 107 116 209 118 75 0 133-30 172-91s59-157 59-290" id="ap"/><path fill="#1a1a1a" d="M404-523c0 221 78 366 283 366 111 0 189-44 260-92l104 144C968-33 829 27 680 27c-336-6-514-214-514-550 0-334 183-561 518-561 159 0 273 50 366 127L947-816c-72-49-150-88-259-88-195 0-284 153-284 381" id="aq"/><path fill="#1a1a1a" d="M247-258c77 61 182 113 315 113 147 0 277-78 211-215-12-20-36-39-72-56-79-39-264-73-347-117-95-50-164-112-164-248 0-218 191-299 422-303 173-2 304 52 401 122l-94 141c-80-51-172-94-301-93-117 0-200 25-200 117 0 71 43 88 105 115 84 35 262 72 343 118 96 50 165 122 162 263-5 244-221 321-466 328-192 3-333-63-434-149" id="ar"/><path fill="#1a1a1a" d="M503-176c286-9 375-214 375-521 1-307-86-503-376-505H375v1026h128zm-45-1204c445-1 664 220 664 683C1122-246 918-4 481 0H143v-1380h315" id="as"/><path fill="#1a1a1a" d="M783-154c79 0 144-22 196-50l81 148C987-9 871 28 752 27c-231 5-375-130-375-347v-573H142v-163h235v-236l224-27v263h356l-25 163H601v571c2 119 57 168 182 168" id="at"/><g id="b"><use transform="matrix(0.011111111111111112,0,0,0.011111111111111112,0,0)" xlink:href="#an"/><use transform="matrix(0.011111111111111112,0,0,0.011111111111111112,13.333333333333334,0)" xlink:href="#ao"/><use transform="matrix(0.011111111111111112,0,0,0.011111111111111112,26.666666666666668,0)" xlink:href="#am"/><use transform="matrix(0.011111111111111112,0,0,0.011111111111111112,40,0)" xlink:href="#ap"/><use transform="matrix(0.011111111111111112,0,0,0.011111111111111112,53.333333333333336,0)" xlink:href="#ao"/><use transform="matrix(0.011111111111111112,0,0,0.011111111111111112,66.66666666666667,0)" xlink:href="#ag"/><use transform="matrix(0.011111111111111112,0,0,0.011111111111111112,80,0)" xlink:href="#aq"/><use transform="matrix(0.011111111111111112,0,0,0.011111111111111112,93.33333333333334,0)" xlink:href="#am"/><use transform="matrix(0.011111111111111112,0,0,0.011111111111111112,106.66666666666666,0)" xlink:href="#ar"/><use transform="matrix(0.011111111111111112,0,0,0.011111111111111112,119.99999999999999,0)" xlink:href="#ar"/><use transform="matrix(0.011111111111111112,0,0,0.011111111111111112,133.33333333333331,0)" xlink:href="#as"/><use transform="matrix(0.011111111111111112,0,0,0.011111111111111112,146.66666666666666,0)" xlink:href="#ak"/><use transform="matrix(0.011111111111111112,0,0,0.011111111111111112,160,0)" xlink:href="#at"/><use transform="matrix(0.011111111111111112,0,0,0.011111111111111112,173.33333333333334,0)" xlink:href="#ak"/></g><g id="c"><use transform="matrix(0.011111111111111112,0,0,0.011111111111111112,0,0)" xlink:href="#ao"/><use transform="matrix(0.011111111111111112,0,0,0.011111111111111112,13.333333333333334,0)" xlink:href="#am"/><use transform="matrix(0.011111111111111112,0,0,0.011111111111111112,26.666666666666668,0)" xlink:href="#ak"/><use transform="matrix(0.011111111111111112,0,0,0.011111111111111112,40,0)" xlink:href="#af"/><use transform="matrix(0.011111111111111112,0,0,0.011111111111111112,53.333333333333336,0)" xlink:href="#al"/><use transform="matrix(0.011111111111111112,0,0,0.011111111111111112,66.66666666666667,0)" xlink:href="#ag"/><use transform="matrix(0.011111111111111112,0,0,0.011111111111111112,80,0)" xlink:href="#af"/><use transform="matrix(0.011111111111111112,0,0,0.011111111111111112,93.33333333333334,0)" xlink:href="#am"/></g><g id="d"><use transform="matrix(0.011111111111111112,0,0,0.011111111111111112,0,0)" xlink:href="#af"/><use transform="matrix(0.011111111111111112,0,0,0.011111111111111112,13.333333333333334,0)" xlink:href="#ag"/><use transform="matrix(0.011111111111111112,0,0,0.011111111111111112,26.666666666666668,0)" xlink:href="#ah"/><use transform="matrix(0.011111111111111112,0,0,0.011111111111111112,40,0)" xlink:href="#ai"/><use transform="matrix(0.011111111111111112,0,0,0.011111111111111112,53.333333333333336,0)" xlink:href="#aj"/><use transform="matrix(0.011111111111111112,0,0,0.011111111111111112,66.66666666666667,0)" xlink:href="#ag"/><use transform="matrix(0.011111111111111112,0,0,0.011111111111111112,80,0)" xlink:href="#ak"/><use transform="matrix(0.011111111111111112,0,0,0.011111111111111112,93.33333333333334,0)" xlink:href="#af"/><use transform="matrix(0.011111111111111112,0,0,0.011111111111111112,106.66666666666666,0)" xlink:href="#as"/><use transform="matrix(0.011111111111111112,0,0,0.011111111111111112,119.99999999999999,0)" xlink:href="#ak"/><use transform="matrix(0.011111111111111112,0,0,0.011111111111111112,133.33333333333331,0)" xlink:href="#at"/><use transform="matrix(0.011111111111111112,0,0,0.011111111111111112,146.66666666666666,0)" xlink:href="#ak"/></g><g id="e"><use transform="matrix(0.011111111111111112,0,0,0.011111111111111112,0,0)" xlink:href="#ao"/><use transform="matrix(0.011111111111111112,0,0,0.011111111111111112,13.333333333333334,0)" xlink:href="#am"/><use transform="matrix(0.011111111111111112,0,0,0.011111111111111112,26.666666666666668,0)" xlink:href="#ak"/><use transform="matrix(0.011111111111111112,0,0,0.011111111111111112,40,0)" xlink:href="#af"/><use transform="matrix(0.011111111111111112,0,0,0.011111111111111112,53.333333333333336,0)" xlink:href="#as"/><use transform="matrix(0.011111111111111112,0,0,0.011111111111111112,66.66666666666667,0)" xlink:href="#ak"/><use transform="matrix(0.011111111111111112,0,0,0.011111111111111112,80,0)" xlink:href="#at"/><use transform="matrix(0.011111111111111112,0,0,0.011111111111111112,93.33333333333334,0)" xlink:href="#ak"/></g><path fill="#1a1a1a" d="M482 27C280 30 178-92 178-290v-766h224v738c0 118 41 172 151 174 107-1 202-77 245-148v-764h224V0H829l-14-135C749-42 626 24 482 27" id="au"/><g id="f"><use transform="matrix(0.011111111111111112,0,0,0.011111111111111112,0,0)" xlink:href="#ao"/><use transform="matrix(0.011111111111111112,0,0,0.011111111111111112,13.333333333333334,0)" xlink:href="#am"/><use transform="matrix(0.011111111111111112,0,0,0.011111111111111112,26.666666666666668,0)" xlink:href="#at"/><use transform="matrix(0.011111111111111112,0,0,0.011111111111111112,40,0)" xlink:href="#au"/><use transform="matrix(0.011111111111111112,0,0,0.011111111111111112,53.333333333333336,0)" xlink:href="#ao"/><use transform="matrix(0.011111111111111112,0,0,0.011111111111111112,66.66666666666667,0)" xlink:href="#ai"/></g><path fill="#1a1a1a" d="M415-1169c9-225 172-331 405-336 128-1 226 24 315 61l-66 155c-65-27-140-41-227-42-130 1-204 41-204 164v187h353l-24 165H638V0H415v-815H175v-165h240v-189" id="av"/><path fill="#1a1a1a" d="M419-180c-3-98 82-180 181-180 135 0 221 133 170 272-57 156-136 313-199 465H397l98-406c-43-30-75-82-76-151" id="aw"/><g id="g"><use transform="matrix(0.011111111111111112,0,0,0.011111111111111112,0,0)" xlink:href="#af"/><use transform="matrix(0.011111111111111112,0,0,0.011111111111111112,13.333333333333334,0)" xlink:href="#av"/><use transform="matrix(0.011111111111111112,0,0,0.011111111111111112,26.666666666666668,0)" xlink:href="#aw"/></g><path fill="#1a1a1a" d="M674-949c54-70 117-135 232-135 163 0 212 119 211 299V0H918v-754c-6-92 8-155-71-155-77 0-113 45-156 104V0H510v-754c-6-92 8-155-71-155-78 0-113 45-156 104V0H83v-1056h169l15 114c55-72 110-142 226-142 97 0 157 48 181 135" id="ax"/><path fill="#1a1a1a" d="M755-1056v892h287V0H215v-164h316v-728H225v-164h530zm-302-377c-2-80 64-140 146-140 84 0 148 59 147 140 1 80-63 142-147 142-82 0-148-62-146-142" id="ay"/><g id="h"><use transform="matrix(0.011111111111111112,0,0,0.011111111111111112,0,0)" xlink:href="#at"/><use transform="matrix(0.011111111111111112,0,0,0.011111111111111112,13.333333333333334,0)" xlink:href="#am"/><use transform="matrix(0.011111111111111112,0,0,0.011111111111111112,26.666666666666668,0)" xlink:href="#ao"/><use transform="matrix(0.011111111111111112,0,0,0.011111111111111112,40,0)" xlink:href="#ax"/><use transform="matrix(0.011111111111111112,0,0,0.011111111111111112,53.333333333333336,0)" xlink:href="#ay"/><use transform="matrix(0.011111111111111112,0,0,0.011111111111111112,66.66666666666667,0)" xlink:href="#ai"/><use transform="matrix(0.011111111111111112,0,0,0.011111111111111112,80,0)" xlink:href="#ak"/><use transform="matrix(0.011111111111111112,0,0,0.011111111111111112,93.33333333333334,0)" xlink:href="#at"/><use transform="matrix(0.011111111111111112,0,0,0.011111111111111112,106.66666666666666,0)" xlink:href="#ay"/><use transform="matrix(0.011111111111111112,0,0,0.011111111111111112,119.99999999999999,0)" xlink:href="#ag"/><use transform="matrix(0.011111111111111112,0,0,0.011111111111111112,133.33333333333331,0)" xlink:href="#ai"/></g><path fill="#1a1a1a" d="M458-1204v415h500v176H458v437h609V0H226v-1380h830l-26 176H458" id="az"/><g id="i"><use transform="matrix(0.011111111111111112,0,0,0.011111111111111112,0,0)" xlink:href="#az"/><use transform="matrix(0.011111111111111112,0,0,0.011111111111111112,13.333333333333334,0)" xlink:href="#ai"/><use transform="matrix(0.011111111111111112,0,0,0.011111111111111112,26.666666666666668,0)" xlink:href="#af"/></g><g id="j"><use transform="matrix(0.011111111111111112,0,0,0.011111111111111112,0,0)" xlink:href="#ay"/><use transform="matrix(0.011111111111111112,0,0,0.011111111111111112,13.333333333333334,0)" xlink:href="#av"/></g><path fill="#1a1a1a" d="M599-158c190 0 246-133 246-337v-885h233v927c-7 299-177 480-479 480-306 0-477-180-477-480v-927h232v885c2 204 54 337 245 337" id="aA"/><path fill="#1a1a1a" d="M555-1380c321 0 538 103 538 399 0 221-144 324-314 380L1170 0H900L553-568H402V0H170v-1380h385zm18 642c175-2 278-66 277-243-2-172-103-226-282-227H402v470h171" id="aB"/><path fill="#1a1a1a" d="M239 0v-1380h232v1186h618L1064 0H239" id="aC"/><g id="k"><use transform="matrix(0.011111111111111112,0,0,0.011111111111111112,0,0)" xlink:href="#aA"/><use transform="matrix(0.011111111111111112,0,0,0.011111111111111112,13.333333333333334,0)" xlink:href="#aB"/><use transform="matrix(0.011111111111111112,0,0,0.011111111111111112,26.666666666666668,0)" xlink:href="#aC"/></g><g id="l"><use transform="matrix(0.011111111111111112,0,0,0.011111111111111112,0,0)" xlink:href="#av"/><use transform="matrix(0.011111111111111112,0,0,0.011111111111111112,13.333333333333334,0)" xlink:href="#ay"/><use transform="matrix(0.011111111111111112,0,0,0.011111111111111112,26.666666666666668,0)" xlink:href="#aj"/><use transform="matrix(0.011111111111111112,0,0,0.011111111111111112,40,0)" xlink:href="#am"/></g><path fill="#1a1a1a" d="M334 0H86l379-557-337-499h258l216 372 216-372h246L734-566 1114 0H851L592-431" id="aD"/><g id="m"><use transform="matrix(0.011111111111111112,0,0,0.011111111111111112,0,0)" xlink:href="#am"/><use transform="matrix(0.011111111111111112,0,0,0.011111111111111112,13.333333333333334,0)" xlink:href="#aD"/><use transform="matrix(0.011111111111111112,0,0,0.011111111111111112,26.666666666666668,0)" xlink:href="#ay"/><use transform="matrix(0.011111111111111112,0,0,0.011111111111111112,40,0)" xlink:href="#ar"/><use transform="matrix(0.011111111111111112,0,0,0.011111111111111112,53.333333333333336,0)" xlink:href="#at"/><use transform="matrix(0.011111111111111112,0,0,0.011111111111111112,66.66666666666667,0)" xlink:href="#ar"/></g><path fill="#1a1a1a" d="M734-1168V0H461v-1168H57v-215h1093l-28 215H734" id="aE"/><path fill="#1a1a1a" d="M1024-837c-246-73-386 106-440 300v354h211V0H171v-183h149v-694H171v-182h350l49 243c74-181 206-303 458-264 26 5 51 12 75 21zM880-646v-281l36-132h187l-47 413H880" id="aF"/><path fill="#1a1a1a" d="M465 30C262 33 161-94 161-293v-766h264v734c0 106 37 156 133 156s177-68 217-133v-757h264V0H809l-14-130C731-38 609 28 465 30" id="aG"/><path fill="#1a1a1a" d="M612-1089c350 6 503 264 469 640H386c14 172 99 281 273 281 117 0 197-41 275-91l110 151C950-30 812 31 642 30c-346-4-527-216-527-558 0-222 90-395 229-486 74-50 163-75 268-75zm217 471c-3-162-60-285-216-285-154 0-219 116-230 285h446" id="aH"/><g id="n"><use transform="matrix(0.008888888888888889,0,0,0.008888888888888889,0,0)" xlink:href="#aE"/><use transform="matrix(0.008888888888888889,0,0,0.008888888888888889,10.666666666666666,0)" xlink:href="#aF"/><use transform="matrix(0.008888888888888889,0,0,0.008888888888888889,21.333333333333332,0)" xlink:href="#aG"/><use transform="matrix(0.008888888888888889,0,0,0.008888888888888889,32,0)" xlink:href="#aH"/></g><path fill="#1a1a1a" d="M511-1181v407h505v202H511V0H237v-1383h876l-29 202H511" id="aI"/><path fill="#1a1a1a" d="M567-1089c274-2 439 110 439 362v448c0 80 20 108 76 130l-57 177C910 15 830-26 789-115 720-26 594 28 446 30 240 35 92-102 94-301c0-113 46-197 132-261 111-82 313-98 524-91 17-171-66-238-225-236-96 2-201 25-285 55l-63-181c112-43 251-72 390-74zM368-316c-4 101 61 156 164 155 94-2 182-60 218-129v-206H646c-166 0-273 40-278 180" id="aJ"/><path fill="#1a1a1a" d="M752 30c-228 3-351-143-351-366v-959H84v-187h581v1174c-13 159 208 140 309 94l65 180C965 1 868 32 752 30" id="aK"/><path fill="#1a1a1a" d="M250-278c77 60 182 113 314 113 131 0 253-70 188-190-12-18-37-35-73-51-79-37-260-71-341-116-92-51-161-119-161-254 0-226 198-310 440-313 177-2 312 53 413 124L922-804c-80-50-175-92-299-92-102 0-178 20-178 102 0 65 39 77 99 102 83 34 262 73 342 118 97 50 163 123 160 266-6 249-228 331-481 338-198 2-346-64-452-154" id="aL"/><g id="o"><use transform="matrix(0.008888888888888889,0,0,0.008888888888888889,0,0)" xlink:href="#aI"/><use transform="matrix(0.008888888888888889,0,0,0.008888888888888889,10.666666666666666,0)" xlink:href="#aJ"/><use transform="matrix(0.008888888888888889,0,0,0.008888888888888889,21.333333333333332,0)" xlink:href="#aK"/><use transform="matrix(0.008888888888888889,0,0,0.008888888888888889,32,0)" xlink:href="#aL"/><use transform="matrix(0.008888888888888889,0,0,0.008888888888888889,42.666666666666664,0)" xlink:href="#aH"/></g><g id="p"><use transform="matrix(0.011111111111111112,0,0,0.011111111111111112,0,0)" xlink:href="#az"/><use transform="matrix(0.011111111111111112,0,0,0.011111111111111112,13.333333333333334,0)" xlink:href="#ao"/><use transform="matrix(0.011111111111111112,0,0,0.011111111111111112,26.666666666666668,0)" xlink:href="#ao"/><use transform="matrix(0.011111111111111112,0,0,0.011111111111111112,40,0)" xlink:href="#ag"/><use transform="matrix(0.011111111111111112,0,0,0.011111111111111112,53.333333333333336,0)" xlink:href="#ao"/></g><g id="q"><use transform="matrix(0.011111111111111112,0,0,0.011111111111111112,0,0)" xlink:href="#as"/><use transform="matrix(0.011111111111111112,0,0,0.011111111111111112,13.333333333333334,0)" xlink:href="#ag"/><use transform="matrix(0.011111111111111112,0,0,0.011111111111111112,26.666666666666668,0)" xlink:href="#ah"/><use transform="matrix(0.011111111111111112,0,0,0.011111111111111112,40,0)" xlink:href="#ai"/><use transform="matrix(0.011111111111111112,0,0,0.011111111111111112,53.333333333333336,0)" xlink:href="#aj"/><use transform="matrix(0.011111111111111112,0,0,0.011111111111111112,66.66666666666667,0)" xlink:href="#ag"/><use transform="matrix(0.011111111111111112,0,0,0.011111111111111112,80,0)" xlink:href="#ak"/><use transform="matrix(0.011111111111111112,0,0,0.011111111111111112,93.33333333333334,0)" xlink:href="#af"/></g><g id="r"><use transform="matrix(0.011111111111111112,0,0,0.011111111111111112,0,0)" xlink:href="#av"/><use transform="matrix(0.011111111111111112,0,0,0.011111111111111112,13.333333333333334,0)" xlink:href="#ay"/><use transform="matrix(0.011111111111111112,0,0,0.011111111111111112,26.666666666666668,0)" xlink:href="#aj"/><use transform="matrix(0.011111111111111112,0,0,0.011111111111111112,40,0)" xlink:href="#am"/><use transform="matrix(0.011111111111111112,0,0,0.011111111111111112,53.333333333333336,0)" xlink:href="#ar"/></g><g id="s"><use transform="matrix(0.011111111111111112,0,0,0.011111111111111112,0,0)" xlink:href="#av"/><use transform="matrix(0.011111111111111112,0,0,0.011111111111111112,13.333333333333334,0)" xlink:href="#ay"/><use transform="matrix(0.011111111111111112,0,0,0.011111111111111112,26.666666666666668,0)" xlink:href="#aj"/><use transform="matrix(0.011111111111111112,0,0,0.011111111111111112,40,0)" xlink:href="#am"/></g><g id="t"><use transform="matrix(0.011111111111111112,0,0,0.011111111111111112,0,0)" xlink:href="#am"/><use transform="matrix(0.011111111111111112,0,0,0.011111111111111112,13.333333333333334,0)" xlink:href="#ai"/><use transform="matrix(0.011111111111111112,0,0,0.011111111111111112,26.666666666666668,0)" xlink:href="#af"/><use transform="matrix(0.011111111111111112,0,0,0.011111111111111112,40,0)" xlink:href="#ar"/></g><path fill="#1a1a1a" d="M648-913c-121 0-191 84-246 158V0H178v-1478l224-24v575c72-90 183-154 327-157 199-2 295 117 295 314V0H800v-735c-1-120-37-178-152-178" id="aM"/><g id="u"><use transform="matrix(0.011111111111111112,0,0,0.011111111111111112,0,0)" xlink:href="#ah"/><use transform="matrix(0.011111111111111112,0,0,0.011111111111111112,13.333333333333334,0)" xlink:href="#ay"/><use transform="matrix(0.011111111111111112,0,0,0.011111111111111112,26.666666666666668,0)" xlink:href="#at"/><use transform="matrix(0.011111111111111112,0,0,0.011111111111111112,40,0)" xlink:href="#aM"/></g><path fill="#1a1a1a" d="M599 27c-115 0-193-80-193-194 0-115 79-193 193-193 115 0 194 78 194 193S715 27 599 27" id="aN"/><path fill="#1a1a1a" d="M1103-1056L731 0H469L97-1056h240l268 870 269-870h229" id="aO"/><g id="v"><use transform="matrix(0.011111111111111112,0,0,0.011111111111111112,0,0)" xlink:href="#aN"/><use transform="matrix(0.011111111111111112,0,0,0.011111111111111112,13.333333333333334,0)" xlink:href="#aq"/><use transform="matrix(0.011111111111111112,0,0,0.011111111111111112,26.666666666666668,0)" xlink:href="#ar"/><use transform="matrix(0.011111111111111112,0,0,0.011111111111111112,40,0)" xlink:href="#aO"/></g><g id="w"><use transform="matrix(0.011111111111111112,0,0,0.011111111111111112,0,0)" xlink:href="#aN"/><use transform="matrix(0.011111111111111112,0,0,0.011111111111111112,13.333333333333334,0)" xlink:href="#at"/><use transform="matrix(0.011111111111111112,0,0,0.011111111111111112,26.666666666666668,0)" xlink:href="#ar"/><use transform="matrix(0.011111111111111112,0,0,0.011111111111111112,40,0)" xlink:href="#aO"/></g><g id="x"><use transform="matrix(0.011111111111111112,0,0,0.011111111111111112,0,0)" xlink:href="#am"/><use transform="matrix(0.011111111111111112,0,0,0.011111111111111112,13.333333333333334,0)" xlink:href="#ai"/><use transform="matrix(0.011111111111111112,0,0,0.011111111111111112,26.666666666666668,0)" xlink:href="#af"/><use transform="matrix(0.011111111111111112,0,0,0.011111111111111112,40,0)" xlink:href="#ar"/></g><g id="y"><use transform="matrix(0.011111111111111112,0,0,0.011111111111111112,0,0)" xlink:href="#ah"/><use transform="matrix(0.011111111111111112,0,0,0.011111111111111112,13.333333333333334,0)" xlink:href="#ay"/><use transform="matrix(0.011111111111111112,0,0,0.011111111111111112,26.666666666666668,0)" xlink:href="#at"/><use transform="matrix(0.011111111111111112,0,0,0.011111111111111112,40,0)" xlink:href="#aM"/></g><path fill="#1a1a1a" d="M580-1083c217 0 350-38 487-107l60 186c-88 30-187 34-307 35 112 51 191 121 191 268 0 235-171 354-416 357-60 0-99-4-145-17-24 16-47 49-47 87 2 116 199 79 316 79 151 0 271 56 335 143 94 134 47 317-86 396-92 55-221 87-392 87-285 0-468-59-471-326h201c1 148 113 161 272 163 125 0 217-16 272-72 20-23 29-50 29-82C873-43 660-23 492-20S203-88 203-223c0-89 55-151 118-191-113-61-182-138-182-295 0-247 187-374 441-374zm209 370c0-142-67-216-207-216-138-3-215 86-215 218 0 134 79 224 218 221 135 0 205-85 204-223" id="aP"/><path fill="#1a1a1a" d="M451-180h565L992 0H182v-164l562-712H227v-180h782v164" id="aQ"/><g id="z"><use transform="matrix(0.011111111111111112,0,0,0.011111111111111112,0,0)" xlink:href="#aN"/><use transform="matrix(0.011111111111111112,0,0,0.011111111111111112,13.333333333333334,0)" xlink:href="#at"/><use transform="matrix(0.011111111111111112,0,0,0.011111111111111112,26.666666666666668,0)" xlink:href="#ar"/><use transform="matrix(0.011111111111111112,0,0,0.011111111111111112,40,0)" xlink:href="#aO"/><use transform="matrix(0.011111111111111112,0,0,0.011111111111111112,53.333333333333336,0)" xlink:href="#aN"/><use transform="matrix(0.011111111111111112,0,0,0.011111111111111112,66.66666666666667,0)" xlink:href="#aP"/><use transform="matrix(0.011111111111111112,0,0,0.011111111111111112,80,0)" xlink:href="#aQ"/></g><g id="A"><use transform="matrix(0.011111111111111112,0,0,0.011111111111111112,0,0)" xlink:href="#ao"/><use transform="matrix(0.011111111111111112,0,0,0.011111111111111112,13.333333333333334,0)" xlink:href="#am"/><use transform="matrix(0.011111111111111112,0,0,0.011111111111111112,26.666666666666668,0)" xlink:href="#ak"/><use transform="matrix(0.011111111111111112,0,0,0.011111111111111112,40,0)" xlink:href="#af"/></g><g id="B"><use transform="matrix(0.011111111111111112,0,0,0.011111111111111112,0,0)" xlink:href="#aN"/><use transform="matrix(0.011111111111111112,0,0,0.011111111111111112,13.333333333333334,0)" xlink:href="#aq"/><use transform="matrix(0.011111111111111112,0,0,0.011111111111111112,26.666666666666668,0)" xlink:href="#ar"/><use transform="matrix(0.011111111111111112,0,0,0.011111111111111112,40,0)" xlink:href="#aO"/></g><g id="C"><use transform="matrix(0.011111111111111112,0,0,0.011111111111111112,0,0)" xlink:href="#at"/><use transform="matrix(0.011111111111111112,0,0,0.011111111111111112,13.333333333333334,0)" xlink:href="#ag"/></g><g id="D"><use transform="matrix(0.011111111111111112,0,0,0.011111111111111112,0,0)" xlink:href="#an"/><use transform="matrix(0.011111111111111112,0,0,0.011111111111111112,13.333333333333334,0)" xlink:href="#ag"/><use transform="matrix(0.011111111111111112,0,0,0.011111111111111112,26.666666666666668,0)" xlink:href="#aj"/><use transform="matrix(0.011111111111111112,0,0,0.011111111111111112,40,0)" xlink:href="#ak"/><use transform="matrix(0.011111111111111112,0,0,0.011111111111111112,53.333333333333336,0)" xlink:href="#ao"/><use transform="matrix(0.011111111111111112,0,0,0.011111111111111112,66.66666666666667,0)" xlink:href="#ar"/></g><path fill="#1a1a1a" d="M486-1204v439h519v176H486V0H254v-1380h849l-26 176H486" id="aR"/><g id="E"><use transform="matrix(0.011111111111111112,0,0,0.011111111111111112,0,0)" xlink:href="#as"/><use transform="matrix(0.011111111111111112,0,0,0.011111111111111112,13.333333333333334,0)" xlink:href="#ak"/><use transform="matrix(0.011111111111111112,0,0,0.011111111111111112,26.666666666666668,0)" xlink:href="#at"/><use transform="matrix(0.011111111111111112,0,0,0.011111111111111112,40,0)" xlink:href="#ak"/><use transform="matrix(0.011111111111111112,0,0,0.011111111111111112,53.333333333333336,0)" xlink:href="#aR"/><use transform="matrix(0.011111111111111112,0,0,0.011111111111111112,66.66666666666667,0)" xlink:href="#ao"/><use transform="matrix(0.011111111111111112,0,0,0.011111111111111112,80,0)" xlink:href="#ak"/><use transform="matrix(0.011111111111111112,0,0,0.011111111111111112,93.33333333333334,0)" xlink:href="#ax"/><use transform="matrix(0.011111111111111112,0,0,0.011111111111111112,106.66666666666666,0)" xlink:href="#am"/></g><g id="F"><use transform="matrix(0.011111111111111112,0,0,0.011111111111111112,0,0)" xlink:href="#aN"/><use transform="matrix(0.011111111111111112,0,0,0.011111111111111112,13.333333333333334,0)" xlink:href="#at"/><use transform="matrix(0.011111111111111112,0,0,0.011111111111111112,26.666666666666668,0)" xlink:href="#ar"/><use transform="matrix(0.011111111111111112,0,0,0.011111111111111112,40,0)" xlink:href="#aO"/></g><g id="G"><use transform="matrix(0.011111111111111112,0,0,0.011111111111111112,0,0)" xlink:href="#as"/><use transform="matrix(0.011111111111111112,0,0,0.011111111111111112,13.333333333333334,0)" xlink:href="#am"/><use transform="matrix(0.011111111111111112,0,0,0.011111111111111112,26.666666666666668,0)" xlink:href="#av"/><use transform="matrix(0.011111111111111112,0,0,0.011111111111111112,40,0)" xlink:href="#ay"/><use transform="matrix(0.011111111111111112,0,0,0.011111111111111112,53.333333333333336,0)" xlink:href="#ai"/><use transform="matrix(0.011111111111111112,0,0,0.011111111111111112,66.66666666666667,0)" xlink:href="#am"/></g><g id="H"><use transform="matrix(0.011111111111111112,0,0,0.011111111111111112,0,0)" xlink:href="#aN"/><use transform="matrix(0.011111111111111112,0,0,0.011111111111111112,13.333333333333334,0)" xlink:href="#aP"/><use transform="matrix(0.011111111111111112,0,0,0.011111111111111112,26.666666666666668,0)" xlink:href="#aQ"/></g><g id="I"><use transform="matrix(0.011111111111111112,0,0,0.011111111111111112,0,0)" xlink:href="#aM"/><use transform="matrix(0.011111111111111112,0,0,0.011111111111111112,13.333333333333334,0)" xlink:href="#ak"/><use transform="matrix(0.011111111111111112,0,0,0.011111111111111112,26.666666666666668,0)" xlink:href="#ai"/><use transform="matrix(0.011111111111111112,0,0,0.011111111111111112,40,0)" xlink:href="#af"/><use transform="matrix(0.011111111111111112,0,0,0.011111111111111112,53.333333333333336,0)" xlink:href="#aj"/><use transform="matrix(0.011111111111111112,0,0,0.011111111111111112,66.66666666666667,0)" xlink:href="#am"/></g><g id="J"><use transform="matrix(0.011111111111111112,0,0,0.011111111111111112,0,0)" xlink:href="#aN"/><use transform="matrix(0.011111111111111112,0,0,0.011111111111111112,13.333333333333334,0)" xlink:href="#at"/><use transform="matrix(0.011111111111111112,0,0,0.011111111111111112,26.666666666666668,0)" xlink:href="#ar"/><use transform="matrix(0.011111111111111112,0,0,0.011111111111111112,40,0)" xlink:href="#aO"/><use transform="matrix(0.011111111111111112,0,0,0.011111111111111112,53.333333333333336,0)" xlink:href="#aN"/><use transform="matrix(0.011111111111111112,0,0,0.011111111111111112,66.66666666666667,0)" xlink:href="#aP"/><use transform="matrix(0.011111111111111112,0,0,0.011111111111111112,80,0)" xlink:href="#aQ"/></g><g id="K"><use transform="matrix(0.011111111111111112,0,0,0.011111111111111112,0,0)" xlink:href="#at"/><use transform="matrix(0.011111111111111112,0,0,0.011111111111111112,13.333333333333334,0)" xlink:href="#ag"/></g><g id="L"><use transform="matrix(0.011111111111111112,0,0,0.011111111111111112,0,0)" xlink:href="#an"/><use transform="matrix(0.011111111111111112,0,0,0.011111111111111112,13.333333333333334,0)" xlink:href="#ag"/><use transform="matrix(0.011111111111111112,0,0,0.011111111111111112,26.666666666666668,0)" xlink:href="#aj"/><use transform="matrix(0.011111111111111112,0,0,0.011111111111111112,40,0)" xlink:href="#ak"/><use transform="matrix(0.011111111111111112,0,0,0.011111111111111112,53.333333333333336,0)" xlink:href="#ao"/><use transform="matrix(0.011111111111111112,0,0,0.011111111111111112,66.66666666666667,0)" xlink:href="#ar"/></g><path fill="#1a1a1a" d="M1152-137C1055-47 915 31 719 27 312 11 107-263 104-692c-3-304 121-519 305-634 145-91 373-105 543-46 64 24 125 60 180 105l-121 144c-103-100-329-143-474-50-131 84-195 247-192 481 0 310 99 518 382 531 146 3 234-58 313-119" id="aS"/><g id="M"><use transform="matrix(0.011111111111111112,0,0,0.011111111111111112,0,0)" xlink:href="#ar"/><use transform="matrix(0.011111111111111112,0,0,0.011111111111111112,13.333333333333334,0)" xlink:href="#am"/><use transform="matrix(0.011111111111111112,0,0,0.011111111111111112,26.666666666666668,0)" xlink:href="#aj"/><use transform="matrix(0.011111111111111112,0,0,0.011111111111111112,40,0)" xlink:href="#am"/><use transform="matrix(0.011111111111111112,0,0,0.011111111111111112,53.333333333333336,0)" xlink:href="#aq"/><use transform="matrix(0.011111111111111112,0,0,0.011111111111111112,66.66666666666667,0)" xlink:href="#at"/><use transform="matrix(0.011111111111111112,0,0,0.011111111111111112,80,0)" xlink:href="#aS"/><use transform="matrix(0.011111111111111112,0,0,0.011111111111111112,93.33333333333334,0)" xlink:href="#ag"/><use transform="matrix(0.011111111111111112,0,0,0.011111111111111112,106.66666666666666,0)" xlink:href="#aj"/><use transform="matrix(0.011111111111111112,0,0,0.011111111111111112,119.99999999999999,0)" xlink:href="#ar"/></g><g id="N"><use transform="matrix(0.011111111111111112,0,0,0.011111111111111112,0,0)" xlink:href="#aq"/><use transform="matrix(0.011111111111111112,0,0,0.011111111111111112,13.333333333333334,0)" xlink:href="#ag"/><use transform="matrix(0.011111111111111112,0,0,0.011111111111111112,26.666666666666668,0)" xlink:href="#aj"/></g><g id="O"><use transform="matrix(0.011111111111111112,0,0,0.011111111111111112,0,0)" xlink:href="#aB"/><use transform="matrix(0.011111111111111112,0,0,0.011111111111111112,13.333333333333334,0)" xlink:href="#am"/><use transform="matrix(0.011111111111111112,0,0,0.011111111111111112,26.666666666666668,0)" xlink:href="#at"/><use transform="matrix(0.011111111111111112,0,0,0.011111111111111112,40,0)" xlink:href="#au"/><use transform="matrix(0.011111111111111112,0,0,0.011111111111111112,53.333333333333336,0)" xlink:href="#ao"/><use transform="matrix(0.011111111111111112,0,0,0.011111111111111112,66.66666666666667,0)" xlink:href="#ai"/></g><path fill="#1a1a1a" d="M713-1193V0H481v-1193H67v-187h1070l-24 187H713" id="aT"/><path fill="#1a1a1a" d="M1102-1056L738 4c-82 237-222 405-517 428l-29-168C384 239 474 158 530 0h-76L98-1056h238l266 900 270-900h230" id="aU"/><g id="P"><use transform="matrix(0.011111111111111112,0,0,0.011111111111111112,0,0)" xlink:href="#aq"/><use transform="matrix(0.011111111111111112,0,0,0.011111111111111112,13.333333333333334,0)" xlink:href="#ak"/><use transform="matrix(0.011111111111111112,0,0,0.011111111111111112,26.666666666666668,0)" xlink:href="#ar"/><use transform="matrix(0.011111111111111112,0,0,0.011111111111111112,40,0)" xlink:href="#at"/><use transform="matrix(0.011111111111111112,0,0,0.011111111111111112,53.333333333333336,0)" xlink:href="#aT"/><use transform="matrix(0.011111111111111112,0,0,0.011111111111111112,66.66666666666667,0)" xlink:href="#aU"/><use transform="matrix(0.011111111111111112,0,0,0.011111111111111112,80,0)" xlink:href="#ap"/><use transform="matrix(0.011111111111111112,0,0,0.011111111111111112,93.33333333333334,0)" xlink:href="#am"/><use transform="matrix(0.011111111111111112,0,0,0.011111111111111112,106.66666666666666,0)" xlink:href="#ar"/></g><g id="Q"><use transform="matrix(0.011111111111111112,0,0,0.011111111111111112,0,0)" xlink:href="#af"/><use transform="matrix(0.011111111111111112,0,0,0.011111111111111112,13.333333333333334,0)" xlink:href="#ay"/><use transform="matrix(0.011111111111111112,0,0,0.011111111111111112,26.666666666666668,0)" xlink:href="#aO"/><use transform="matrix(0.011111111111111112,0,0,0.011111111111111112,40,0)" xlink:href="#ay"/><use transform="matrix(0.011111111111111112,0,0,0.011111111111111112,53.333333333333336,0)" xlink:href="#af"/><use transform="matrix(0.011111111111111112,0,0,0.011111111111111112,66.66666666666667,0)" xlink:href="#am"/></g><g id="R"><use transform="matrix(0.011111111111111112,0,0,0.011111111111111112,0,0)" xlink:href="#aq"/><use transform="matrix(0.011111111111111112,0,0,0.011111111111111112,13.333333333333334,0)" xlink:href="#ag"/><use transform="matrix(0.011111111111111112,0,0,0.011111111111111112,26.666666666666668,0)" xlink:href="#aj"/><use transform="matrix(0.011111111111111112,0,0,0.011111111111111112,40,0)" xlink:href="#au"/><use transform="matrix(0.011111111111111112,0,0,0.011111111111111112,53.333333333333336,0)" xlink:href="#ax"/><use transform="matrix(0.011111111111111112,0,0,0.011111111111111112,66.66666666666667,0)" xlink:href="#ai"/><use transform="matrix(0.011111111111111112,0,0,0.011111111111111112,80,0)" xlink:href="#ar"/></g><g id="S"><use transform="matrix(0.011111111111111112,0,0,0.011111111111111112,0,0)" xlink:href="#ay"/><use transform="matrix(0.011111111111111112,0,0,0.011111111111111112,13.333333333333334,0)" xlink:href="#ai"/><use transform="matrix(0.011111111111111112,0,0,0.011111111111111112,26.666666666666668,0)" xlink:href="#at"/><use transform="matrix(0.011111111111111112,0,0,0.011111111111111112,40,0)" xlink:href="#ag"/></g><g id="T"><use transform="matrix(0.011111111111111112,0,0,0.011111111111111112,0,0)" xlink:href="#aq"/><use transform="matrix(0.011111111111111112,0,0,0.011111111111111112,13.333333333333334,0)" xlink:href="#ak"/><use transform="matrix(0.011111111111111112,0,0,0.011111111111111112,26.666666666666668,0)" xlink:href="#at"/><use transform="matrix(0.011111111111111112,0,0,0.011111111111111112,40,0)" xlink:href="#am"/><use transform="matrix(0.011111111111111112,0,0,0.011111111111111112,53.333333333333336,0)" xlink:href="#aP"/><use transform="matrix(0.011111111111111112,0,0,0.011111111111111112,66.66666666666667,0)" xlink:href="#ag"/><use transform="matrix(0.011111111111111112,0,0,0.011111111111111112,80,0)" xlink:href="#ao"/><use transform="matrix(0.011111111111111112,0,0,0.011111111111111112,93.33333333333334,0)" xlink:href="#ay"/><use transform="matrix(0.011111111111111112,0,0,0.011111111111111112,106.66666666666666,0)" xlink:href="#aq"/><use transform="matrix(0.011111111111111112,0,0,0.011111111111111112,119.99999999999999,0)" xlink:href="#ak"/><use transform="matrix(0.011111111111111112,0,0,0.011111111111111112,133.33333333333331,0)" xlink:href="#aj"/></g><g id="U"><use transform="matrix(0.011111111111111112,0,0,0.011111111111111112,0,0)" xlink:href="#ak"/><use transform="matrix(0.011111111111111112,0,0,0.011111111111111112,13.333333333333334,0)" xlink:href="#ai"/><use transform="matrix(0.011111111111111112,0,0,0.011111111111111112,26.666666666666668,0)" xlink:href="#af"/></g><g id="V"><use transform="matrix(0.011111111111111112,0,0,0.011111111111111112,0,0)" xlink:href="#ai"/><use transform="matrix(0.011111111111111112,0,0,0.011111111111111112,13.333333333333334,0)" xlink:href="#au"/><use transform="matrix(0.011111111111111112,0,0,0.011111111111111112,26.666666666666668,0)" xlink:href="#ax"/><use transform="matrix(0.011111111111111112,0,0,0.011111111111111112,40,0)" xlink:href="#am"/><use transform="matrix(0.011111111111111112,0,0,0.011111111111111112,53.333333333333336,0)" xlink:href="#ao"/><use transform="matrix(0.011111111111111112,0,0,0.011111111111111112,66.66666666666667,0)" xlink:href="#ay"/><use transform="matrix(0.011111111111111112,0,0,0.011111111111111112,80,0)" xlink:href="#aq"/><use transform="matrix(0.011111111111111112,0,0,0.011111111111111112,93.33333333333334,0)" xlink:href="#ak"/><use transform="matrix(0.011111111111111112,0,0,0.011111111111111112,106.66666666666666,0)" xlink:href="#aj"/></g><g id="W"><use transform="matrix(0.011111111111111112,0,0,0.011111111111111112,0,0)" xlink:href="#aS"/><use transform="matrix(0.011111111111111112,0,0,0.011111111111111112,13.333333333333334,0)" xlink:href="#ak"/><use transform="matrix(0.011111111111111112,0,0,0.011111111111111112,26.666666666666668,0)" xlink:href="#at"/><use transform="matrix(0.011111111111111112,0,0,0.011111111111111112,40,0)" xlink:href="#am"/><use transform="matrix(0.011111111111111112,0,0,0.011111111111111112,53.333333333333336,0)" xlink:href="#aP"/><use transform="matrix(0.011111111111111112,0,0,0.011111111111111112,66.66666666666667,0)" xlink:href="#ag"/><use transform="matrix(0.011111111111111112,0,0,0.011111111111111112,80,0)" xlink:href="#ao"/><use transform="matrix(0.011111111111111112,0,0,0.011111111111111112,93.33333333333334,0)" xlink:href="#ay"/><use transform="matrix(0.011111111111111112,0,0,0.011111111111111112,106.66666666666666,0)" xlink:href="#aq"/><use transform="matrix(0.011111111111111112,0,0,0.011111111111111112,119.99999999999999,0)" xlink:href="#ak"/><use transform="matrix(0.011111111111111112,0,0,0.011111111111111112,133.33333333333331,0)" xlink:href="#aj"/></g><path fill="#1a1a1a" d="M884-205c-46-346-31-781-33-1175h206V0H755L316-1174c44 353 32 776 33 1174H143v-1380h301" id="aV"/><g id="X"><use transform="matrix(0.011111111111111112,0,0,0.011111111111111112,0,0)" xlink:href="#aV"/><use transform="matrix(0.011111111111111112,0,0,0.011111111111111112,13.333333333333334,0)" xlink:href="#au"/><use transform="matrix(0.011111111111111112,0,0,0.011111111111111112,26.666666666666668,0)" xlink:href="#ax"/><use transform="matrix(0.011111111111111112,0,0,0.011111111111111112,40,0)" xlink:href="#am"/><use transform="matrix(0.011111111111111112,0,0,0.011111111111111112,53.333333333333336,0)" xlink:href="#ao"/><use transform="matrix(0.011111111111111112,0,0,0.011111111111111112,66.66666666666667,0)" xlink:href="#ay"/><use transform="matrix(0.011111111111111112,0,0,0.011111111111111112,80,0)" xlink:href="#aq"/><use transform="matrix(0.011111111111111112,0,0,0.011111111111111112,93.33333333333334,0)" xlink:href="#ak"/><use transform="matrix(0.011111111111111112,0,0,0.011111111111111112,106.66666666666666,0)" xlink:href="#aj"/></g><g id="Y"><use transform="matrix(0.011111111111111112,0,0,0.011111111111111112,0,0)" xlink:href="#at"/><use transform="matrix(0.011111111111111112,0,0,0.011111111111111112,13.333333333333334,0)" xlink:href="#ao"/><use transform="matrix(0.011111111111111112,0,0,0.011111111111111112,26.666666666666668,0)" xlink:href="#aU"/></g><g id="Z"><use transform="matrix(0.011111111111111112,0,0,0.011111111111111112,0,0)" xlink:href="#aq"/><use transform="matrix(0.011111111111111112,0,0,0.011111111111111112,13.333333333333334,0)" xlink:href="#ak"/><use transform="matrix(0.011111111111111112,0,0,0.011111111111111112,26.666666666666668,0)" xlink:href="#ar"/><use transform="matrix(0.011111111111111112,0,0,0.011111111111111112,40,0)" xlink:href="#at"/><use transform="matrix(0.011111111111111112,0,0,0.011111111111111112,53.333333333333336,0)" xlink:href="#ay"/><use transform="matrix(0.011111111111111112,0,0,0.011111111111111112,66.66666666666667,0)" xlink:href="#ai"/><use transform="matrix(0.011111111111111112,0,0,0.011111111111111112,80,0)" xlink:href="#aP"/></g><g id="aa"><use transform="matrix(0.011111111111111112,0,0,0.011111111111111112,0,0)" xlink:href="#aq"/><use transform="matrix(0.011111111111111112,0,0,0.011111111111111112,13.333333333333334,0)" xlink:href="#ak"/><use transform="matrix(0.011111111111111112,0,0,0.011111111111111112,26.666666666666668,0)" xlink:href="#at"/><use transform="matrix(0.011111111111111112,0,0,0.011111111111111112,40,0)" xlink:href="#am"/><use transform="matrix(0.011111111111111112,0,0,0.011111111111111112,53.333333333333336,0)" xlink:href="#aP"/><use transform="matrix(0.011111111111111112,0,0,0.011111111111111112,66.66666666666667,0)" xlink:href="#ag"/><use transform="matrix(0.011111111111111112,0,0,0.011111111111111112,80,0)" xlink:href="#ao"/><use transform="matrix(0.011111111111111112,0,0,0.011111111111111112,93.33333333333334,0)" xlink:href="#ay"/><use transform="matrix(0.011111111111111112,0,0,0.011111111111111112,106.66666666666666,0)" xlink:href="#aq"/><use transform="matrix(0.011111111111111112,0,0,0.011111111111111112,119.99999999999999,0)" xlink:href="#ak"/><use transform="matrix(0.011111111111111112,0,0,0.011111111111111112,133.33333333333331,0)" xlink:href="#aj"/></g><g id="ab"><use transform="matrix(0.011111111111111112,0,0,0.011111111111111112,0,0)" xlink:href="#af"/><use transform="matrix(0.011111111111111112,0,0,0.011111111111111112,13.333333333333334,0)" xlink:href="#ao"/><use transform="matrix(0.011111111111111112,0,0,0.011111111111111112,26.666666666666668,0)" xlink:href="#ag"/><use transform="matrix(0.011111111111111112,0,0,0.011111111111111112,40,0)" xlink:href="#ap"/></g><g id="ac"><use transform="matrix(0.011111111111111112,0,0,0.011111111111111112,0,0)" xlink:href="#ai"/><use transform="matrix(0.011111111111111112,0,0,0.011111111111111112,13.333333333333334,0)" xlink:href="#au"/><use transform="matrix(0.011111111111111112,0,0,0.011111111111111112,26.666666666666668,0)" xlink:href="#aj"/><use transform="matrix(0.011111111111111112,0,0,0.011111111111111112,40,0)" xlink:href="#aj"/><use transform="matrix(0.011111111111111112,0,0,0.011111111111111112,53.333333333333336,0)" xlink:href="#ar"/></g><path fill="#1a1a1a" d="M136-208V0H84v-208H4v-40h212v40h-80" id="aW"/><path fill="#1a1a1a" d="M135-150c-39-12-60 13-60 57V0H25l-1-190h47c2 13-1 29 3 40 6-28 27-53 61-41v41" id="aX"/><path fill="#1a1a1a" d="M85 4C-2 5 27-109 22-190h50c7 57-23 150 33 157 60-5 35-97 40-157h50l1 190h-47c-2-12 1-28-3-38-12 25-28 42-61 42" id="aY"/><path fill="#1a1a1a" d="M185-48c-13 30-37 53-82 52C43 2 14-33 14-96s30-98 90-98c62 0 83 45 84 108H66c0 31 8 55 39 56 18 0 30-7 34-22zm-45-69c5-46-57-63-70-21-2 6-4 13-4 21h74" id="aZ"/><g id="ad"><use transform="matrix(0.04938271604938272,0,0,0.04938271604938272,0,0)" xlink:href="#aW"/><use transform="matrix(0.04938271604938272,0,0,0.04938271604938272,9.82716049382716,0)" xlink:href="#aX"/><use transform="matrix(0.04938271604938272,0,0,0.04938271604938272,16.74074074074074,0)" xlink:href="#aY"/><use transform="matrix(0.04938271604938272,0,0,0.04938271604938272,27.555555555555557,0)" xlink:href="#aZ"/></g><path fill="#333" d="M136-208V0H84v-208H4v-40h212v40h-80" id="ba"/><path fill="#333" d="M135-150c-39-12-60 13-60 57V0H25l-1-190h47c2 13-1 29 3 40 6-28 27-53 61-41v41" id="bb"/><path fill="#333" d="M85 4C-2 5 27-109 22-190h50c7 57-23 150 33 157 60-5 35-97 40-157h50l1 190h-47c-2-12 1-28-3-38-12 25-28 42-61 42" id="bc"/><path fill="#333" d="M185-48c-13 30-37 53-82 52C43 2 14-33 14-96s30-98 90-98c62 0 83 45 84 108H66c0 31 8 55 39 56 18 0 30-7 34-22zm-45-69c5-46-57-63-70-21-2 6-4 13-4 21h74" id="bd"/><g id="ae"><use transform="matrix(0.04938271604938272,0,0,0.04938271604938272,0,0)" xlink:href="#ba"/><use transform="matrix(0.04938271604938272,0,0,0.04938271604938272,9.82716049382716,0)" xlink:href="#bb"/><use transform="matrix(0.04938271604938272,0,0,0.04938271604938272,16.74074074074074,0)" xlink:href="#bc"/><use transform="matrix(0.04938271604938272,0,0,0.04938271604938272,27.555555555555557,0)" xlink:href="#bd"/></g></defs></g></svg>